<svg width="58" height="58" viewBox="0 0 58 58" fill="none" xmlns="http://www.w3.org/2000/svg">
<g filter="url(#filter0_d_711_1711)">
<circle cx="29" cy="25" r="25" fill="#F8F8FF"/>
</g>
<g opacity="0.8">
<path d="M18.8198 37H27.9906C28.4219 37 28.7719 36.65 28.7719 36.2188C28.7719 36.0521 28.7615 29.0938 28.7604 28.9271C28.7604 28.4958 28.4104 28.1458 27.9792 28.1458H25.6354V25.5417H27.9792C28.4104 25.5417 28.7604 25.1917 28.7604 24.7604V21.826C28.7604 19.2802 30.8323 17.2083 33.3781 17.2083H35.5312V19.8125H34.2292C33.224 19.8125 32.4062 20.6302 32.4062 21.6354V24.7604C32.4062 25.1917 32.7562 25.5417 33.1875 25.5417H36.3542L35.7031 28.1458H33.1875C32.7562 28.1458 32.4062 28.4958 32.4062 28.9271V36.2188C32.4062 36.65 32.7562 37 33.1875 37H38.1802C39.7354 37 41 35.7354 41 34.1802V14.8198C41 13.2646 39.7354 12 38.1802 12H18.8198C17.2646 12 16 13.2646 16 14.8198V34.1812C16 35.7354 17.2646 37 18.8198 37ZM17.5625 14.8198C17.5625 14.126 18.126 13.5625 18.8198 13.5625H38.1812C38.875 13.5625 39.4385 14.126 39.4385 14.8198V34.1812C39.4385 34.875 38.875 35.4385 38.1812 35.4385H33.9688V29.7083H36.3125C36.6708 29.7083 36.9833 29.4646 37.0708 29.1167L38.1125 24.95C38.2354 24.4573 37.8635 23.9792 37.3542 23.9792H33.9688V21.6354C33.9688 21.4937 34.0875 21.375 34.2292 21.375H36.3125C36.7437 21.375 37.0938 21.025 37.0938 20.5938V16.4271C37.0938 15.9958 36.7437 15.6458 36.3125 15.6458H33.3781C29.9708 15.6458 27.1979 18.4187 27.1979 21.826V23.9792H24.8542C24.4229 23.9792 24.0729 24.3292 24.0729 24.7604V28.9271C24.0729 29.3583 24.4229 29.7083 24.8542 29.7083H27.1979V35.4375H18.8198C18.126 35.4375 17.5625 34.874 17.5625 34.1802V14.8198Z" fill="#00204A"/>
</g>
<defs>
<filter id="filter0_d_711_1711" x="0" y="0" width="58" height="58" filterUnits="userSpaceOnUse" color-interpolation-filters="sRGB">
<feFlood flood-opacity="0" result="BackgroundImageFix"/>
<feColorMatrix in="SourceAlpha" type="matrix" values="0 0 0 0 0 0 0 0 0 0 0 0 0 0 0 0 0 0 127 0" result="hardAlpha"/>
<feOffset dy="4"/>
<feGaussianBlur stdDeviation="2"/>
<feColorMatrix type="matrix" values="0 0 0 0 0 0 0 0 0 0 0 0 0 0 0 0 0 0 0.25 0"/>
<feBlend mode="normal" in2="BackgroundImageFix" result="effect1_dropShadow_711_1711"/>
<feBlend mode="normal" in="SourceGraphic" in2="effect1_dropShadow_711_1711" result="shape"/>
</filter>
</defs>
</svg>
