<svg width="58" height="58" viewBox="0 0 58 58" fill="none" xmlns="http://www.w3.org/2000/svg">
<g filter="url(#filter0_d_711_2168)">
<circle cx="29" cy="25" r="25" fill="#F8F8FF"/>
</g>
<g opacity="0.8">
<path d="M21.9479 37H37.0521C39.7802 37 42 34.7802 42 32.0521V16.9479C42 14.2198 39.7802 12 37.0521 12H21.9479C19.2198 12 17 14.2198 17 16.9479V32.0521C17 34.7802 19.2198 37 21.9479 37ZM18.5625 16.9479C18.5625 15.0812 20.0812 13.5625 21.9479 13.5625H37.0521C38.9187 13.5625 40.4375 15.0812 40.4375 16.9479V32.0521C40.4375 33.9187 38.9187 35.4375 37.0521 35.4375H21.9479C20.0812 35.4375 18.5625 33.9187 18.5625 32.0521V16.9479Z" fill="#00204A"/>
<path d="M29.5 30.8851C33.0209 30.8851 35.8855 28.0205 35.8855 24.4997C35.8855 20.9788 33.0209 18.1143 29.5 18.1143C25.9792 18.1143 23.1146 20.9788 23.1146 24.4997C23.1146 28.0205 25.9792 30.8851 29.5 30.8851ZM29.5 19.6768C32.1594 19.6768 34.323 21.8403 34.323 24.4997C34.323 27.159 32.1594 29.3226 29.5 29.3226C26.8407 29.3226 24.6771 27.159 24.6771 24.4997C24.6771 21.8403 26.8407 19.6768 29.5 19.6768Z" fill="#00204A"/>
<path d="M36.1229 19.6684C37.15 19.6684 37.9239 18.8976 37.9239 17.8757C37.9239 16.8101 37.1093 16.083 36.1239 16.083C35.0968 16.083 34.3229 16.8538 34.3229 17.8757C34.3229 18.9393 35.1333 19.6684 36.1229 19.6684ZM36.3072 17.7038C36.6364 17.9945 35.8854 18.3476 35.8854 17.8768C35.8854 17.5955 36.2677 17.6684 36.3072 17.7038Z" fill="#00204A"/>
</g>
<defs>
<filter id="filter0_d_711_2168" x="0" y="0" width="58" height="58" filterUnits="userSpaceOnUse" color-interpolation-filters="sRGB">
<feFlood flood-opacity="0" result="BackgroundImageFix"/>
<feColorMatrix in="SourceAlpha" type="matrix" values="0 0 0 0 0 0 0 0 0 0 0 0 0 0 0 0 0 0 127 0" result="hardAlpha"/>
<feOffset dy="4"/>
<feGaussianBlur stdDeviation="2"/>
<feColorMatrix type="matrix" values="0 0 0 0 0 0 0 0 0 0 0 0 0 0 0 0 0 0 0.25 0"/>
<feBlend mode="normal" in2="BackgroundImageFix" result="effect1_dropShadow_711_2168"/>
<feBlend mode="normal" in="SourceGraphic" in2="effect1_dropShadow_711_2168" result="shape"/>
</filter>
</defs>
</svg>
