<svg width="310" height="34" viewBox="0 0 310 34" fill="none" xmlns="http://www.w3.org/2000/svg">
<path d="M34.5236 20.6643H34.0519C33.8385 20.6643 33.6475 20.7877 33.5577 20.9896C33.5015 21.1242 33.4341 21.2701 33.3668 21.4047C31.1092 26.2507 26.1449 29.6048 20.4168 29.5263C16.8115 29.4702 13.5094 28.0456 11.0385 25.7347C12.6783 25.6338 14.408 25.3982 16.205 25.028C17.1485 24.8373 18.1144 24.6017 19.0803 24.3437L18.1593 26.1386C17.9684 26.5087 18.1144 26.9687 18.4962 27.1594C18.6085 27.2155 18.7209 27.2379 18.8444 27.2379C19.1252 27.2379 19.3835 27.0921 19.5183 26.8228L21.1918 23.5473C21.2255 23.4912 21.2367 23.4239 21.2592 23.3566C21.2816 23.2893 21.2929 23.2107 21.2929 23.1322C21.2929 22.9864 21.248 22.863 21.1806 22.7508C21.1581 22.7172 21.1469 22.6947 21.1244 22.6611C21.1244 22.6611 21.1132 22.6499 21.1132 22.6386C21.0458 22.5489 20.9559 22.4816 20.8548 22.4367L17.5416 20.8214C17.1709 20.6419 16.7104 20.7877 16.5307 21.1691C16.351 21.5393 16.497 21.9992 16.8789 22.1787L18.4513 22.9527C15.3402 23.7716 12.3414 24.2315 9.69073 24.2652C7.85999 21.9992 6.72561 19.1724 6.60206 16.0763C6.56837 15.1116 6.62453 14.1693 6.77054 13.2606C9.73566 10.9835 13.633 8.89696 17.9684 7.28161C22.1689 5.72236 26.055 4.84738 29.3346 4.5445C30.8621 5.75601 32.1425 7.2704 33.0635 9.00914C33.1421 9.16619 33.2207 9.31202 33.2994 9.46906C33.3892 9.64855 33.5689 9.77194 33.7823 9.77194H34.2653C34.6584 9.77194 34.9167 9.3681 34.7482 9.02036C34.7482 9.02036 34.7482 9.02036 34.7482 9.00914C33.9508 7.28161 32.8389 5.73357 31.4799 4.4211C31.6259 4.4211 31.7719 4.40989 31.9067 4.40989C36.0735 4.40989 38.8814 5.48678 39.5553 7.28161C39.6676 7.58449 39.9484 7.79763 40.2741 7.79763C40.7908 7.79763 41.1727 7.28162 40.993 6.79925C40.993 6.78804 40.9817 6.7656 40.9817 6.75438C40.0832 4.36502 37.0619 3.00768 32.4682 2.90672C31.6146 2.88428 30.7161 2.91793 29.7839 2.98524C27.0546 0.999709 23.6515 -0.133277 19.99 0.0125525C12.7906 0.326648 6.81546 5.56531 5.41153 12.4081C4.9735 12.7558 4.55793 13.1036 4.16483 13.4626C0.750449 16.5362 -0.631027 19.5425 0.267494 21.9319C1.16601 24.3213 4.18729 25.6786 8.78098 25.7796C8.84837 25.7796 8.92699 25.7796 9.00561 25.7796C11.8584 28.9878 16.0141 31.0182 20.6527 31.0182C27.1445 31.0182 32.7153 27.036 35.0402 21.3935C35.0402 21.3935 35.0402 21.3935 35.0402 21.3822C35.175 21.0457 34.9055 20.6643 34.5236 20.6643ZM20.6415 1.52694C23.1012 1.52694 25.4036 2.15513 27.4141 3.26568C24.258 3.71439 20.8549 4.60059 17.4517 5.86819C13.6779 7.2704 10.2074 9.04279 7.36581 10.9835C9.2527 5.48678 14.4866 1.52694 20.6415 1.52694ZM1.68266 21.4047C1.03124 19.6772 2.28917 17.2205 5.11951 14.6516C5.11951 14.7414 5.10827 14.8311 5.10827 14.9096C4.9735 18.3647 5.98433 21.5842 7.78137 24.2203C4.47931 23.9848 2.27793 22.9864 1.68266 21.4047Z" fill="#F8F8FF"/>
<path d="M42.6103 11.0507C41.9588 10.2991 40.7234 10.086 38.8477 10.4001C38.5445 10.445 38.2524 10.5459 37.9716 10.6693L33.041 12.9577C31.7831 11.9818 28.0767 9.43536 25.1677 10.4113C24.7072 10.5683 24.3591 10.9497 24.2355 11.4209C24.112 11.9033 24.2467 12.408 24.5837 12.7782C26.0662 14.3711 26.9086 15.2686 27.3916 15.7846L25.2576 17.1307C25.2463 17.1307 25.2463 17.1307 25.2351 17.1419L19.6194 17.4672C19.2375 17.4897 18.923 17.7589 18.8444 18.1403C18.7658 18.5105 18.9567 18.8919 19.2936 19.0489L24.5163 21.5953C24.696 21.6851 24.8869 21.7299 25.0779 21.7299C25.2576 21.7299 25.4485 21.6851 25.617 21.6066L42.2396 13.8776C42.5429 13.7317 42.7787 13.4737 42.891 13.1484C43.1718 12.3407 43.0708 11.5779 42.6103 11.0507ZM41.4983 12.5539L25.1003 20.1819L22.3149 18.8246L25.3474 18.6451C25.6058 18.6339 25.8641 18.5441 26.0887 18.4095L28.6158 16.8166C28.9078 16.6371 29.0988 16.3342 29.1324 15.9977C29.1774 15.6612 29.0651 15.3246 28.8292 15.0779C28.4473 14.674 27.605 13.7878 25.7742 11.8247C28.1216 11.1404 31.5697 13.7205 32.2436 14.259C32.6142 14.5506 33.1084 14.6067 33.5464 14.416L38.6231 12.0491C38.7803 11.9818 38.9376 11.9257 39.106 11.892C40.9592 11.5779 41.3973 11.9593 41.4646 12.0379C41.5657 12.1613 41.532 12.408 41.4983 12.5539Z" fill="#F8F8FF"/>
<path d="M54.3273 9.29547L52.7419 12.8075H50.7167L55.9127 1.35079C56.0968 0.8505 56.3423 0.500294 56.6594 0.300176C56.9764 0.100059 57.314 0 57.6822 0C58.0709 0 58.4186 0.100059 58.7153 0.300176C59.0119 0.500294 59.2574 0.8505 59.4517 1.35079L64.6579 12.8075H62.6327L61.0371 9.29547H54.3273ZM55.1456 7.4844H60.2188L57.6822 1.93114L55.1456 7.4844Z" fill="#F8F8FF"/>
<path d="M66.0592 1.81107V0H76.2875V1.81107H72.1041V12.8075H70.2426V1.81107H66.0592Z" fill="#F8F8FF"/>
<path d="M88.4693 10.9965V12.8075H81.2993C80.9208 12.8075 80.5424 12.7375 80.1844 12.5874C79.8264 12.4373 79.4991 12.2472 79.223 11.9971C78.9468 11.7469 78.7218 11.4567 78.5479 11.1065C78.3842 10.7563 78.2922 10.3961 78.2922 9.99588V0H80.1537V8.98529C80.1537 10.3261 80.8492 10.9965 82.2301 10.9965H88.4693Z" fill="#F8F8FF"/>
<path d="M93.4914 9.29547L91.9061 12.8075H89.8809L95.0768 1.35079C95.2609 0.8505 95.5064 0.500294 95.8235 0.300176C96.1406 0.100059 96.4781 0 96.8463 0C97.235 0 97.5828 0.100059 97.8794 0.300176C98.176 0.500294 98.4215 0.8505 98.6158 1.35079L103.822 12.8075H101.797L100.201 9.29547H93.4914ZM94.3097 7.4844H99.3829L96.8463 1.93114L94.3097 7.4844Z" fill="#F8F8FF"/>
<path d="M105.223 1.81107V0H115.452V1.81107H111.268V12.8075H109.407V1.81107H105.223Z" fill="#F8F8FF"/>
<path d="M120.474 9.29547L118.888 12.8075H116.863L122.059 1.35079C122.243 0.8505 122.489 0.500294 122.806 0.300176C123.123 0.100059 123.46 0 123.829 0C124.217 0 124.565 0.100059 124.862 0.300176C125.158 0.500294 125.404 0.8505 125.598 1.35079L130.804 12.8075H128.779L127.183 9.29547H120.474ZM121.292 7.4844H126.365L123.829 1.93114L121.292 7.4844Z" fill="#F8F8FF"/>
<path d="M54.3273 9.29547L52.7419 12.8075H50.7167L55.9127 1.35079C56.0968 0.8505 56.3423 0.500294 56.6594 0.300176C56.9764 0.100059 57.314 0 57.6822 0C58.0709 0 58.4186 0.100059 58.7153 0.300176C59.0119 0.500294 59.2574 0.8505 59.4517 1.35079L64.6579 12.8075H62.6327L61.0371 9.29547H54.3273ZM55.1456 7.4844H60.2188L57.6822 1.93114L55.1456 7.4844Z" fill="#F8F8FF"/>
<path d="M66.0592 1.81107V0H76.2875V1.81107H72.1041V12.8075H70.2426V1.81107H66.0592Z" fill="#F8F8FF"/>
<path d="M88.4693 10.9965V12.8075H81.2993C80.9208 12.8075 80.5424 12.7375 80.1844 12.5874C79.8264 12.4373 79.4991 12.2472 79.223 11.9971C78.9468 11.7469 78.7218 11.4567 78.5479 11.1065C78.3842 10.7563 78.2922 10.3961 78.2922 9.99588V0H80.1537V8.98529C80.1537 10.3261 80.8492 10.9965 82.2301 10.9965H88.4693Z" fill="#F8F8FF"/>
<path d="M93.4914 9.29547L91.9061 12.8075H89.8809L95.0768 1.35079C95.2609 0.8505 95.5064 0.500294 95.8235 0.300176C96.1406 0.100059 96.4781 0 96.8463 0C97.235 0 97.5828 0.100059 97.8794 0.300176C98.176 0.500294 98.4215 0.8505 98.6158 1.35079L103.822 12.8075H101.797L100.201 9.29547H93.4914ZM94.3097 7.4844H99.3829L96.8463 1.93114L94.3097 7.4844Z" fill="#F8F8FF"/>
<path d="M105.223 1.81107V0H115.452V1.81107H111.268V12.8075H109.407V1.81107H105.223Z" fill="#F8F8FF"/>
<path d="M120.474 9.29547L118.888 12.8075H116.863L122.059 1.35079C122.243 0.8505 122.489 0.500294 122.806 0.300176C123.123 0.100059 123.46 0 123.829 0C124.217 0 124.565 0.100059 124.862 0.300176C125.158 0.500294 125.404 0.8505 125.598 1.35079L130.804 12.8075H128.779L127.183 9.29547H120.474ZM121.292 7.4844H126.365L123.829 1.93114L121.292 7.4844Z" fill="#F8F8FF"/>
<path d="M54.3273 9.29547L52.7419 12.8075H50.7167L55.9127 1.35079C56.0968 0.8505 56.3423 0.500294 56.6594 0.300176C56.9764 0.100059 57.314 0 57.6822 0C58.0709 0 58.4186 0.100059 58.7153 0.300176C59.0119 0.500294 59.2574 0.8505 59.4517 1.35079L64.6579 12.8075H62.6327L61.0371 9.29547H54.3273ZM55.1456 7.4844H60.2188L57.6822 1.93114L55.1456 7.4844Z" fill="#F8F8FF"/>
<path d="M66.0592 1.81107V0H76.2875V1.81107H72.1041V12.8075H70.2426V1.81107H66.0592Z" fill="#F8F8FF"/>
<path d="M88.4693 10.9965V12.8075H81.2993C80.9208 12.8075 80.5424 12.7375 80.1844 12.5874C79.8264 12.4373 79.4991 12.2472 79.223 11.9971C78.9468 11.7469 78.7218 11.4567 78.5479 11.1065C78.3842 10.7563 78.2922 10.3961 78.2922 9.99588V0H80.1537V8.98529C80.1537 10.3261 80.8492 10.9965 82.2301 10.9965H88.4693Z" fill="#F8F8FF"/>
<path d="M93.4914 9.29547L91.9061 12.8075H89.8809L95.0768 1.35079C95.2609 0.8505 95.5064 0.500294 95.8235 0.300176C96.1406 0.100059 96.4781 0 96.8463 0C97.235 0 97.5828 0.100059 97.8794 0.300176C98.176 0.500294 98.4215 0.8505 98.6158 1.35079L103.822 12.8075H101.797L100.201 9.29547H93.4914ZM94.3097 7.4844H99.3829L96.8463 1.93114L94.3097 7.4844Z" fill="#F8F8FF"/>
<path d="M105.223 1.81107V0H115.452V1.81107H111.268V12.8075H109.407V1.81107H105.223Z" fill="#F8F8FF"/>
<path d="M120.474 9.29547L118.888 12.8075H116.863L122.059 1.35079C122.243 0.8505 122.489 0.500294 122.806 0.300176C123.123 0.100059 123.46 0 123.829 0C124.217 0 124.565 0.100059 124.862 0.300176C125.158 0.500294 125.404 0.8505 125.598 1.35079L130.804 12.8075H128.779L127.183 9.29547H120.474ZM121.292 7.4844H126.365L123.829 1.93114L121.292 7.4844Z" fill="#F8F8FF"/>
<path d="M60.2047 29.4362C60.0447 29.8764 59.8047 30.1966 59.5048 30.3867C59.2049 30.5769 58.855 30.6669 58.455 30.6669C58.0451 30.6669 57.6952 30.5769 57.3953 30.3867C57.0953 30.1966 56.8654 29.8865 56.7054 29.4362L52.5363 19.4703V30.6569H50.7167V19.7105C50.7167 19.2002 50.8967 18.7599 51.2566 18.3997C51.6165 18.0395 52.0564 17.8594 52.5663 17.8594C53.0462 17.8594 53.4261 17.9594 53.6861 18.1596C53.956 18.3597 54.146 18.6298 54.266 18.96L58.445 28.9159L62.6241 18.96C62.7441 18.6298 62.9341 18.3597 63.194 18.1596C63.4539 17.9594 63.8339 17.8594 64.3338 17.8594C64.8436 17.8594 65.2835 18.0395 65.6435 18.3997C66.0034 18.7599 66.1834 19.2002 66.1834 19.7105V30.6669H64.3638V19.4703L60.2047 29.4362Z" fill="#F8F8FF"/>
<path d="M77.8308 24.4237C77.8308 24.7039 77.7709 24.9641 77.6409 25.2142C77.5109 25.4644 77.3509 25.6845 77.151 25.8746C76.951 26.0647 76.7211 26.2248 76.4611 26.3349C76.2012 26.4449 75.9313 26.505 75.6513 26.505H69.6926V27.7157C69.6926 28.6562 70.1625 29.1265 71.0923 29.1265H77.8308V30.6574H70.3525C70.0725 30.6574 69.8026 30.5974 69.5526 30.4873C69.2927 30.3772 69.0628 30.2272 68.8528 30.037C68.6429 29.8469 68.4729 29.6268 68.3429 29.3767C68.2129 29.1265 68.153 28.8564 68.153 28.5962V23.133C68.153 22.8528 68.2129 22.5927 68.3429 22.3425C68.4729 22.0924 68.6429 21.8722 68.8528 21.6821C69.0628 21.492 69.2927 21.3319 69.5526 21.2219C69.8026 21.1118 70.0725 21.0518 70.3525 21.0518H75.6413C75.9213 21.0518 76.1912 21.1118 76.4511 21.2219C76.7111 21.3319 76.941 21.492 77.141 21.6821C77.3409 21.8722 77.5009 22.0924 77.6309 22.3425C77.7609 22.5927 77.8208 22.8528 77.8208 23.133V24.4237H77.8308ZM75.0914 24.9841C75.2514 24.9841 75.4114 24.9541 75.5613 24.894C75.7113 24.834 75.8413 24.7439 75.9513 24.6339C76.0612 24.5238 76.1512 24.3937 76.2112 24.2536C76.2712 24.1136 76.3012 23.9535 76.3012 23.7834C76.3012 23.6233 76.2712 23.4632 76.2112 23.3131C76.1512 23.163 76.0612 23.0429 75.9513 22.9329C75.8413 22.8228 75.7113 22.7428 75.5613 22.6827C75.4114 22.6227 75.2614 22.5927 75.0914 22.5927H71.0923C70.1525 22.5927 69.6926 23.0729 69.6926 24.0235V24.9941H75.0914V24.9841Z" fill="#F8F8FF"/>
<path d="M87.0288 25.0941L90.9179 21.0518H93.0475L88.4585 25.8246L93.3374 30.6674H91.1979L87.0388 26.595V30.6674H85.5091V26.595L81.35 30.6674H79.2105L84.0894 25.8246L79.5004 21.0518H81.63L85.5191 25.0941V21.0518H87.0488V25.0941H87.0288Z" fill="#F8F8FF"/>
<path d="M102.175 17.8594C102.455 17.8594 102.725 17.9094 102.975 18.0195C103.225 18.1295 103.465 18.2796 103.675 18.4797C103.885 18.6799 104.055 18.9 104.185 19.1401C104.315 19.3903 104.375 19.6504 104.375 19.9306V28.6057C104.375 28.8759 104.315 29.136 104.185 29.3862C104.055 29.6363 103.885 29.8564 103.675 30.0465C103.465 30.2367 103.235 30.3867 102.975 30.4968C102.715 30.6069 102.455 30.6669 102.175 30.6669H96.8866C96.6067 30.6669 96.3367 30.6069 96.0868 30.4968C95.8368 30.3867 95.5969 30.2367 95.3969 30.0465C95.187 29.8564 95.027 29.6363 94.897 29.3862C94.7671 29.136 94.7071 28.8658 94.7071 28.6057V23.1425C94.7071 22.8623 94.7671 22.6022 94.897 22.352C95.027 22.1019 95.187 21.8817 95.3969 21.6916C95.6069 21.5015 95.8368 21.3414 96.0868 21.2314C96.3467 21.1213 96.6067 21.0613 96.8866 21.0613H102.845V20.8011C102.845 19.8706 102.375 19.4003 101.446 19.4003H95.147V17.8694H102.175V17.8594ZM102.845 24.013C102.845 23.0624 102.375 22.5822 101.446 22.5822H97.6664C96.7067 22.5822 96.2368 23.0624 96.2368 24.013V27.7252C96.2368 28.6657 96.7167 29.136 97.6664 29.136H101.446C102.385 29.136 102.845 28.6657 102.845 27.7252V24.013Z" fill="#F8F8FF"/>
<path d="M114.483 21.0518H116.012V31.9282C116.012 32.1983 115.952 32.4585 115.822 32.7086C115.692 32.9588 115.533 33.1789 115.323 33.369C115.113 33.5591 114.883 33.7092 114.633 33.8193C114.383 33.9293 114.113 33.9894 113.833 33.9894H106.784V32.4585H113.053C114.013 32.4585 114.483 31.9882 114.483 31.0476V30.6574H108.534C108.254 30.6574 107.984 30.5974 107.734 30.4873C107.474 30.3772 107.244 30.2272 107.034 30.037C106.824 29.8469 106.654 29.6268 106.524 29.3767C106.395 29.1265 106.335 28.8563 106.335 28.5962V21.0518H107.864V27.7257C107.864 28.6662 108.334 29.1365 109.264 29.1365H113.043C114.003 29.1365 114.473 28.6662 114.473 27.7257V21.0518H114.483Z" fill="#F8F8FF"/>
<path d="M126.12 26.515H119.512V30.6674H117.982V21.0518H119.512V24.9841H126.12V21.0518H127.65V30.6674H126.12V26.515Z" fill="#F8F8FF"/>
<path d="M136.318 22.5827H130.049V21.0518H137.098C137.378 21.0518 137.648 21.1118 137.898 21.2219C138.158 21.3319 138.388 21.492 138.588 21.6821C138.787 21.8722 138.957 22.0924 139.087 22.3425C139.217 22.5927 139.277 22.8528 139.277 23.133V28.5962C139.277 28.8664 139.217 29.1265 139.087 29.3767C138.957 29.6268 138.797 29.8469 138.588 30.037C138.378 30.2272 138.148 30.3772 137.898 30.4873C137.648 30.5974 137.378 30.6574 137.098 30.6574H131.809C131.529 30.6574 131.259 30.5974 131.009 30.4873C130.749 30.3772 130.519 30.2272 130.309 30.037C130.099 29.8469 129.929 29.6268 129.799 29.3767C129.669 29.1265 129.609 28.8564 129.609 28.5962V26.3349C129.609 26.0547 129.669 25.7945 129.799 25.5444C129.929 25.2943 130.099 25.0741 130.309 24.874C130.519 24.6739 130.749 24.5238 131.009 24.4237C131.259 24.3237 131.529 24.2636 131.809 24.2636H137.758V24.0135C137.758 23.0529 137.278 22.5827 136.318 22.5827ZM132.549 25.7945C131.609 25.7945 131.149 26.2648 131.149 27.1954V27.7257C131.149 28.6662 131.619 29.1365 132.549 29.1365H136.328C137.288 29.1365 137.758 28.6662 137.758 27.7257V27.1954C137.758 26.2648 137.278 25.7945 136.328 25.7945H132.549Z" fill="#F8F8FF"/>
<path d="M142.777 30.6681V34.0001H141.247V23.1237C141.247 22.8536 141.307 22.5934 141.437 22.3433C141.567 22.0931 141.737 21.863 141.947 21.6829C142.157 21.4928 142.387 21.3427 142.647 21.2326C142.897 21.1225 143.166 21.0625 143.446 21.0625H148.735C149.015 21.0625 149.285 21.1225 149.535 21.2326C149.795 21.3427 150.025 21.4928 150.225 21.6829C150.435 21.873 150.595 22.0931 150.725 22.3433C150.855 22.5934 150.915 22.8636 150.915 23.1237V28.5869C150.915 28.8671 150.855 29.1272 150.725 29.3774C150.595 29.6275 150.435 29.8477 150.225 30.0378C150.015 30.2279 149.785 30.388 149.535 30.498C149.285 30.6081 149.015 30.6681 148.735 30.6681H142.777ZM147.955 29.1372C148.915 29.1372 149.385 28.657 149.385 27.7064V23.9942C149.385 23.0537 148.905 22.5834 147.955 22.5834H144.176C143.236 22.5834 142.777 23.0537 142.777 23.9942V27.7064C142.777 28.657 143.246 29.1372 144.176 29.1372H147.955Z" fill="#F8F8FF"/>
<path d="M152.884 23.1437C152.884 22.8636 152.944 22.6034 153.074 22.3533C153.204 22.1031 153.374 21.883 153.584 21.6929C153.794 21.5028 154.024 21.3427 154.284 21.2326C154.534 21.1225 154.804 21.0625 155.084 21.0625H160.373C160.653 21.0625 160.923 21.1225 161.173 21.2326C161.433 21.3427 161.662 21.5028 161.862 21.6929C162.062 21.883 162.232 22.1031 162.362 22.3533C162.492 22.6034 162.552 22.8636 162.552 23.1437V28.6069C162.552 28.8771 162.492 29.1372 162.362 29.3874C162.232 29.6375 162.072 29.8577 161.862 30.0478C161.652 30.2379 161.423 30.388 161.173 30.498C160.923 30.6081 160.653 30.6681 160.373 30.6681H155.084C154.804 30.6681 154.534 30.6081 154.284 30.498C154.024 30.388 153.794 30.2379 153.584 30.0478C153.374 29.8577 153.204 29.6375 153.074 29.3874C152.944 29.1372 152.884 28.8671 152.884 28.6069V23.1437ZM154.414 27.7264C154.414 28.667 154.884 29.1372 155.814 29.1372H159.593C160.553 29.1372 161.023 28.667 161.023 27.7264V24.0142C161.023 23.0637 160.543 22.5834 159.593 22.5834H155.814C154.874 22.5834 154.414 23.0637 154.414 24.0142V27.7264Z" fill="#F8F8FF"/>
<path d="M172 17.8594C172.28 17.8594 172.55 17.9094 172.8 18.0195C173.06 18.1295 173.29 18.2796 173.5 18.4797C173.71 18.6799 173.88 18.9 174 19.1401C174.13 19.3903 174.19 19.6504 174.19 19.9306V28.6057C174.19 28.8759 174.13 29.136 174 29.3862C173.87 29.6363 173.7 29.8564 173.5 30.0465C173.29 30.2367 173.06 30.3867 172.8 30.4968C172.55 30.6069 172.28 30.6669 172 30.6669H166.711C166.431 30.6669 166.161 30.6069 165.912 30.4968C165.662 30.3867 165.422 30.2367 165.222 30.0465C165.012 29.8564 164.852 29.6363 164.722 29.3862C164.592 29.136 164.532 28.8658 164.532 28.6057V23.1425C164.532 22.8623 164.592 22.6022 164.722 22.352C164.852 22.1019 165.012 21.8817 165.222 21.6916C165.432 21.5015 165.662 21.3414 165.912 21.2314C166.161 21.1213 166.431 21.0613 166.711 21.0613H172.67V20.8011C172.67 19.8706 172.2 19.4003 171.27 19.4003H164.972V17.8694H172V17.8594ZM172.66 24.013C172.66 23.0624 172.19 22.5822 171.26 22.5822H167.481C166.521 22.5822 166.051 23.0624 166.051 24.013V27.7252C166.051 28.6657 166.531 29.136 167.481 29.136H171.26C172.2 29.136 172.66 28.6657 172.66 27.7252V24.013Z" fill="#F8F8FF"/>
<path d="M184.297 26.515H177.689V30.6674H176.159V21.0518H177.689V24.9841H184.297V21.0518H185.827V30.6674H184.297V26.515Z" fill="#F8F8FF"/>
<path d="M189.326 23.7233H193.825C194.105 23.7233 194.375 23.7734 194.635 23.8834C194.895 23.9935 195.125 24.1436 195.325 24.3437C195.525 24.5438 195.685 24.7639 195.815 25.0041C195.945 25.2542 196.005 25.5144 196.005 25.7945V28.5962C196.005 28.8664 195.945 29.1265 195.815 29.3767C195.685 29.6268 195.525 29.8469 195.325 30.037C195.125 30.2272 194.895 30.3772 194.635 30.4873C194.375 30.5974 194.105 30.6574 193.825 30.6574H189.986C189.706 30.6574 189.436 30.5974 189.186 30.4873C188.937 30.3772 188.697 30.2272 188.487 30.037C188.277 29.8469 188.107 29.6268 187.977 29.3767C187.847 29.1265 187.787 28.8563 187.787 28.5962V21.0518H189.316V23.7233H189.326ZM189.326 25.2542V27.7257C189.326 28.6662 189.796 29.1365 190.726 29.1365H193.076C194.015 29.1365 194.475 28.6662 194.475 27.7257V26.6551C194.475 25.7245 194.005 25.2542 193.076 25.2542H189.326ZM197.355 21.0518H198.884V30.6674H197.355V21.0518Z" fill="#F8F8FF"/>
<path d="M208.992 29.1369V21.0521H210.522V30.6678H203.043C202.763 30.6678 202.494 30.6078 202.244 30.4977C201.994 30.3876 201.754 30.2375 201.544 30.0474C201.334 29.8573 201.164 29.6372 201.034 29.387C200.904 29.1369 200.844 28.8667 200.844 28.6066V21.0622H202.374V27.7361C202.374 28.6766 202.843 29.1469 203.773 29.1469H208.992V29.1369ZM205.143 19.6313L206.083 17.0098H207.872L206.123 19.6313H205.143Z" fill="#F8F8FF"/>
<path d="M227.048 22.5827H220.779V21.0518H227.828C228.108 21.0518 228.378 21.1118 228.628 21.2219C228.888 21.3319 229.118 21.492 229.318 21.6821C229.518 21.8722 229.688 22.0924 229.818 22.3425C229.947 22.5927 230.007 22.8528 230.007 23.133V28.5962C230.007 28.8664 229.947 29.1265 229.818 29.3767C229.688 29.6268 229.528 29.8469 229.318 30.037C229.108 30.2272 228.878 30.3772 228.628 30.4873C228.378 30.5974 228.108 30.6574 227.828 30.6574H222.539C222.259 30.6574 221.989 30.5974 221.739 30.4873C221.489 30.3772 221.249 30.2272 221.039 30.037C220.829 29.8469 220.66 29.6268 220.53 29.3767C220.4 29.1265 220.34 28.8564 220.34 28.5962V26.3349C220.34 26.0547 220.4 25.7945 220.53 25.5444C220.66 25.2943 220.829 25.0741 221.039 24.874C221.249 24.6739 221.479 24.5238 221.739 24.4237C221.999 24.3237 222.259 24.2636 222.539 24.2636H228.488V24.0135C228.478 23.0529 227.998 22.5827 227.048 22.5827ZM223.269 25.7945C222.329 25.7945 221.869 26.2648 221.869 27.1954V27.7257C221.869 28.6662 222.339 29.1365 223.269 29.1365H227.048C228.008 29.1365 228.478 28.6662 228.478 27.7257V27.1954C228.478 26.2648 227.998 25.7945 227.048 25.7945H223.269Z" fill="#F8F8FF"/>
<path d="M240.115 26.5157H235.076V24.9848H240.115V24.0142C240.115 23.0637 239.635 22.5834 238.686 22.5834H235.256C234.317 22.5834 233.857 23.0637 233.857 24.0142H232.327V23.1437C232.327 22.8636 232.387 22.6034 232.507 22.3533C232.627 22.1031 232.797 21.883 233.007 21.6929C233.217 21.5028 233.447 21.3427 233.707 21.2326C233.967 21.1225 234.227 21.0625 234.497 21.0625H239.465C239.745 21.0625 240.015 21.1225 240.265 21.2326C240.525 21.3427 240.755 21.5028 240.955 21.6929C241.155 21.883 241.325 22.1031 241.455 22.3533C241.585 22.6034 241.645 22.8636 241.645 23.1437V28.6069C241.645 28.8771 241.585 29.1372 241.455 29.3874C241.325 29.6375 241.165 29.8577 240.955 30.0478C240.745 30.2379 240.515 30.388 240.265 30.498C240.015 30.6081 239.745 30.6681 239.465 30.6681H234.177C233.897 30.6681 233.627 30.6081 233.377 30.498C233.127 30.388 232.887 30.2379 232.677 30.0478C232.467 29.8577 232.297 29.6375 232.167 29.3874C232.037 29.1372 231.977 28.8671 231.977 28.6069V27.7364H233.507C233.507 28.677 233.977 29.1473 234.906 29.1473H238.686C239.645 29.1473 240.115 28.677 240.115 27.7364V26.5157Z" fill="#F8F8FF"/>
<path d="M245.134 30.6681V34.0001H243.605V23.1237C243.605 22.8536 243.665 22.5934 243.795 22.3433C243.924 22.0931 244.094 21.863 244.304 21.6829C244.514 21.4928 244.744 21.3427 245.004 21.2326C245.264 21.1225 245.524 21.0625 245.804 21.0625H251.093C251.373 21.0625 251.643 21.1225 251.893 21.2326C252.153 21.3427 252.383 21.4928 252.583 21.6829C252.793 21.873 252.953 22.0931 253.082 22.3433C253.212 22.5934 253.272 22.8636 253.272 23.1237V28.5869C253.272 28.8671 253.212 29.1272 253.082 29.3774C252.953 29.6275 252.793 29.8477 252.583 30.0378C252.373 30.2279 252.143 30.388 251.893 30.498C251.643 30.6081 251.373 30.6681 251.093 30.6681H245.134ZM250.323 29.1372C251.283 29.1372 251.753 28.657 251.753 27.7064V23.9942C251.753 23.0537 251.273 22.5834 250.323 22.5834H246.544C245.604 22.5834 245.144 23.0537 245.144 23.9942V27.7064C245.144 28.657 245.614 29.1372 246.544 29.1372H250.323Z" fill="#F8F8FF"/>
<path d="M255.242 23.1437C255.242 22.8636 255.302 22.6034 255.432 22.3533C255.562 22.1031 255.732 21.883 255.942 21.6929C256.152 21.5028 256.382 21.3427 256.642 21.2326C256.902 21.1225 257.162 21.0625 257.442 21.0625H262.73C263.01 21.0625 263.28 21.1225 263.53 21.2326C263.79 21.3427 264.02 21.5028 264.22 21.6929C264.42 21.883 264.59 22.1031 264.72 22.3533C264.85 22.6034 264.91 22.8636 264.91 23.1437V28.6069C264.91 28.8771 264.85 29.1372 264.72 29.3874C264.59 29.6375 264.43 29.8577 264.22 30.0478C264.01 30.2379 263.78 30.388 263.53 30.498C263.28 30.6081 263.01 30.6681 262.73 30.6681H257.442C257.162 30.6681 256.892 30.6081 256.642 30.498C256.392 30.388 256.152 30.2379 255.942 30.0478C255.732 29.8577 255.562 29.6375 255.432 29.3874C255.302 29.1372 255.242 28.8671 255.242 28.6069V23.1437ZM256.772 27.7264C256.772 28.667 257.242 29.1372 258.171 29.1372H261.951C262.91 29.1372 263.38 28.667 263.38 27.7264V24.0142C263.38 23.0637 262.9 22.5834 261.951 22.5834H258.171C257.232 22.5834 256.772 23.0637 256.772 24.0142V27.7264Z" fill="#F8F8FF"/>
<path d="M268.409 22.5827V30.6674H266.879V21.0518H274.358C274.638 21.0518 274.908 21.1118 275.158 21.2219C275.418 21.3319 275.648 21.482 275.857 21.6721C276.067 21.8622 276.237 22.0824 276.357 22.3325C276.487 22.5827 276.547 22.8528 276.547 23.113V30.6574H275.018V23.9835C275.018 23.0429 274.548 22.5727 273.618 22.5727H268.409V22.5827Z" fill="#F8F8FF"/>
<path d="M278.517 23.1437C278.517 22.8636 278.577 22.6034 278.707 22.3533C278.837 22.1031 279.007 21.883 279.217 21.6929C279.427 21.5028 279.657 21.3427 279.917 21.2326C280.176 21.1225 280.436 21.0625 280.716 21.0625H286.005C286.285 21.0625 286.555 21.1225 286.805 21.2326C287.065 21.3427 287.295 21.5028 287.495 21.6929C287.695 21.883 287.865 22.1031 287.995 22.3533C288.125 22.6034 288.185 22.8636 288.185 23.1437V28.6069C288.185 28.8771 288.125 29.1372 287.995 29.3874C287.865 29.6375 287.705 29.8577 287.495 30.0478C287.285 30.2379 287.055 30.388 286.805 30.498C286.555 30.6081 286.285 30.6681 286.005 30.6681H280.716C280.436 30.6681 280.166 30.6081 279.917 30.498C279.667 30.388 279.427 30.2379 279.217 30.0478C279.007 29.8577 278.837 29.6375 278.707 29.3874C278.577 29.1372 278.517 28.8671 278.517 28.6069V23.1437ZM280.047 27.7264C280.047 28.667 280.516 29.1372 281.446 29.1372H285.225C286.185 29.1372 286.655 28.667 286.655 27.7264V24.0142C286.655 23.0637 286.175 22.5834 285.225 22.5834H281.446C280.506 22.5834 280.047 23.0637 280.047 24.0142V27.7264Z" fill="#F8F8FF"/>
<path d="M291.684 30.6681V34.0001H290.154V23.1237C290.154 22.8536 290.214 22.5934 290.344 22.3433C290.474 22.0931 290.644 21.863 290.854 21.6829C291.064 21.4928 291.294 21.3427 291.554 21.2326C291.814 21.1225 292.074 21.0625 292.354 21.0625H297.643C297.923 21.0625 298.193 21.1225 298.442 21.2326C298.702 21.3427 298.932 21.4928 299.132 21.6829C299.342 21.873 299.502 22.0931 299.632 22.3433C299.762 22.5934 299.822 22.8636 299.822 23.1237V28.5869C299.822 28.8671 299.762 29.1272 299.632 29.3774C299.502 29.6275 299.342 29.8477 299.132 30.0378C298.922 30.2279 298.692 30.388 298.442 30.498C298.193 30.6081 297.923 30.6681 297.643 30.6681H291.684ZM296.863 29.1372C297.823 29.1372 298.293 28.657 298.293 27.7064V23.9942C298.293 23.0537 297.813 22.5834 296.863 22.5834H293.084C292.144 22.5834 291.684 23.0537 291.684 23.9942V27.7064C291.684 28.657 292.154 29.1372 293.084 29.1372H296.863Z" fill="#F8F8FF"/>
<path d="M305.131 22.5827H301.782V21.0518H310V22.5827H306.651V30.6674H305.121V22.5827H305.131Z" fill="#F8F8FF"/>
<path d="M60.2047 29.4362C60.0447 29.8764 59.8047 30.1966 59.5048 30.3867C59.2049 30.5769 58.855 30.6669 58.455 30.6669C58.0451 30.6669 57.6952 30.5769 57.3953 30.3867C57.0953 30.1966 56.8654 29.8865 56.7054 29.4362L52.5363 19.4703V30.6569H50.7167V19.7105C50.7167 19.2002 50.8967 18.7599 51.2566 18.3997C51.6165 18.0395 52.0564 17.8594 52.5663 17.8594C53.0462 17.8594 53.4261 17.9594 53.6861 18.1596C53.956 18.3597 54.146 18.6298 54.266 18.96L58.445 28.9159L62.6241 18.96C62.7441 18.6298 62.9341 18.3597 63.194 18.1596C63.4539 17.9594 63.8339 17.8594 64.3338 17.8594C64.8436 17.8594 65.2835 18.0395 65.6435 18.3997C66.0034 18.7599 66.1834 19.2002 66.1834 19.7105V30.6669H64.3638V19.4703L60.2047 29.4362Z" fill="#F8F8FF"/>
<path d="M77.8308 24.4237C77.8308 24.7039 77.7709 24.9641 77.6409 25.2142C77.5109 25.4644 77.3509 25.6845 77.151 25.8746C76.951 26.0647 76.7211 26.2248 76.4611 26.3349C76.2012 26.4449 75.9313 26.505 75.6513 26.505H69.6926V27.7157C69.6926 28.6562 70.1625 29.1265 71.0923 29.1265H77.8308V30.6574H70.3525C70.0725 30.6574 69.8026 30.5974 69.5526 30.4873C69.2927 30.3772 69.0628 30.2272 68.8528 30.037C68.6429 29.8469 68.4729 29.6268 68.3429 29.3767C68.2129 29.1265 68.153 28.8564 68.153 28.5962V23.133C68.153 22.8528 68.2129 22.5927 68.3429 22.3425C68.4729 22.0924 68.6429 21.8722 68.8528 21.6821C69.0628 21.492 69.2927 21.3319 69.5526 21.2219C69.8026 21.1118 70.0725 21.0518 70.3525 21.0518H75.6413C75.9213 21.0518 76.1912 21.1118 76.4511 21.2219C76.7111 21.3319 76.941 21.492 77.141 21.6821C77.3409 21.8722 77.5009 22.0924 77.6309 22.3425C77.7609 22.5927 77.8208 22.8528 77.8208 23.133V24.4237H77.8308ZM75.0914 24.9841C75.2514 24.9841 75.4114 24.9541 75.5613 24.894C75.7113 24.834 75.8413 24.7439 75.9513 24.6339C76.0612 24.5238 76.1512 24.3937 76.2112 24.2536C76.2712 24.1136 76.3012 23.9535 76.3012 23.7834C76.3012 23.6233 76.2712 23.4632 76.2112 23.3131C76.1512 23.163 76.0612 23.0429 75.9513 22.9329C75.8413 22.8228 75.7113 22.7428 75.5613 22.6827C75.4114 22.6227 75.2614 22.5927 75.0914 22.5927H71.0923C70.1525 22.5927 69.6926 23.0729 69.6926 24.0235V24.9941H75.0914V24.9841Z" fill="#F8F8FF"/>
<path d="M87.0288 25.0941L90.9179 21.0518H93.0475L88.4585 25.8246L93.3374 30.6674H91.1979L87.0388 26.595V30.6674H85.5091V26.595L81.35 30.6674H79.2105L84.0894 25.8246L79.5004 21.0518H81.63L85.5191 25.0941V21.0518H87.0488V25.0941H87.0288Z" fill="#F8F8FF"/>
<path d="M102.175 17.8594C102.455 17.8594 102.725 17.9094 102.975 18.0195C103.225 18.1295 103.465 18.2796 103.675 18.4797C103.885 18.6799 104.055 18.9 104.185 19.1401C104.315 19.3903 104.375 19.6504 104.375 19.9306V28.6057C104.375 28.8759 104.315 29.136 104.185 29.3862C104.055 29.6363 103.885 29.8564 103.675 30.0465C103.465 30.2367 103.235 30.3867 102.975 30.4968C102.715 30.6069 102.455 30.6669 102.175 30.6669H96.8866C96.6067 30.6669 96.3367 30.6069 96.0868 30.4968C95.8368 30.3867 95.5969 30.2367 95.3969 30.0465C95.187 29.8564 95.027 29.6363 94.897 29.3862C94.7671 29.136 94.7071 28.8658 94.7071 28.6057V23.1425C94.7071 22.8623 94.7671 22.6022 94.897 22.352C95.027 22.1019 95.187 21.8817 95.3969 21.6916C95.6069 21.5015 95.8368 21.3414 96.0868 21.2314C96.3467 21.1213 96.6067 21.0613 96.8866 21.0613H102.845V20.8011C102.845 19.8706 102.375 19.4003 101.446 19.4003H95.147V17.8694H102.175V17.8594ZM102.845 24.013C102.845 23.0624 102.375 22.5822 101.446 22.5822H97.6664C96.7067 22.5822 96.2368 23.0624 96.2368 24.013V27.7252C96.2368 28.6657 96.7167 29.136 97.6664 29.136H101.446C102.385 29.136 102.845 28.6657 102.845 27.7252V24.013Z" fill="#F8F8FF"/>
<path d="M114.483 21.0518H116.012V31.9282C116.012 32.1983 115.952 32.4585 115.822 32.7086C115.692 32.9588 115.533 33.1789 115.323 33.369C115.113 33.5591 114.883 33.7092 114.633 33.8193C114.383 33.9293 114.113 33.9894 113.833 33.9894H106.784V32.4585H113.053C114.013 32.4585 114.483 31.9882 114.483 31.0476V30.6574H108.534C108.254 30.6574 107.984 30.5974 107.734 30.4873C107.474 30.3772 107.244 30.2272 107.034 30.037C106.824 29.8469 106.654 29.6268 106.524 29.3767C106.395 29.1265 106.335 28.8563 106.335 28.5962V21.0518H107.864V27.7257C107.864 28.6662 108.334 29.1365 109.264 29.1365H113.043C114.003 29.1365 114.473 28.6662 114.473 27.7257V21.0518H114.483Z" fill="#F8F8FF"/>
<path d="M126.12 26.515H119.512V30.6674H117.982V21.0518H119.512V24.9841H126.12V21.0518H127.65V30.6674H126.12V26.515Z" fill="#F8F8FF"/>
<path d="M136.318 22.5827H130.049V21.0518H137.098C137.378 21.0518 137.648 21.1118 137.898 21.2219C138.158 21.3319 138.388 21.492 138.588 21.6821C138.787 21.8722 138.957 22.0924 139.087 22.3425C139.217 22.5927 139.277 22.8528 139.277 23.133V28.5962C139.277 28.8664 139.217 29.1265 139.087 29.3767C138.957 29.6268 138.797 29.8469 138.588 30.037C138.378 30.2272 138.148 30.3772 137.898 30.4873C137.648 30.5974 137.378 30.6574 137.098 30.6574H131.809C131.529 30.6574 131.259 30.5974 131.009 30.4873C130.749 30.3772 130.519 30.2272 130.309 30.037C130.099 29.8469 129.929 29.6268 129.799 29.3767C129.669 29.1265 129.609 28.8564 129.609 28.5962V26.3349C129.609 26.0547 129.669 25.7945 129.799 25.5444C129.929 25.2943 130.099 25.0741 130.309 24.874C130.519 24.6739 130.749 24.5238 131.009 24.4237C131.259 24.3237 131.529 24.2636 131.809 24.2636H137.758V24.0135C137.758 23.0529 137.278 22.5827 136.318 22.5827ZM132.549 25.7945C131.609 25.7945 131.149 26.2648 131.149 27.1954V27.7257C131.149 28.6662 131.619 29.1365 132.549 29.1365H136.328C137.288 29.1365 137.758 28.6662 137.758 27.7257V27.1954C137.758 26.2648 137.278 25.7945 136.328 25.7945H132.549Z" fill="#F8F8FF"/>
<path d="M142.777 30.6681V34.0001H141.247V23.1237C141.247 22.8536 141.307 22.5934 141.437 22.3433C141.567 22.0931 141.737 21.863 141.947 21.6829C142.157 21.4928 142.387 21.3427 142.647 21.2326C142.897 21.1225 143.166 21.0625 143.446 21.0625H148.735C149.015 21.0625 149.285 21.1225 149.535 21.2326C149.795 21.3427 150.025 21.4928 150.225 21.6829C150.435 21.873 150.595 22.0931 150.725 22.3433C150.855 22.5934 150.915 22.8636 150.915 23.1237V28.5869C150.915 28.8671 150.855 29.1272 150.725 29.3774C150.595 29.6275 150.435 29.8477 150.225 30.0378C150.015 30.2279 149.785 30.388 149.535 30.498C149.285 30.6081 149.015 30.6681 148.735 30.6681H142.777ZM147.955 29.1372C148.915 29.1372 149.385 28.657 149.385 27.7064V23.9942C149.385 23.0537 148.905 22.5834 147.955 22.5834H144.176C143.236 22.5834 142.777 23.0537 142.777 23.9942V27.7064C142.777 28.657 143.246 29.1372 144.176 29.1372H147.955Z" fill="#F8F8FF"/>
<path d="M152.884 23.1437C152.884 22.8636 152.944 22.6034 153.074 22.3533C153.204 22.1031 153.374 21.883 153.584 21.6929C153.794 21.5028 154.024 21.3427 154.284 21.2326C154.534 21.1225 154.804 21.0625 155.084 21.0625H160.373C160.653 21.0625 160.923 21.1225 161.173 21.2326C161.433 21.3427 161.662 21.5028 161.862 21.6929C162.062 21.883 162.232 22.1031 162.362 22.3533C162.492 22.6034 162.552 22.8636 162.552 23.1437V28.6069C162.552 28.8771 162.492 29.1372 162.362 29.3874C162.232 29.6375 162.072 29.8577 161.862 30.0478C161.652 30.2379 161.423 30.388 161.173 30.498C160.923 30.6081 160.653 30.6681 160.373 30.6681H155.084C154.804 30.6681 154.534 30.6081 154.284 30.498C154.024 30.388 153.794 30.2379 153.584 30.0478C153.374 29.8577 153.204 29.6375 153.074 29.3874C152.944 29.1372 152.884 28.8671 152.884 28.6069V23.1437ZM154.414 27.7264C154.414 28.667 154.884 29.1372 155.814 29.1372H159.593C160.553 29.1372 161.023 28.667 161.023 27.7264V24.0142C161.023 23.0637 160.543 22.5834 159.593 22.5834H155.814C154.874 22.5834 154.414 23.0637 154.414 24.0142V27.7264Z" fill="#F8F8FF"/>
<path d="M172 17.8594C172.28 17.8594 172.55 17.9094 172.8 18.0195C173.06 18.1295 173.29 18.2796 173.5 18.4797C173.71 18.6799 173.88 18.9 174 19.1401C174.13 19.3903 174.19 19.6504 174.19 19.9306V28.6057C174.19 28.8759 174.13 29.136 174 29.3862C173.87 29.6363 173.7 29.8564 173.5 30.0465C173.29 30.2367 173.06 30.3867 172.8 30.4968C172.55 30.6069 172.28 30.6669 172 30.6669H166.711C166.431 30.6669 166.161 30.6069 165.912 30.4968C165.662 30.3867 165.422 30.2367 165.222 30.0465C165.012 29.8564 164.852 29.6363 164.722 29.3862C164.592 29.136 164.532 28.8658 164.532 28.6057V23.1425C164.532 22.8623 164.592 22.6022 164.722 22.352C164.852 22.1019 165.012 21.8817 165.222 21.6916C165.432 21.5015 165.662 21.3414 165.912 21.2314C166.161 21.1213 166.431 21.0613 166.711 21.0613H172.67V20.8011C172.67 19.8706 172.2 19.4003 171.27 19.4003H164.972V17.8694H172V17.8594ZM172.66 24.013C172.66 23.0624 172.19 22.5822 171.26 22.5822H167.481C166.521 22.5822 166.051 23.0624 166.051 24.013V27.7252C166.051 28.6657 166.531 29.136 167.481 29.136H171.26C172.2 29.136 172.66 28.6657 172.66 27.7252V24.013Z" fill="#F8F8FF"/>
<path d="M184.297 26.515H177.689V30.6674H176.159V21.0518H177.689V24.9841H184.297V21.0518H185.827V30.6674H184.297V26.515Z" fill="#F8F8FF"/>
<path d="M189.326 23.7233H193.825C194.105 23.7233 194.375 23.7734 194.635 23.8834C194.895 23.9935 195.125 24.1436 195.325 24.3437C195.525 24.5438 195.685 24.7639 195.815 25.0041C195.945 25.2542 196.005 25.5144 196.005 25.7945V28.5962C196.005 28.8664 195.945 29.1265 195.815 29.3767C195.685 29.6268 195.525 29.8469 195.325 30.037C195.125 30.2272 194.895 30.3772 194.635 30.4873C194.375 30.5974 194.105 30.6574 193.825 30.6574H189.986C189.706 30.6574 189.436 30.5974 189.186 30.4873C188.937 30.3772 188.697 30.2272 188.487 30.037C188.277 29.8469 188.107 29.6268 187.977 29.3767C187.847 29.1265 187.787 28.8563 187.787 28.5962V21.0518H189.316V23.7233H189.326ZM189.326 25.2542V27.7257C189.326 28.6662 189.796 29.1365 190.726 29.1365H193.076C194.015 29.1365 194.475 28.6662 194.475 27.7257V26.6551C194.475 25.7245 194.005 25.2542 193.076 25.2542H189.326ZM197.355 21.0518H198.884V30.6674H197.355V21.0518Z" fill="#F8F8FF"/>
<path d="M208.992 29.1369V21.0521H210.522V30.6678H203.043C202.763 30.6678 202.494 30.6078 202.244 30.4977C201.994 30.3876 201.754 30.2375 201.544 30.0474C201.334 29.8573 201.164 29.6372 201.034 29.387C200.904 29.1369 200.844 28.8667 200.844 28.6066V21.0622H202.374V27.7361C202.374 28.6766 202.843 29.1469 203.773 29.1469H208.992V29.1369ZM205.143 19.6313L206.083 17.0098H207.872L206.123 19.6313H205.143Z" fill="#F8F8FF"/>
<path d="M227.048 22.5827H220.779V21.0518H227.828C228.108 21.0518 228.378 21.1118 228.628 21.2219C228.888 21.3319 229.118 21.492 229.318 21.6821C229.518 21.8722 229.688 22.0924 229.818 22.3425C229.947 22.5927 230.007 22.8528 230.007 23.133V28.5962C230.007 28.8664 229.947 29.1265 229.818 29.3767C229.688 29.6268 229.528 29.8469 229.318 30.037C229.108 30.2272 228.878 30.3772 228.628 30.4873C228.378 30.5974 228.108 30.6574 227.828 30.6574H222.539C222.259 30.6574 221.989 30.5974 221.739 30.4873C221.489 30.3772 221.249 30.2272 221.039 30.037C220.829 29.8469 220.66 29.6268 220.53 29.3767C220.4 29.1265 220.34 28.8564 220.34 28.5962V26.3349C220.34 26.0547 220.4 25.7945 220.53 25.5444C220.66 25.2943 220.829 25.0741 221.039 24.874C221.249 24.6739 221.479 24.5238 221.739 24.4237C221.999 24.3237 222.259 24.2636 222.539 24.2636H228.488V24.0135C228.478 23.0529 227.998 22.5827 227.048 22.5827ZM223.269 25.7945C222.329 25.7945 221.869 26.2648 221.869 27.1954V27.7257C221.869 28.6662 222.339 29.1365 223.269 29.1365H227.048C228.008 29.1365 228.478 28.6662 228.478 27.7257V27.1954C228.478 26.2648 227.998 25.7945 227.048 25.7945H223.269Z" fill="#F8F8FF"/>
<path d="M240.115 26.5157H235.076V24.9848H240.115V24.0142C240.115 23.0637 239.635 22.5834 238.686 22.5834H235.256C234.317 22.5834 233.857 23.0637 233.857 24.0142H232.327V23.1437C232.327 22.8636 232.387 22.6034 232.507 22.3533C232.627 22.1031 232.797 21.883 233.007 21.6929C233.217 21.5028 233.447 21.3427 233.707 21.2326C233.967 21.1225 234.227 21.0625 234.497 21.0625H239.465C239.745 21.0625 240.015 21.1225 240.265 21.2326C240.525 21.3427 240.755 21.5028 240.955 21.6929C241.155 21.883 241.325 22.1031 241.455 22.3533C241.585 22.6034 241.645 22.8636 241.645 23.1437V28.6069C241.645 28.8771 241.585 29.1372 241.455 29.3874C241.325 29.6375 241.165 29.8577 240.955 30.0478C240.745 30.2379 240.515 30.388 240.265 30.498C240.015 30.6081 239.745 30.6681 239.465 30.6681H234.177C233.897 30.6681 233.627 30.6081 233.377 30.498C233.127 30.388 232.887 30.2379 232.677 30.0478C232.467 29.8577 232.297 29.6375 232.167 29.3874C232.037 29.1372 231.977 28.8671 231.977 28.6069V27.7364H233.507C233.507 28.677 233.977 29.1473 234.906 29.1473H238.686C239.645 29.1473 240.115 28.677 240.115 27.7364V26.5157Z" fill="#F8F8FF"/>
<path d="M245.134 30.6681V34.0001H243.605V23.1237C243.605 22.8536 243.665 22.5934 243.795 22.3433C243.924 22.0931 244.094 21.863 244.304 21.6829C244.514 21.4928 244.744 21.3427 245.004 21.2326C245.264 21.1225 245.524 21.0625 245.804 21.0625H251.093C251.373 21.0625 251.643 21.1225 251.893 21.2326C252.153 21.3427 252.383 21.4928 252.583 21.6829C252.793 21.873 252.953 22.0931 253.082 22.3433C253.212 22.5934 253.272 22.8636 253.272 23.1237V28.5869C253.272 28.8671 253.212 29.1272 253.082 29.3774C252.953 29.6275 252.793 29.8477 252.583 30.0378C252.373 30.2279 252.143 30.388 251.893 30.498C251.643 30.6081 251.373 30.6681 251.093 30.6681H245.134ZM250.323 29.1372C251.283 29.1372 251.753 28.657 251.753 27.7064V23.9942C251.753 23.0537 251.273 22.5834 250.323 22.5834H246.544C245.604 22.5834 245.144 23.0537 245.144 23.9942V27.7064C245.144 28.657 245.614 29.1372 246.544 29.1372H250.323Z" fill="#F8F8FF"/>
<path d="M255.242 23.1437C255.242 22.8636 255.302 22.6034 255.432 22.3533C255.562 22.1031 255.732 21.883 255.942 21.6929C256.152 21.5028 256.382 21.3427 256.642 21.2326C256.902 21.1225 257.162 21.0625 257.442 21.0625H262.73C263.01 21.0625 263.28 21.1225 263.53 21.2326C263.79 21.3427 264.02 21.5028 264.22 21.6929C264.42 21.883 264.59 22.1031 264.72 22.3533C264.85 22.6034 264.91 22.8636 264.91 23.1437V28.6069C264.91 28.8771 264.85 29.1372 264.72 29.3874C264.59 29.6375 264.43 29.8577 264.22 30.0478C264.01 30.2379 263.78 30.388 263.53 30.498C263.28 30.6081 263.01 30.6681 262.73 30.6681H257.442C257.162 30.6681 256.892 30.6081 256.642 30.498C256.392 30.388 256.152 30.2379 255.942 30.0478C255.732 29.8577 255.562 29.6375 255.432 29.3874C255.302 29.1372 255.242 28.8671 255.242 28.6069V23.1437ZM256.772 27.7264C256.772 28.667 257.242 29.1372 258.171 29.1372H261.951C262.91 29.1372 263.38 28.667 263.38 27.7264V24.0142C263.38 23.0637 262.9 22.5834 261.951 22.5834H258.171C257.232 22.5834 256.772 23.0637 256.772 24.0142V27.7264Z" fill="#F8F8FF"/>
<path d="M268.409 22.5827V30.6674H266.879V21.0518H274.358C274.638 21.0518 274.908 21.1118 275.158 21.2219C275.418 21.3319 275.648 21.482 275.857 21.6721C276.067 21.8622 276.237 22.0824 276.357 22.3325C276.487 22.5827 276.547 22.8528 276.547 23.113V30.6574H275.018V23.9835C275.018 23.0429 274.548 22.5727 273.618 22.5727H268.409V22.5827Z" fill="#F8F8FF"/>
<path d="M278.517 23.1437C278.517 22.8636 278.577 22.6034 278.707 22.3533C278.837 22.1031 279.007 21.883 279.217 21.6929C279.427 21.5028 279.657 21.3427 279.917 21.2326C280.176 21.1225 280.436 21.0625 280.716 21.0625H286.005C286.285 21.0625 286.555 21.1225 286.805 21.2326C287.065 21.3427 287.295 21.5028 287.495 21.6929C287.695 21.883 287.865 22.1031 287.995 22.3533C288.125 22.6034 288.185 22.8636 288.185 23.1437V28.6069C288.185 28.8771 288.125 29.1372 287.995 29.3874C287.865 29.6375 287.705 29.8577 287.495 30.0478C287.285 30.2379 287.055 30.388 286.805 30.498C286.555 30.6081 286.285 30.6681 286.005 30.6681H280.716C280.436 30.6681 280.166 30.6081 279.917 30.498C279.667 30.388 279.427 30.2379 279.217 30.0478C279.007 29.8577 278.837 29.6375 278.707 29.3874C278.577 29.1372 278.517 28.8671 278.517 28.6069V23.1437ZM280.047 27.7264C280.047 28.667 280.516 29.1372 281.446 29.1372H285.225C286.185 29.1372 286.655 28.667 286.655 27.7264V24.0142C286.655 23.0637 286.175 22.5834 285.225 22.5834H281.446C280.506 22.5834 280.047 23.0637 280.047 24.0142V27.7264Z" fill="#F8F8FF"/>
<path d="M291.684 30.6681V34.0001H290.154V23.1237C290.154 22.8536 290.214 22.5934 290.344 22.3433C290.474 22.0931 290.644 21.863 290.854 21.6829C291.064 21.4928 291.294 21.3427 291.554 21.2326C291.814 21.1225 292.074 21.0625 292.354 21.0625H297.643C297.923 21.0625 298.193 21.1225 298.442 21.2326C298.702 21.3427 298.932 21.4928 299.132 21.6829C299.342 21.873 299.502 22.0931 299.632 22.3433C299.762 22.5934 299.822 22.8636 299.822 23.1237V28.5869C299.822 28.8671 299.762 29.1272 299.632 29.3774C299.502 29.6275 299.342 29.8477 299.132 30.0378C298.922 30.2279 298.692 30.388 298.442 30.498C298.193 30.6081 297.923 30.6681 297.643 30.6681H291.684ZM296.863 29.1372C297.823 29.1372 298.293 28.657 298.293 27.7064V23.9942C298.293 23.0537 297.813 22.5834 296.863 22.5834H293.084C292.144 22.5834 291.684 23.0537 291.684 23.9942V27.7064C291.684 28.657 292.154 29.1372 293.084 29.1372H296.863Z" fill="#F8F8FF"/>
<path d="M305.131 22.5827H301.782V21.0518H310V22.5827H306.651V30.6674H305.121V22.5827H305.131Z" fill="#F8F8FF"/>
<path d="M60.2047 29.4362C60.0447 29.8764 59.8047 30.1966 59.5048 30.3867C59.2049 30.5769 58.855 30.6669 58.455 30.6669C58.0451 30.6669 57.6952 30.5769 57.3953 30.3867C57.0953 30.1966 56.8654 29.8865 56.7054 29.4362L52.5363 19.4703V30.6569H50.7167V19.7105C50.7167 19.2002 50.8967 18.7599 51.2566 18.3997C51.6165 18.0395 52.0564 17.8594 52.5663 17.8594C53.0462 17.8594 53.4261 17.9594 53.6861 18.1596C53.956 18.3597 54.146 18.6298 54.266 18.96L58.445 28.9159L62.6241 18.96C62.7441 18.6298 62.9341 18.3597 63.194 18.1596C63.4539 17.9594 63.8339 17.8594 64.3338 17.8594C64.8436 17.8594 65.2835 18.0395 65.6435 18.3997C66.0034 18.7599 66.1834 19.2002 66.1834 19.7105V30.6669H64.3638V19.4703L60.2047 29.4362Z" fill="#F8F8FF"/>
<path d="M77.8308 24.4237C77.8308 24.7039 77.7709 24.9641 77.6409 25.2142C77.5109 25.4644 77.3509 25.6845 77.151 25.8746C76.951 26.0647 76.7211 26.2248 76.4611 26.3349C76.2012 26.4449 75.9313 26.505 75.6513 26.505H69.6926V27.7157C69.6926 28.6562 70.1625 29.1265 71.0923 29.1265H77.8308V30.6574H70.3525C70.0725 30.6574 69.8026 30.5974 69.5526 30.4873C69.2927 30.3772 69.0628 30.2272 68.8528 30.037C68.6429 29.8469 68.4729 29.6268 68.3429 29.3767C68.2129 29.1265 68.153 28.8564 68.153 28.5962V23.133C68.153 22.8528 68.2129 22.5927 68.3429 22.3425C68.4729 22.0924 68.6429 21.8722 68.8528 21.6821C69.0628 21.492 69.2927 21.3319 69.5526 21.2219C69.8026 21.1118 70.0725 21.0518 70.3525 21.0518H75.6413C75.9213 21.0518 76.1912 21.1118 76.4511 21.2219C76.7111 21.3319 76.941 21.492 77.141 21.6821C77.3409 21.8722 77.5009 22.0924 77.6309 22.3425C77.7609 22.5927 77.8208 22.8528 77.8208 23.133V24.4237H77.8308ZM75.0914 24.9841C75.2514 24.9841 75.4114 24.9541 75.5613 24.894C75.7113 24.834 75.8413 24.7439 75.9513 24.6339C76.0612 24.5238 76.1512 24.3937 76.2112 24.2536C76.2712 24.1136 76.3012 23.9535 76.3012 23.7834C76.3012 23.6233 76.2712 23.4632 76.2112 23.3131C76.1512 23.163 76.0612 23.0429 75.9513 22.9329C75.8413 22.8228 75.7113 22.7428 75.5613 22.6827C75.4114 22.6227 75.2614 22.5927 75.0914 22.5927H71.0923C70.1525 22.5927 69.6926 23.0729 69.6926 24.0235V24.9941H75.0914V24.9841Z" fill="#F8F8FF"/>
<path d="M87.0288 25.0941L90.9179 21.0518H93.0475L88.4585 25.8246L93.3374 30.6674H91.1979L87.0388 26.595V30.6674H85.5091V26.595L81.35 30.6674H79.2105L84.0894 25.8246L79.5004 21.0518H81.63L85.5191 25.0941V21.0518H87.0488V25.0941H87.0288Z" fill="#F8F8FF"/>
<path d="M102.175 17.8594C102.455 17.8594 102.725 17.9094 102.975 18.0195C103.225 18.1295 103.465 18.2796 103.675 18.4797C103.885 18.6799 104.055 18.9 104.185 19.1401C104.315 19.3903 104.375 19.6504 104.375 19.9306V28.6057C104.375 28.8759 104.315 29.136 104.185 29.3862C104.055 29.6363 103.885 29.8564 103.675 30.0465C103.465 30.2367 103.235 30.3867 102.975 30.4968C102.715 30.6069 102.455 30.6669 102.175 30.6669H96.8866C96.6067 30.6669 96.3367 30.6069 96.0868 30.4968C95.8368 30.3867 95.5969 30.2367 95.3969 30.0465C95.187 29.8564 95.027 29.6363 94.897 29.3862C94.7671 29.136 94.7071 28.8658 94.7071 28.6057V23.1425C94.7071 22.8623 94.7671 22.6022 94.897 22.352C95.027 22.1019 95.187 21.8817 95.3969 21.6916C95.6069 21.5015 95.8368 21.3414 96.0868 21.2314C96.3467 21.1213 96.6067 21.0613 96.8866 21.0613H102.845V20.8011C102.845 19.8706 102.375 19.4003 101.446 19.4003H95.147V17.8694H102.175V17.8594ZM102.845 24.013C102.845 23.0624 102.375 22.5822 101.446 22.5822H97.6664C96.7067 22.5822 96.2368 23.0624 96.2368 24.013V27.7252C96.2368 28.6657 96.7167 29.136 97.6664 29.136H101.446C102.385 29.136 102.845 28.6657 102.845 27.7252V24.013Z" fill="#F8F8FF"/>
<path d="M114.483 21.0518H116.012V31.9282C116.012 32.1983 115.952 32.4585 115.822 32.7086C115.692 32.9588 115.533 33.1789 115.323 33.369C115.113 33.5591 114.883 33.7092 114.633 33.8193C114.383 33.9293 114.113 33.9894 113.833 33.9894H106.784V32.4585H113.053C114.013 32.4585 114.483 31.9882 114.483 31.0476V30.6574H108.534C108.254 30.6574 107.984 30.5974 107.734 30.4873C107.474 30.3772 107.244 30.2272 107.034 30.037C106.824 29.8469 106.654 29.6268 106.524 29.3767C106.395 29.1265 106.335 28.8563 106.335 28.5962V21.0518H107.864V27.7257C107.864 28.6662 108.334 29.1365 109.264 29.1365H113.043C114.003 29.1365 114.473 28.6662 114.473 27.7257V21.0518H114.483Z" fill="#F8F8FF"/>
<path d="M126.12 26.515H119.512V30.6674H117.982V21.0518H119.512V24.9841H126.12V21.0518H127.65V30.6674H126.12V26.515Z" fill="#F8F8FF"/>
<path d="M136.318 22.5827H130.049V21.0518H137.098C137.378 21.0518 137.648 21.1118 137.898 21.2219C138.158 21.3319 138.388 21.492 138.588 21.6821C138.787 21.8722 138.957 22.0924 139.087 22.3425C139.217 22.5927 139.277 22.8528 139.277 23.133V28.5962C139.277 28.8664 139.217 29.1265 139.087 29.3767C138.957 29.6268 138.797 29.8469 138.588 30.037C138.378 30.2272 138.148 30.3772 137.898 30.4873C137.648 30.5974 137.378 30.6574 137.098 30.6574H131.809C131.529 30.6574 131.259 30.5974 131.009 30.4873C130.749 30.3772 130.519 30.2272 130.309 30.037C130.099 29.8469 129.929 29.6268 129.799 29.3767C129.669 29.1265 129.609 28.8564 129.609 28.5962V26.3349C129.609 26.0547 129.669 25.7945 129.799 25.5444C129.929 25.2943 130.099 25.0741 130.309 24.874C130.519 24.6739 130.749 24.5238 131.009 24.4237C131.259 24.3237 131.529 24.2636 131.809 24.2636H137.758V24.0135C137.758 23.0529 137.278 22.5827 136.318 22.5827ZM132.549 25.7945C131.609 25.7945 131.149 26.2648 131.149 27.1954V27.7257C131.149 28.6662 131.619 29.1365 132.549 29.1365H136.328C137.288 29.1365 137.758 28.6662 137.758 27.7257V27.1954C137.758 26.2648 137.278 25.7945 136.328 25.7945H132.549Z" fill="#F8F8FF"/>
<path d="M142.777 30.6681V34.0001H141.247V23.1237C141.247 22.8536 141.307 22.5934 141.437 22.3433C141.567 22.0931 141.737 21.863 141.947 21.6829C142.157 21.4928 142.387 21.3427 142.647 21.2326C142.897 21.1225 143.166 21.0625 143.446 21.0625H148.735C149.015 21.0625 149.285 21.1225 149.535 21.2326C149.795 21.3427 150.025 21.4928 150.225 21.6829C150.435 21.873 150.595 22.0931 150.725 22.3433C150.855 22.5934 150.915 22.8636 150.915 23.1237V28.5869C150.915 28.8671 150.855 29.1272 150.725 29.3774C150.595 29.6275 150.435 29.8477 150.225 30.0378C150.015 30.2279 149.785 30.388 149.535 30.498C149.285 30.6081 149.015 30.6681 148.735 30.6681H142.777ZM147.955 29.1372C148.915 29.1372 149.385 28.657 149.385 27.7064V23.9942C149.385 23.0537 148.905 22.5834 147.955 22.5834H144.176C143.236 22.5834 142.777 23.0537 142.777 23.9942V27.7064C142.777 28.657 143.246 29.1372 144.176 29.1372H147.955Z" fill="#F8F8FF"/>
<path d="M152.884 23.1437C152.884 22.8636 152.944 22.6034 153.074 22.3533C153.204 22.1031 153.374 21.883 153.584 21.6929C153.794 21.5028 154.024 21.3427 154.284 21.2326C154.534 21.1225 154.804 21.0625 155.084 21.0625H160.373C160.653 21.0625 160.923 21.1225 161.173 21.2326C161.433 21.3427 161.662 21.5028 161.862 21.6929C162.062 21.883 162.232 22.1031 162.362 22.3533C162.492 22.6034 162.552 22.8636 162.552 23.1437V28.6069C162.552 28.8771 162.492 29.1372 162.362 29.3874C162.232 29.6375 162.072 29.8577 161.862 30.0478C161.652 30.2379 161.423 30.388 161.173 30.498C160.923 30.6081 160.653 30.6681 160.373 30.6681H155.084C154.804 30.6681 154.534 30.6081 154.284 30.498C154.024 30.388 153.794 30.2379 153.584 30.0478C153.374 29.8577 153.204 29.6375 153.074 29.3874C152.944 29.1372 152.884 28.8671 152.884 28.6069V23.1437ZM154.414 27.7264C154.414 28.667 154.884 29.1372 155.814 29.1372H159.593C160.553 29.1372 161.023 28.667 161.023 27.7264V24.0142C161.023 23.0637 160.543 22.5834 159.593 22.5834H155.814C154.874 22.5834 154.414 23.0637 154.414 24.0142V27.7264Z" fill="#F8F8FF"/>
<path d="M172 17.8594C172.28 17.8594 172.55 17.9094 172.8 18.0195C173.06 18.1295 173.29 18.2796 173.5 18.4797C173.71 18.6799 173.88 18.9 174 19.1401C174.13 19.3903 174.19 19.6504 174.19 19.9306V28.6057C174.19 28.8759 174.13 29.136 174 29.3862C173.87 29.6363 173.7 29.8564 173.5 30.0465C173.29 30.2367 173.06 30.3867 172.8 30.4968C172.55 30.6069 172.28 30.6669 172 30.6669H166.711C166.431 30.6669 166.161 30.6069 165.912 30.4968C165.662 30.3867 165.422 30.2367 165.222 30.0465C165.012 29.8564 164.852 29.6363 164.722 29.3862C164.592 29.136 164.532 28.8658 164.532 28.6057V23.1425C164.532 22.8623 164.592 22.6022 164.722 22.352C164.852 22.1019 165.012 21.8817 165.222 21.6916C165.432 21.5015 165.662 21.3414 165.912 21.2314C166.161 21.1213 166.431 21.0613 166.711 21.0613H172.67V20.8011C172.67 19.8706 172.2 19.4003 171.27 19.4003H164.972V17.8694H172V17.8594ZM172.66 24.013C172.66 23.0624 172.19 22.5822 171.26 22.5822H167.481C166.521 22.5822 166.051 23.0624 166.051 24.013V27.7252C166.051 28.6657 166.531 29.136 167.481 29.136H171.26C172.2 29.136 172.66 28.6657 172.66 27.7252V24.013Z" fill="#F8F8FF"/>
<path d="M184.297 26.515H177.689V30.6674H176.159V21.0518H177.689V24.9841H184.297V21.0518H185.827V30.6674H184.297V26.515Z" fill="#F8F8FF"/>
<path d="M189.326 23.7233H193.825C194.105 23.7233 194.375 23.7734 194.635 23.8834C194.895 23.9935 195.125 24.1436 195.325 24.3437C195.525 24.5438 195.685 24.7639 195.815 25.0041C195.945 25.2542 196.005 25.5144 196.005 25.7945V28.5962C196.005 28.8664 195.945 29.1265 195.815 29.3767C195.685 29.6268 195.525 29.8469 195.325 30.037C195.125 30.2272 194.895 30.3772 194.635 30.4873C194.375 30.5974 194.105 30.6574 193.825 30.6574H189.986C189.706 30.6574 189.436 30.5974 189.186 30.4873C188.937 30.3772 188.697 30.2272 188.487 30.037C188.277 29.8469 188.107 29.6268 187.977 29.3767C187.847 29.1265 187.787 28.8563 187.787 28.5962V21.0518H189.316V23.7233H189.326ZM189.326 25.2542V27.7257C189.326 28.6662 189.796 29.1365 190.726 29.1365H193.076C194.015 29.1365 194.475 28.6662 194.475 27.7257V26.6551C194.475 25.7245 194.005 25.2542 193.076 25.2542H189.326ZM197.355 21.0518H198.884V30.6674H197.355V21.0518Z" fill="#F8F8FF"/>
<path d="M208.992 29.1369V21.0521H210.522V30.6678H203.043C202.763 30.6678 202.494 30.6078 202.244 30.4977C201.994 30.3876 201.754 30.2375 201.544 30.0474C201.334 29.8573 201.164 29.6372 201.034 29.387C200.904 29.1369 200.844 28.8667 200.844 28.6066V21.0622H202.374V27.7361C202.374 28.6766 202.843 29.1469 203.773 29.1469H208.992V29.1369ZM205.143 19.6313L206.083 17.0098H207.872L206.123 19.6313H205.143Z" fill="#F8F8FF"/>
<path d="M227.048 22.5827H220.779V21.0518H227.828C228.108 21.0518 228.378 21.1118 228.628 21.2219C228.888 21.3319 229.118 21.492 229.318 21.6821C229.518 21.8722 229.688 22.0924 229.818 22.3425C229.947 22.5927 230.007 22.8528 230.007 23.133V28.5962C230.007 28.8664 229.947 29.1265 229.818 29.3767C229.688 29.6268 229.528 29.8469 229.318 30.037C229.108 30.2272 228.878 30.3772 228.628 30.4873C228.378 30.5974 228.108 30.6574 227.828 30.6574H222.539C222.259 30.6574 221.989 30.5974 221.739 30.4873C221.489 30.3772 221.249 30.2272 221.039 30.037C220.829 29.8469 220.66 29.6268 220.53 29.3767C220.4 29.1265 220.34 28.8564 220.34 28.5962V26.3349C220.34 26.0547 220.4 25.7945 220.53 25.5444C220.66 25.2943 220.829 25.0741 221.039 24.874C221.249 24.6739 221.479 24.5238 221.739 24.4237C221.999 24.3237 222.259 24.2636 222.539 24.2636H228.488V24.0135C228.478 23.0529 227.998 22.5827 227.048 22.5827ZM223.269 25.7945C222.329 25.7945 221.869 26.2648 221.869 27.1954V27.7257C221.869 28.6662 222.339 29.1365 223.269 29.1365H227.048C228.008 29.1365 228.478 28.6662 228.478 27.7257V27.1954C228.478 26.2648 227.998 25.7945 227.048 25.7945H223.269Z" fill="#F8F8FF"/>
<path d="M240.115 26.5157H235.076V24.9848H240.115V24.0142C240.115 23.0637 239.635 22.5834 238.686 22.5834H235.256C234.317 22.5834 233.857 23.0637 233.857 24.0142H232.327V23.1437C232.327 22.8636 232.387 22.6034 232.507 22.3533C232.627 22.1031 232.797 21.883 233.007 21.6929C233.217 21.5028 233.447 21.3427 233.707 21.2326C233.967 21.1225 234.227 21.0625 234.497 21.0625H239.465C239.745 21.0625 240.015 21.1225 240.265 21.2326C240.525 21.3427 240.755 21.5028 240.955 21.6929C241.155 21.883 241.325 22.1031 241.455 22.3533C241.585 22.6034 241.645 22.8636 241.645 23.1437V28.6069C241.645 28.8771 241.585 29.1372 241.455 29.3874C241.325 29.6375 241.165 29.8577 240.955 30.0478C240.745 30.2379 240.515 30.388 240.265 30.498C240.015 30.6081 239.745 30.6681 239.465 30.6681H234.177C233.897 30.6681 233.627 30.6081 233.377 30.498C233.127 30.388 232.887 30.2379 232.677 30.0478C232.467 29.8577 232.297 29.6375 232.167 29.3874C232.037 29.1372 231.977 28.8671 231.977 28.6069V27.7364H233.507C233.507 28.677 233.977 29.1473 234.906 29.1473H238.686C239.645 29.1473 240.115 28.677 240.115 27.7364V26.5157Z" fill="#F8F8FF"/>
<path d="M245.134 30.6681V34.0001H243.605V23.1237C243.605 22.8536 243.665 22.5934 243.795 22.3433C243.924 22.0931 244.094 21.863 244.304 21.6829C244.514 21.4928 244.744 21.3427 245.004 21.2326C245.264 21.1225 245.524 21.0625 245.804 21.0625H251.093C251.373 21.0625 251.643 21.1225 251.893 21.2326C252.153 21.3427 252.383 21.4928 252.583 21.6829C252.793 21.873 252.953 22.0931 253.082 22.3433C253.212 22.5934 253.272 22.8636 253.272 23.1237V28.5869C253.272 28.8671 253.212 29.1272 253.082 29.3774C252.953 29.6275 252.793 29.8477 252.583 30.0378C252.373 30.2279 252.143 30.388 251.893 30.498C251.643 30.6081 251.373 30.6681 251.093 30.6681H245.134ZM250.323 29.1372C251.283 29.1372 251.753 28.657 251.753 27.7064V23.9942C251.753 23.0537 251.273 22.5834 250.323 22.5834H246.544C245.604 22.5834 245.144 23.0537 245.144 23.9942V27.7064C245.144 28.657 245.614 29.1372 246.544 29.1372H250.323Z" fill="#F8F8FF"/>
<path d="M255.242 23.1437C255.242 22.8636 255.302 22.6034 255.432 22.3533C255.562 22.1031 255.732 21.883 255.942 21.6929C256.152 21.5028 256.382 21.3427 256.642 21.2326C256.902 21.1225 257.162 21.0625 257.442 21.0625H262.73C263.01 21.0625 263.28 21.1225 263.53 21.2326C263.79 21.3427 264.02 21.5028 264.22 21.6929C264.42 21.883 264.59 22.1031 264.72 22.3533C264.85 22.6034 264.91 22.8636 264.91 23.1437V28.6069C264.91 28.8771 264.85 29.1372 264.72 29.3874C264.59 29.6375 264.43 29.8577 264.22 30.0478C264.01 30.2379 263.78 30.388 263.53 30.498C263.28 30.6081 263.01 30.6681 262.73 30.6681H257.442C257.162 30.6681 256.892 30.6081 256.642 30.498C256.392 30.388 256.152 30.2379 255.942 30.0478C255.732 29.8577 255.562 29.6375 255.432 29.3874C255.302 29.1372 255.242 28.8671 255.242 28.6069V23.1437ZM256.772 27.7264C256.772 28.667 257.242 29.1372 258.171 29.1372H261.951C262.91 29.1372 263.38 28.667 263.38 27.7264V24.0142C263.38 23.0637 262.9 22.5834 261.951 22.5834H258.171C257.232 22.5834 256.772 23.0637 256.772 24.0142V27.7264Z" fill="#F8F8FF"/>
<path d="M268.409 22.5827V30.6674H266.879V21.0518H274.358C274.638 21.0518 274.908 21.1118 275.158 21.2219C275.418 21.3319 275.648 21.482 275.857 21.6721C276.067 21.8622 276.237 22.0824 276.357 22.3325C276.487 22.5827 276.547 22.8528 276.547 23.113V30.6574H275.018V23.9835C275.018 23.0429 274.548 22.5727 273.618 22.5727H268.409V22.5827Z" fill="#F8F8FF"/>
<path d="M278.517 23.1437C278.517 22.8636 278.577 22.6034 278.707 22.3533C278.837 22.1031 279.007 21.883 279.217 21.6929C279.427 21.5028 279.657 21.3427 279.917 21.2326C280.176 21.1225 280.436 21.0625 280.716 21.0625H286.005C286.285 21.0625 286.555 21.1225 286.805 21.2326C287.065 21.3427 287.295 21.5028 287.495 21.6929C287.695 21.883 287.865 22.1031 287.995 22.3533C288.125 22.6034 288.185 22.8636 288.185 23.1437V28.6069C288.185 28.8771 288.125 29.1372 287.995 29.3874C287.865 29.6375 287.705 29.8577 287.495 30.0478C287.285 30.2379 287.055 30.388 286.805 30.498C286.555 30.6081 286.285 30.6681 286.005 30.6681H280.716C280.436 30.6681 280.166 30.6081 279.917 30.498C279.667 30.388 279.427 30.2379 279.217 30.0478C279.007 29.8577 278.837 29.6375 278.707 29.3874C278.577 29.1372 278.517 28.8671 278.517 28.6069V23.1437ZM280.047 27.7264C280.047 28.667 280.516 29.1372 281.446 29.1372H285.225C286.185 29.1372 286.655 28.667 286.655 27.7264V24.0142C286.655 23.0637 286.175 22.5834 285.225 22.5834H281.446C280.506 22.5834 280.047 23.0637 280.047 24.0142V27.7264Z" fill="#F8F8FF"/>
<path d="M291.684 30.6681V34.0001H290.154V23.1237C290.154 22.8536 290.214 22.5934 290.344 22.3433C290.474 22.0931 290.644 21.863 290.854 21.6829C291.064 21.4928 291.294 21.3427 291.554 21.2326C291.814 21.1225 292.074 21.0625 292.354 21.0625H297.643C297.923 21.0625 298.193 21.1225 298.442 21.2326C298.702 21.3427 298.932 21.4928 299.132 21.6829C299.342 21.873 299.502 22.0931 299.632 22.3433C299.762 22.5934 299.822 22.8636 299.822 23.1237V28.5869C299.822 28.8671 299.762 29.1272 299.632 29.3774C299.502 29.6275 299.342 29.8477 299.132 30.0378C298.922 30.2279 298.692 30.388 298.442 30.498C298.193 30.6081 297.923 30.6681 297.643 30.6681H291.684ZM296.863 29.1372C297.823 29.1372 298.293 28.657 298.293 27.7064V23.9942C298.293 23.0537 297.813 22.5834 296.863 22.5834H293.084C292.144 22.5834 291.684 23.0537 291.684 23.9942V27.7064C291.684 28.657 292.154 29.1372 293.084 29.1372H296.863Z" fill="#F8F8FF"/>
<path d="M305.131 22.5827H301.782V21.0518H310V22.5827H306.651V30.6674H305.121V22.5827H305.131Z" fill="#F8F8FF"/>
</svg>
