<svg width="310" height="34" viewBox="0 0 310 34" fill="none" xmlns="http://www.w3.org/2000/svg">
<g clip-path="url(#clip0_703_100)">
<path d="M34.52 20.6602H34.05C33.84 20.6602 33.65 20.7802 33.56 20.9902C33.5 21.1202 33.44 21.2702 33.37 21.4102C31.11 26.2602 26.15 29.6102 20.42 29.5302C16.81 29.4702 13.51 28.0502 11.04 25.7402C12.68 25.6402 14.41 25.4002 16.21 25.0302C17.15 24.8402 18.12 24.6002 19.09 24.3502L18.17 26.1402C17.98 26.5102 18.13 26.9702 18.51 27.1602C18.62 27.2202 18.73 27.2402 18.86 27.2402C19.14 27.2402 19.4 27.0902 19.53 26.8202L21.2 23.5402C21.23 23.4802 21.24 23.4202 21.27 23.3502C21.29 23.2802 21.3 23.2002 21.3 23.1302C21.3 22.9802 21.26 22.8602 21.19 22.7502C21.17 22.7202 21.16 22.6902 21.13 22.6602C21.13 22.6602 21.12 22.6502 21.12 22.6402C21.05 22.5502 20.96 22.4802 20.86 22.4402L17.55 20.8202C17.18 20.6402 16.72 20.7902 16.54 21.1702C16.36 21.5402 16.51 22.0002 16.89 22.1802L18.46 22.9502C15.35 23.7702 12.35 24.2302 9.70004 24.2602C7.86004 22.0002 6.73004 19.1702 6.60004 16.0802C6.57004 15.1202 6.62004 14.1702 6.77004 13.2602C9.74004 10.9802 13.63 8.90018 17.97 7.28018C22.17 5.72018 26.06 4.85018 29.34 4.54018C30.87 5.75018 32.15 7.27018 33.07 9.00018C33.15 9.16018 33.23 9.30018 33.31 9.46018C33.4 9.64018 33.58 9.76018 33.79 9.76018H34.27C34.66 9.76018 34.92 9.36018 34.75 9.01018C34.75 9.01018 34.75 9.01018 34.75 9.00018C33.95 7.27018 32.84 5.72018 31.48 4.41018C31.63 4.41018 31.77 4.40018 31.91 4.40018C36.08 4.40018 38.88 5.48018 39.56 7.27018C39.67 7.57018 39.95 7.79018 40.28 7.79018C40.8 7.79018 41.18 7.27018 41 6.79018C41 6.78018 40.99 6.76018 40.99 6.75018C40.09 4.36018 37.07 3.00018 32.48 2.90018C31.63 2.88018 30.73 2.91018 29.8 2.98018C27.05 1.00018 23.65 -0.129819 19.99 0.0101813C12.79 0.320181 6.82004 5.56018 5.41004 12.4102C4.97004 12.7602 4.56004 13.1102 4.16004 13.4602C0.750045 16.5302 -0.639955 19.5402 0.260045 21.9302C1.16004 24.3202 4.18005 25.6802 8.77005 25.7802C8.84004 25.7802 8.92004 25.7802 8.99004 25.7802C11.84 28.9902 16 31.0202 20.64 31.0202C27.13 31.0202 32.7 27.0402 35.03 21.4002C35.03 21.4002 35.03 21.4002 35.03 21.3902C35.17 21.0502 34.91 20.6602 34.52 20.6602ZM20.64 1.53018C23.1 1.53018 25.4 2.16018 27.41 3.27018C24.25 3.72018 20.85 4.60018 17.45 5.87018C13.68 7.27018 10.21 9.04018 7.36004 10.9902C9.25004 5.49018 14.49 1.53018 20.64 1.53018ZM1.68004 21.4002C1.03004 19.6702 2.29004 17.2202 5.12004 14.6502C5.12004 14.7402 5.11004 14.8302 5.11004 14.9102C4.98004 18.3702 5.99005 21.5802 7.78005 24.2202C4.48005 23.9802 2.28004 22.9902 1.68004 21.4002Z" fill="url(#paint0_linear_703_100)"/>
<path d="M42.61 11.0503C41.96 10.3003 40.72 10.0903 38.85 10.4003C38.55 10.4403 38.25 10.5503 37.97 10.6703L33.04 12.9603C31.78 11.9803 28.08 9.44031 25.17 10.4103C24.71 10.5703 24.36 10.9503 24.24 11.4203C24.12 11.9003 24.25 12.4103 24.59 12.7803C26.07 14.3703 26.91 15.2703 27.4 15.7903L25.27 17.1403C25.26 17.1403 25.26 17.1403 25.25 17.1503L19.63 17.4803C19.25 17.5003 18.93 17.7703 18.86 18.1503C18.78 18.5203 18.97 18.9003 19.31 19.0603L24.53 21.6103C24.71 21.7003 24.9 21.7403 25.09 21.7403C25.27 21.7403 25.46 21.7003 25.63 21.6203L42.25 13.8903C42.55 13.7403 42.79 13.4903 42.9 13.1603C43.17 12.3403 43.07 11.5803 42.61 11.0503ZM41.5 12.5503L25.1 20.1803L22.31 18.8203L25.34 18.6403C25.6 18.6303 25.86 18.5403 26.08 18.4003L28.61 16.8103C28.9 16.6303 29.09 16.3303 29.13 15.9903C29.18 15.6503 29.06 15.3203 28.83 15.0703C28.45 14.6703 27.61 13.7803 25.77 11.8203C28.12 11.1403 31.57 13.7203 32.24 14.2503C32.61 14.5403 33.1 14.6003 33.54 14.4103L38.62 12.0403C38.78 11.9703 38.93 11.9203 39.1 11.8803C40.95 11.5703 41.39 11.9503 41.46 12.0303C41.57 12.1603 41.53 12.4103 41.5 12.5503Z" fill="url(#paint1_linear_703_100)"/>
<path d="M54.33 9.3L52.74 12.81H50.71L55.91 1.35C56.09 0.85 56.34 0.5 56.66 0.3C56.98 0.1 57.31 0 57.68 0C58.07 0 58.42 0.1 58.71 0.3C59.01 0.5 59.25 0.85 59.45 1.35L64.66 12.81H62.63L61.03 9.3H54.33ZM55.15 7.48H60.22L57.68 1.93L55.15 7.48Z" fill="url(#paint2_linear_703_100)"/>
<path d="M66.06 1.81V0H76.29V1.81H72.1V12.81H70.24V1.81H66.06Z" fill="url(#paint3_linear_703_100)"/>
<path d="M88.47 11V12.81H81.3C80.92 12.81 80.54 12.74 80.19 12.59C79.83 12.44 79.5 12.25 79.23 12C78.95 11.75 78.73 11.46 78.55 11.11C78.39 10.76 78.29 10.4 78.29 10V0H80.15V8.99C80.15 10.33 80.85 11 82.23 11H88.47Z" fill="url(#paint4_linear_703_100)"/>
<path d="M93.49 9.3L91.9 12.81H89.87L95.07 1.35C95.25 0.85 95.5 0.5 95.82 0.3C96.14 0.1 96.48 0 96.85 0C97.24 0 97.59 0.1 97.88 0.3C98.18 0.5 98.42 0.85 98.62 1.35L103.83 12.81H101.8L100.2 9.3H93.49ZM94.31 7.48H99.38L96.84 1.93L94.31 7.48Z" fill="url(#paint5_linear_703_100)"/>
<path d="M105.22 1.81V0H115.45V1.81H111.27V12.81H109.41V1.81H105.22Z" fill="url(#paint6_linear_703_100)"/>
<path d="M120.47 9.3L118.88 12.81H116.85L122.05 1.35C122.23 0.85 122.48 0.5 122.8 0.3C123.12 0.1 123.45 0 123.82 0C124.21 0 124.56 0.1 124.85 0.3C125.15 0.5 125.39 0.85 125.59 1.35L130.8 12.81H128.78L127.18 9.3H120.47ZM121.29 7.48H126.36L123.82 1.93L121.29 7.48Z" fill="url(#paint7_linear_703_100)"/>
<path d="M54.33 9.3L52.74 12.81H50.71L55.91 1.35C56.09 0.85 56.34 0.5 56.66 0.3C56.98 0.1 57.31 0 57.68 0C58.07 0 58.42 0.1 58.71 0.3C59.01 0.5 59.25 0.85 59.45 1.35L64.66 12.81H62.63L61.03 9.3H54.33ZM55.15 7.48H60.22L57.68 1.93L55.15 7.48Z" fill="url(#paint8_linear_703_100)"/>
<path d="M66.06 1.81V0H76.29V1.81H72.1V12.81H70.24V1.81H66.06Z" fill="url(#paint9_linear_703_100)"/>
<path d="M88.47 11V12.81H81.3C80.92 12.81 80.54 12.74 80.19 12.59C79.83 12.44 79.5 12.25 79.23 12C78.95 11.75 78.73 11.46 78.55 11.11C78.39 10.76 78.29 10.4 78.29 10V0H80.15V8.99C80.15 10.33 80.85 11 82.23 11H88.47Z" fill="url(#paint10_linear_703_100)"/>
<path d="M93.49 9.3L91.9 12.81H89.87L95.07 1.35C95.25 0.85 95.5 0.5 95.82 0.3C96.14 0.1 96.48 0 96.85 0C97.24 0 97.59 0.1 97.88 0.3C98.18 0.5 98.42 0.85 98.62 1.35L103.83 12.81H101.8L100.2 9.3H93.49ZM94.31 7.48H99.38L96.84 1.93L94.31 7.48Z" fill="url(#paint11_linear_703_100)"/>
<path d="M105.22 1.81V0H115.45V1.81H111.27V12.81H109.41V1.81H105.22Z" fill="url(#paint12_linear_703_100)"/>
<path d="M120.47 9.3L118.88 12.81H116.85L122.05 1.35C122.23 0.85 122.48 0.5 122.8 0.3C123.12 0.1 123.45 0 123.82 0C124.21 0 124.56 0.1 124.85 0.3C125.15 0.5 125.39 0.85 125.59 1.35L130.8 12.81H128.78L127.18 9.3H120.47ZM121.29 7.48H126.36L123.82 1.93L121.29 7.48Z" fill="url(#paint13_linear_703_100)"/>
<path d="M54.33 9.3L52.74 12.81H50.71L55.91 1.35C56.09 0.85 56.34 0.5 56.66 0.3C56.98 0.1 57.31 0 57.68 0C58.07 0 58.42 0.1 58.71 0.3C59.01 0.5 59.25 0.85 59.45 1.35L64.66 12.81H62.63L61.03 9.3H54.33ZM55.15 7.48H60.22L57.68 1.93L55.15 7.48Z" fill="url(#paint14_linear_703_100)"/>
<path d="M66.06 1.81V0H76.29V1.81H72.1V12.81H70.24V1.81H66.06Z" fill="url(#paint15_linear_703_100)"/>
<path d="M88.47 11V12.81H81.3C80.92 12.81 80.54 12.74 80.19 12.59C79.83 12.44 79.5 12.25 79.23 12C78.95 11.75 78.73 11.46 78.55 11.11C78.39 10.76 78.29 10.4 78.29 10V0H80.15V8.99C80.15 10.33 80.85 11 82.23 11H88.47Z" fill="url(#paint16_linear_703_100)"/>
<path d="M93.49 9.3L91.9 12.81H89.87L95.07 1.35C95.25 0.85 95.5 0.5 95.82 0.3C96.14 0.1 96.48 0 96.85 0C97.24 0 97.59 0.1 97.88 0.3C98.18 0.5 98.42 0.85 98.62 1.35L103.83 12.81H101.8L100.2 9.3H93.49ZM94.31 7.48H99.38L96.84 1.93L94.31 7.48Z" fill="url(#paint17_linear_703_100)"/>
<path d="M105.22 1.81V0H115.45V1.81H111.27V12.81H109.41V1.81H105.22Z" fill="url(#paint18_linear_703_100)"/>
<path d="M120.47 9.3L118.88 12.81H116.85L122.05 1.35C122.23 0.85 122.48 0.5 122.8 0.3C123.12 0.1 123.45 0 123.82 0C124.21 0 124.56 0.1 124.85 0.3C125.15 0.5 125.39 0.85 125.59 1.35L130.8 12.81H128.78L127.18 9.3H120.47ZM121.29 7.48H126.36L123.82 1.93L121.29 7.48Z" fill="url(#paint19_linear_703_100)"/>
<path d="M60.2 29.4399C60.04 29.8799 59.8 30.1999 59.5 30.3899C59.2 30.5799 58.85 30.6699 58.45 30.6699C58.04 30.6699 57.69 30.5799 57.39 30.3899C57.09 30.1999 56.86 29.8899 56.7 29.4399L52.53 19.4699V30.6599H50.71V19.7099C50.71 19.1999 50.89 18.7599 51.25 18.3999C51.61 18.0399 52.05 17.8599 52.56 17.8599C53.04 17.8599 53.42 17.9599 53.68 18.1599C53.95 18.3599 54.14 18.6299 54.26 18.9599L58.44 28.9199L62.62 18.9599C62.74 18.6299 62.93 18.3599 63.19 18.1599C63.45 17.9599 63.83 17.8599 64.33 17.8599C64.84 17.8599 65.28 18.0399 65.64 18.3999C66 18.7599 66.18 19.1999 66.18 19.7099V30.6699H64.36V19.4699L60.2 29.4399Z" fill="url(#paint20_linear_703_100)"/>
<path d="M77.83 24.4198C77.83 24.6998 77.77 24.9598 77.64 25.2098C77.51 25.4598 77.35 25.6798 77.15 25.8698C76.95 26.0598 76.72 26.2198 76.46 26.3298C76.2 26.4398 75.93 26.4998 75.65 26.4998H69.69V27.7098C69.69 28.6498 70.16 29.1198 71.09 29.1198H77.83V30.6498H70.35C70.07 30.6498 69.8 30.5898 69.55 30.4798C69.29 30.3698 69.06 30.2198 68.85 30.0298C68.64 29.8398 68.47 29.6198 68.34 29.3698C68.21 29.1198 68.15 28.8498 68.15 28.5898V23.1298C68.15 22.8498 68.21 22.5898 68.34 22.3398C68.47 22.0898 68.64 21.8698 68.85 21.6798C69.06 21.4898 69.29 21.3298 69.55 21.2198C69.8 21.1098 70.07 21.0498 70.35 21.0498H75.64C75.92 21.0498 76.19 21.1098 76.45 21.2198C76.71 21.3298 76.94 21.4898 77.14 21.6798C77.34 21.8698 77.5 22.0898 77.63 22.3398C77.76 22.5898 77.82 22.8498 77.82 23.1298V24.4198H77.83ZM75.09 24.9798C75.25 24.9798 75.41 24.9498 75.56 24.8898C75.71 24.8298 75.84 24.7398 75.95 24.6298C76.06 24.5198 76.15 24.3898 76.21 24.2498C76.27 24.1098 76.3 23.9498 76.3 23.7798C76.3 23.6198 76.27 23.4598 76.21 23.3098C76.15 23.1598 76.06 23.0398 75.95 22.9298C75.84 22.8198 75.71 22.7398 75.56 22.6798C75.41 22.6198 75.26 22.5898 75.09 22.5898H71.09C70.15 22.5898 69.69 23.0698 69.69 24.0198V24.9898H75.09V24.9798Z" fill="url(#paint21_linear_703_100)"/>
<path d="M87.03 25.0898L90.92 21.0498H93.05L88.46 25.8198L93.34 30.6598H91.2L87.04 26.5898V30.6598H85.51V26.5998L81.35 30.6698H79.21L84.09 25.8298L79.5 21.0598H81.63L85.52 25.0998V21.0598H87.05V25.0998H87.03V25.0898Z" fill="url(#paint22_linear_703_100)"/>
<path d="M102.18 17.8599C102.46 17.8599 102.73 17.9099 102.98 18.0199C103.23 18.1299 103.47 18.2799 103.68 18.4799C103.89 18.6799 104.06 18.8999 104.19 19.1399C104.32 19.3899 104.38 19.6499 104.38 19.9299V28.6099C104.38 28.8799 104.32 29.1399 104.19 29.3899C104.06 29.6399 103.89 29.8599 103.68 30.0499C103.47 30.2399 103.24 30.3899 102.98 30.4999C102.72 30.6099 102.46 30.6699 102.18 30.6699H96.89C96.61 30.6699 96.34 30.6099 96.09 30.4999C95.84 30.3899 95.6 30.2399 95.4 30.0499C95.19 29.8599 95.03 29.6399 94.9 29.3899C94.77 29.1399 94.71 28.8699 94.71 28.6099V23.1499C94.71 22.8699 94.77 22.6099 94.9 22.3599C95.03 22.1099 95.19 21.8899 95.4 21.6999C95.61 21.5099 95.84 21.3499 96.09 21.2399C96.35 21.1299 96.61 21.0699 96.89 21.0699H102.85V20.7999C102.85 19.8699 102.38 19.3999 101.45 19.3999H95.15V17.8699H102.18V17.8599ZM102.85 24.0099C102.85 23.0599 102.38 22.5799 101.45 22.5799H97.67C96.71 22.5799 96.24 23.0599 96.24 24.0099V27.7199C96.24 28.6599 96.72 29.1299 97.67 29.1299H101.45C102.39 29.1299 102.85 28.6599 102.85 27.7199V24.0099Z" fill="url(#paint23_linear_703_100)"/>
<path d="M114.48 21.0498H116.01V31.9298C116.01 32.1998 115.95 32.4598 115.82 32.7098C115.69 32.9598 115.53 33.1798 115.32 33.3698C115.11 33.5598 114.88 33.7098 114.63 33.8198C114.38 33.9298 114.11 33.9898 113.83 33.9898H106.78V32.4598H113.05C114.01 32.4598 114.48 31.9898 114.48 31.0498V30.6598H108.53C108.25 30.6598 107.98 30.5998 107.73 30.4898C107.47 30.3798 107.24 30.2298 107.03 30.0398C106.82 29.8498 106.65 29.6298 106.52 29.3798C106.39 29.1298 106.33 28.8598 106.33 28.5998V21.0598H107.86V27.7298C107.86 28.6698 108.33 29.1398 109.26 29.1398H113.04C114 29.1398 114.47 28.6698 114.47 27.7298V21.0598H114.48V21.0498Z" fill="url(#paint24_linear_703_100)"/>
<path d="M126.12 26.5198H119.51V30.6698H117.98V21.0498H119.51V24.9798H126.12V21.0498H127.65V30.6698H126.12V26.5198Z" fill="url(#paint25_linear_703_100)"/>
<path d="M136.32 22.5798H130.05V21.0498H137.1C137.38 21.0498 137.65 21.1098 137.9 21.2198C138.16 21.3298 138.39 21.4898 138.59 21.6798C138.79 21.8698 138.96 22.0898 139.09 22.3398C139.22 22.5898 139.28 22.8498 139.28 23.1298V28.5898C139.28 28.8598 139.22 29.1198 139.09 29.3698C138.96 29.6198 138.8 29.8398 138.59 30.0298C138.38 30.2198 138.15 30.3698 137.9 30.4798C137.65 30.5898 137.38 30.6498 137.1 30.6498H131.81C131.53 30.6498 131.26 30.5898 131.01 30.4798C130.75 30.3698 130.52 30.2198 130.31 30.0298C130.1 29.8398 129.93 29.6198 129.8 29.3698C129.67 29.1198 129.61 28.8498 129.61 28.5898V26.3298C129.61 26.0498 129.67 25.7898 129.8 25.5398C129.93 25.2898 130.1 25.0698 130.31 24.8698C130.52 24.6698 130.75 24.5198 131.01 24.4198C131.26 24.3198 131.53 24.2598 131.81 24.2598H137.76V24.0098C137.76 23.0498 137.28 22.5798 136.32 22.5798ZM132.55 25.7998C131.61 25.7998 131.15 26.2698 131.15 27.1998V27.7298C131.15 28.6698 131.62 29.1398 132.55 29.1398H136.33C137.29 29.1398 137.76 28.6698 137.76 27.7298V27.1998C137.76 26.2698 137.28 25.7998 136.33 25.7998H132.55Z" fill="url(#paint26_linear_703_100)"/>
<path d="M142.78 30.6701V34.0001H141.25V23.1201C141.25 22.8501 141.31 22.5901 141.44 22.3401C141.57 22.0901 141.74 21.8601 141.95 21.6801C142.16 21.4901 142.39 21.3401 142.65 21.2301C142.9 21.1201 143.17 21.0601 143.45 21.0601H148.74C149.02 21.0601 149.29 21.1201 149.54 21.2301C149.8 21.3401 150.03 21.4901 150.23 21.6801C150.44 21.8701 150.6 22.0901 150.73 22.3401C150.86 22.5901 150.92 22.8601 150.92 23.1201V28.5801C150.92 28.8601 150.86 29.1201 150.73 29.3701C150.6 29.6201 150.44 29.8401 150.23 30.0301C150.02 30.2201 149.79 30.3801 149.54 30.4901C149.29 30.6001 149.02 30.6601 148.74 30.6601H142.78V30.6701ZM147.96 29.1401C148.92 29.1401 149.39 28.6601 149.39 27.7101V24.0001C149.39 23.0601 148.91 22.5901 147.96 22.5901H144.18C143.24 22.5901 142.78 23.0601 142.78 24.0001V27.7101C142.78 28.6601 143.25 29.1401 144.18 29.1401H147.96Z" fill="url(#paint27_linear_703_100)"/>
<path d="M152.88 23.1401C152.88 22.8601 152.94 22.6001 153.07 22.3501C153.2 22.1001 153.37 21.8801 153.58 21.6901C153.79 21.5001 154.02 21.3401 154.28 21.2301C154.53 21.1201 154.8 21.0601 155.08 21.0601H160.37C160.65 21.0601 160.92 21.1201 161.17 21.2301C161.43 21.3401 161.66 21.5001 161.86 21.6901C162.06 21.8801 162.23 22.1001 162.36 22.3501C162.49 22.6001 162.55 22.8601 162.55 23.1401V28.6001C162.55 28.8701 162.49 29.1301 162.36 29.3801C162.23 29.6301 162.07 29.8501 161.86 30.0401C161.65 30.2301 161.42 30.3801 161.17 30.4901C160.92 30.6001 160.65 30.6601 160.37 30.6601H155.08C154.8 30.6601 154.53 30.6001 154.28 30.4901C154.02 30.3801 153.79 30.2301 153.58 30.0401C153.37 29.8501 153.2 29.6301 153.07 29.3801C152.94 29.1301 152.88 28.8601 152.88 28.6001V23.1401ZM154.41 27.7301C154.41 28.6701 154.88 29.1401 155.81 29.1401H159.59C160.55 29.1401 161.02 28.6701 161.02 27.7301V24.0201C161.02 23.0701 160.54 22.5901 159.59 22.5901H155.81C154.87 22.5901 154.41 23.0701 154.41 24.0201V27.7301Z" fill="url(#paint28_linear_703_100)"/>
<path d="M172 17.8599C172.28 17.8599 172.55 17.9099 172.8 18.0199C173.06 18.1299 173.29 18.2799 173.5 18.4799C173.71 18.6799 173.88 18.8999 174 19.1399C174.13 19.3899 174.19 19.6499 174.19 19.9299V28.6099C174.19 28.8799 174.13 29.1399 174 29.3899C173.87 29.6399 173.7 29.8599 173.5 30.0499C173.29 30.2399 173.06 30.3899 172.8 30.4999C172.55 30.6099 172.28 30.6699 172 30.6699H166.71C166.43 30.6699 166.16 30.6099 165.91 30.4999C165.66 30.3899 165.42 30.2399 165.22 30.0499C165.01 29.8599 164.85 29.6399 164.72 29.3899C164.59 29.1399 164.53 28.8699 164.53 28.6099V23.1499C164.53 22.8699 164.59 22.6099 164.72 22.3599C164.85 22.1099 165.01 21.8899 165.22 21.6999C165.43 21.5099 165.66 21.3499 165.91 21.2399C166.16 21.1299 166.43 21.0699 166.71 21.0699H172.67V20.7999C172.67 19.8699 172.2 19.3999 171.27 19.3999H164.97V17.8699H172V17.8599ZM172.66 24.0099C172.66 23.0599 172.19 22.5799 171.26 22.5799H167.48C166.52 22.5799 166.05 23.0599 166.05 24.0099V27.7199C166.05 28.6599 166.53 29.1299 167.48 29.1299H171.26C172.2 29.1299 172.66 28.6599 172.66 27.7199V24.0099Z" fill="url(#paint29_linear_703_100)"/>
<path d="M184.3 26.5198H177.69V30.6698H176.16V21.0498H177.69V24.9798H184.3V21.0498H185.83V30.6698H184.3V26.5198Z" fill="url(#paint30_linear_703_100)"/>
<path d="M189.33 23.7198H193.83C194.11 23.7198 194.38 23.7698 194.64 23.8798C194.9 23.9898 195.13 24.1398 195.33 24.3398C195.53 24.5398 195.69 24.7598 195.82 24.9998C195.95 25.2498 196.01 25.5098 196.01 25.7898V28.5898C196.01 28.8598 195.95 29.1198 195.82 29.3698C195.69 29.6198 195.53 29.8398 195.33 30.0298C195.13 30.2198 194.9 30.3698 194.64 30.4798C194.38 30.5898 194.11 30.6498 193.83 30.6498H189.99C189.71 30.6498 189.44 30.5898 189.19 30.4798C188.94 30.3698 188.7 30.2198 188.49 30.0298C188.28 29.8398 188.11 29.6198 187.98 29.3698C187.85 29.1198 187.79 28.8498 187.79 28.5898V21.0498H189.32V23.7198H189.33ZM189.33 25.2498V27.7198C189.33 28.6598 189.8 29.1298 190.73 29.1298H193.08C194.02 29.1298 194.48 28.6598 194.48 27.7198V26.6498C194.48 25.7198 194.01 25.2498 193.08 25.2498H189.33ZM197.35 21.0498H198.88V30.6698H197.35V21.0498Z" fill="url(#paint31_linear_703_100)"/>
<path d="M208.99 29.1398V21.0598H210.52V30.6798H203.04C202.76 30.6798 202.49 30.6198 202.24 30.5098C201.99 30.3998 201.75 30.2498 201.54 30.0598C201.33 29.8698 201.16 29.6498 201.03 29.3998C200.9 29.1498 200.84 28.8798 200.84 28.6198V21.0798H202.37V27.7498C202.37 28.6898 202.84 29.1598 203.77 29.1598H208.99V29.1398ZM205.14 19.6298L206.08 17.0098H207.87L206.12 19.6298H205.14Z" fill="url(#paint32_linear_703_100)"/>
<path d="M227.05 22.5798H220.78V21.0498H227.83C228.11 21.0498 228.38 21.1098 228.63 21.2198C228.89 21.3298 229.12 21.4898 229.32 21.6798C229.52 21.8698 229.69 22.0898 229.82 22.3398C229.95 22.5898 230.01 22.8498 230.01 23.1298V28.5898C230.01 28.8598 229.95 29.1198 229.82 29.3698C229.69 29.6198 229.53 29.8398 229.32 30.0298C229.11 30.2198 228.88 30.3698 228.63 30.4798C228.38 30.5898 228.11 30.6498 227.83 30.6498H222.54C222.26 30.6498 221.99 30.5898 221.74 30.4798C221.49 30.3698 221.25 30.2198 221.04 30.0298C220.83 29.8398 220.66 29.6198 220.53 29.3698C220.4 29.1198 220.34 28.8498 220.34 28.5898V26.3298C220.34 26.0498 220.4 25.7898 220.53 25.5398C220.66 25.2898 220.83 25.0698 221.04 24.8698C221.25 24.6698 221.48 24.5198 221.74 24.4198C222 24.3198 222.26 24.2598 222.54 24.2598H228.49V24.0098C228.48 23.0498 228 22.5798 227.05 22.5798ZM223.27 25.7998C222.33 25.7998 221.87 26.2698 221.87 27.1998V27.7298C221.87 28.6698 222.34 29.1398 223.27 29.1398H227.05C228.01 29.1398 228.48 28.6698 228.48 27.7298V27.1998C228.48 26.2698 228 25.7998 227.05 25.7998H223.27Z" fill="url(#paint33_linear_703_100)"/>
<path d="M240.12 26.5198H235.08V24.9898H240.12V24.0198C240.12 23.0698 239.64 22.5898 238.69 22.5898H235.26C234.32 22.5898 233.86 23.0698 233.86 24.0198H232.33V23.1498C232.33 22.8698 232.39 22.6098 232.51 22.3598C232.63 22.1098 232.8 21.8898 233.01 21.6998C233.22 21.5098 233.45 21.3498 233.71 21.2398C233.97 21.1298 234.23 21.0698 234.5 21.0698H239.47C239.75 21.0698 240.02 21.1298 240.27 21.2398C240.53 21.3498 240.76 21.5098 240.96 21.6998C241.16 21.8898 241.33 22.1098 241.46 22.3598C241.59 22.6098 241.65 22.8698 241.65 23.1498V28.6098C241.65 28.8798 241.59 29.1398 241.46 29.3898C241.33 29.6398 241.17 29.8598 240.96 30.0498C240.75 30.2398 240.52 30.3898 240.27 30.4998C240.02 30.6098 239.75 30.6698 239.47 30.6698H234.18C233.9 30.6698 233.63 30.6098 233.38 30.4998C233.13 30.3898 232.89 30.2398 232.68 30.0498C232.47 29.8598 232.3 29.6398 232.17 29.3898C232.04 29.1398 231.98 28.8698 231.98 28.6098V27.7398H233.51C233.51 28.6798 233.98 29.1498 234.91 29.1498H238.69C239.65 29.1498 240.12 28.6798 240.12 27.7398V26.5198Z" fill="url(#paint34_linear_703_100)"/>
<path d="M245.13 30.6701V34.0001H243.6V23.1201C243.6 22.8501 243.66 22.5901 243.79 22.3401C243.92 22.0901 244.09 21.8601 244.3 21.6801C244.51 21.4901 244.74 21.3401 245 21.2301C245.26 21.1201 245.52 21.0601 245.8 21.0601H251.09C251.37 21.0601 251.64 21.1201 251.89 21.2301C252.15 21.3401 252.38 21.4901 252.58 21.6801C252.79 21.8701 252.95 22.0901 253.08 22.3401C253.21 22.5901 253.27 22.8601 253.27 23.1201V28.5801C253.27 28.8601 253.21 29.1201 253.08 29.3701C252.95 29.6201 252.79 29.8401 252.58 30.0301C252.37 30.2201 252.14 30.3801 251.89 30.4901C251.64 30.6001 251.37 30.6601 251.09 30.6601H245.13V30.6701ZM250.32 29.1401C251.28 29.1401 251.75 28.6601 251.75 27.7101V24.0001C251.75 23.0601 251.27 22.5901 250.32 22.5901H246.54C245.6 22.5901 245.14 23.0601 245.14 24.0001V27.7101C245.14 28.6601 245.61 29.1401 246.54 29.1401H250.32Z" fill="url(#paint35_linear_703_100)"/>
<path d="M255.24 23.1401C255.24 22.8601 255.3 22.6001 255.43 22.3501C255.56 22.1001 255.73 21.8801 255.94 21.6901C256.15 21.5001 256.38 21.3401 256.64 21.2301C256.9 21.1201 257.16 21.0601 257.44 21.0601H262.73C263.01 21.0601 263.28 21.1201 263.53 21.2301C263.79 21.3401 264.02 21.5001 264.22 21.6901C264.42 21.8801 264.59 22.1001 264.72 22.3501C264.85 22.6001 264.91 22.8601 264.91 23.1401V28.6001C264.91 28.8701 264.85 29.1301 264.72 29.3801C264.59 29.6301 264.43 29.8501 264.22 30.0401C264.01 30.2301 263.78 30.3801 263.53 30.4901C263.28 30.6001 263.01 30.6601 262.73 30.6601H257.44C257.16 30.6601 256.89 30.6001 256.64 30.4901C256.39 30.3801 256.15 30.2301 255.94 30.0401C255.73 29.8501 255.56 29.6301 255.43 29.3801C255.3 29.1301 255.24 28.8601 255.24 28.6001V23.1401ZM256.77 27.7301C256.77 28.6701 257.24 29.1401 258.17 29.1401H261.95C262.91 29.1401 263.38 28.6701 263.38 27.7301V24.0201C263.38 23.0701 262.9 22.5901 261.95 22.5901H258.17C257.23 22.5901 256.77 23.0701 256.77 24.0201V27.7301Z" fill="url(#paint36_linear_703_100)"/>
<path d="M268.41 22.58V30.66H266.88V21.04H274.36C274.64 21.04 274.91 21.1 275.16 21.21C275.42 21.32 275.65 21.47 275.86 21.66C276.07 21.85 276.24 22.07 276.36 22.32C276.49 22.57 276.55 22.84 276.55 23.1V30.64H275.02V23.97C275.02 23.03 274.55 22.56 273.62 22.56H268.41V22.58Z" fill="url(#paint37_linear_703_100)"/>
<path d="M278.52 23.1401C278.52 22.8601 278.58 22.6001 278.71 22.3501C278.84 22.1001 279.01 21.8801 279.22 21.6901C279.43 21.5001 279.66 21.3401 279.92 21.2301C280.18 21.1201 280.44 21.0601 280.72 21.0601H286.01C286.29 21.0601 286.56 21.1201 286.81 21.2301C287.07 21.3401 287.3 21.5001 287.5 21.6901C287.7 21.8801 287.87 22.1001 288 22.3501C288.13 22.6001 288.19 22.8601 288.19 23.1401V28.6001C288.19 28.8701 288.13 29.1301 288 29.3801C287.87 29.6301 287.71 29.8501 287.5 30.0401C287.29 30.2301 287.06 30.3801 286.81 30.4901C286.56 30.6001 286.29 30.6601 286.01 30.6601H280.72C280.44 30.6601 280.17 30.6001 279.92 30.4901C279.67 30.3801 279.43 30.2301 279.22 30.0401C279.01 29.8501 278.84 29.6301 278.71 29.3801C278.58 29.1301 278.52 28.8601 278.52 28.6001V23.1401ZM280.05 27.7301C280.05 28.6701 280.52 29.1401 281.45 29.1401H285.23C286.19 29.1401 286.66 28.6701 286.66 27.7301V24.0201C286.66 23.0701 286.18 22.5901 285.23 22.5901H281.45C280.51 22.5901 280.05 23.0701 280.05 24.0201V27.7301Z" fill="url(#paint38_linear_703_100)"/>
<path d="M291.68 30.6701V34.0001H290.15V23.1201C290.15 22.8501 290.21 22.5901 290.34 22.3401C290.47 22.0901 290.64 21.8601 290.85 21.6801C291.06 21.4901 291.29 21.3401 291.55 21.2301C291.81 21.1201 292.07 21.0601 292.35 21.0601H297.64C297.92 21.0601 298.19 21.1201 298.44 21.2301C298.7 21.3401 298.93 21.4901 299.13 21.6801C299.34 21.8701 299.5 22.0901 299.63 22.3401C299.76 22.5901 299.82 22.8601 299.82 23.1201V28.5801C299.82 28.8601 299.76 29.1201 299.63 29.3701C299.5 29.6201 299.34 29.8401 299.13 30.0301C298.92 30.2201 298.69 30.3801 298.44 30.4901C298.19 30.6001 297.92 30.6601 297.64 30.6601H291.68V30.6701ZM296.86 29.1401C297.82 29.1401 298.29 28.6601 298.29 27.7101V24.0001C298.29 23.0601 297.81 22.5901 296.86 22.5901H293.08C292.14 22.5901 291.68 23.0601 291.68 24.0001V27.7101C291.68 28.6601 292.15 29.1401 293.08 29.1401H296.86Z" fill="url(#paint39_linear_703_100)"/>
<path d="M305.13 22.5798H301.78V21.0498H310V22.5798H306.65V30.6598H305.12V22.5798H305.13Z" fill="url(#paint40_linear_703_100)"/>
<path d="M60.2 29.4399C60.04 29.8799 59.8 30.1999 59.5 30.3899C59.2 30.5799 58.85 30.6699 58.45 30.6699C58.04 30.6699 57.69 30.5799 57.39 30.3899C57.09 30.1999 56.86 29.8899 56.7 29.4399L52.53 19.4699V30.6599H50.71V19.7099C50.71 19.1999 50.89 18.7599 51.25 18.3999C51.61 18.0399 52.05 17.8599 52.56 17.8599C53.04 17.8599 53.42 17.9599 53.68 18.1599C53.95 18.3599 54.14 18.6299 54.26 18.9599L58.44 28.9199L62.62 18.9599C62.74 18.6299 62.93 18.3599 63.19 18.1599C63.45 17.9599 63.83 17.8599 64.33 17.8599C64.84 17.8599 65.28 18.0399 65.64 18.3999C66 18.7599 66.18 19.1999 66.18 19.7099V30.6699H64.36V19.4699L60.2 29.4399Z" fill="url(#paint41_linear_703_100)"/>
<path d="M77.83 24.4198C77.83 24.6998 77.77 24.9598 77.64 25.2098C77.51 25.4598 77.35 25.6798 77.15 25.8698C76.95 26.0598 76.72 26.2198 76.46 26.3298C76.2 26.4398 75.93 26.4998 75.65 26.4998H69.69V27.7098C69.69 28.6498 70.16 29.1198 71.09 29.1198H77.83V30.6498H70.35C70.07 30.6498 69.8 30.5898 69.55 30.4798C69.29 30.3698 69.06 30.2198 68.85 30.0298C68.64 29.8398 68.47 29.6198 68.34 29.3698C68.21 29.1198 68.15 28.8498 68.15 28.5898V23.1298C68.15 22.8498 68.21 22.5898 68.34 22.3398C68.47 22.0898 68.64 21.8698 68.85 21.6798C69.06 21.4898 69.29 21.3298 69.55 21.2198C69.8 21.1098 70.07 21.0498 70.35 21.0498H75.64C75.92 21.0498 76.19 21.1098 76.45 21.2198C76.71 21.3298 76.94 21.4898 77.14 21.6798C77.34 21.8698 77.5 22.0898 77.63 22.3398C77.76 22.5898 77.82 22.8498 77.82 23.1298V24.4198H77.83ZM75.09 24.9798C75.25 24.9798 75.41 24.9498 75.56 24.8898C75.71 24.8298 75.84 24.7398 75.95 24.6298C76.06 24.5198 76.15 24.3898 76.21 24.2498C76.27 24.1098 76.3 23.9498 76.3 23.7798C76.3 23.6198 76.27 23.4598 76.21 23.3098C76.15 23.1598 76.06 23.0398 75.95 22.9298C75.84 22.8198 75.71 22.7398 75.56 22.6798C75.41 22.6198 75.26 22.5898 75.09 22.5898H71.09C70.15 22.5898 69.69 23.0698 69.69 24.0198V24.9898H75.09V24.9798Z" fill="url(#paint42_linear_703_100)"/>
<path d="M87.03 25.0898L90.92 21.0498H93.05L88.46 25.8198L93.34 30.6598H91.2L87.04 26.5898V30.6598H85.51V26.5998L81.35 30.6698H79.21L84.09 25.8298L79.5 21.0598H81.63L85.52 25.0998V21.0598H87.05V25.0998H87.03V25.0898Z" fill="url(#paint43_linear_703_100)"/>
<path d="M102.18 17.8599C102.46 17.8599 102.73 17.9099 102.98 18.0199C103.23 18.1299 103.47 18.2799 103.68 18.4799C103.89 18.6799 104.06 18.8999 104.19 19.1399C104.32 19.3899 104.38 19.6499 104.38 19.9299V28.6099C104.38 28.8799 104.32 29.1399 104.19 29.3899C104.06 29.6399 103.89 29.8599 103.68 30.0499C103.47 30.2399 103.24 30.3899 102.98 30.4999C102.72 30.6099 102.46 30.6699 102.18 30.6699H96.89C96.61 30.6699 96.34 30.6099 96.09 30.4999C95.84 30.3899 95.6 30.2399 95.4 30.0499C95.19 29.8599 95.03 29.6399 94.9 29.3899C94.77 29.1399 94.71 28.8699 94.71 28.6099V23.1499C94.71 22.8699 94.77 22.6099 94.9 22.3599C95.03 22.1099 95.19 21.8899 95.4 21.6999C95.61 21.5099 95.84 21.3499 96.09 21.2399C96.35 21.1299 96.61 21.0699 96.89 21.0699H102.85V20.7999C102.85 19.8699 102.38 19.3999 101.45 19.3999H95.15V17.8699H102.18V17.8599ZM102.85 24.0099C102.85 23.0599 102.38 22.5799 101.45 22.5799H97.67C96.71 22.5799 96.24 23.0599 96.24 24.0099V27.7199C96.24 28.6599 96.72 29.1299 97.67 29.1299H101.45C102.39 29.1299 102.85 28.6599 102.85 27.7199V24.0099Z" fill="url(#paint44_linear_703_100)"/>
<path d="M114.48 21.0498H116.01V31.9298C116.01 32.1998 115.95 32.4598 115.82 32.7098C115.69 32.9598 115.53 33.1798 115.32 33.3698C115.11 33.5598 114.88 33.7098 114.63 33.8198C114.38 33.9298 114.11 33.9898 113.83 33.9898H106.78V32.4598H113.05C114.01 32.4598 114.48 31.9898 114.48 31.0498V30.6598H108.53C108.25 30.6598 107.98 30.5998 107.73 30.4898C107.47 30.3798 107.24 30.2298 107.03 30.0398C106.82 29.8498 106.65 29.6298 106.52 29.3798C106.39 29.1298 106.33 28.8598 106.33 28.5998V21.0598H107.86V27.7298C107.86 28.6698 108.33 29.1398 109.26 29.1398H113.04C114 29.1398 114.47 28.6698 114.47 27.7298V21.0598H114.48V21.0498Z" fill="url(#paint45_linear_703_100)"/>
<path d="M126.12 26.5198H119.51V30.6698H117.98V21.0498H119.51V24.9798H126.12V21.0498H127.65V30.6698H126.12V26.5198Z" fill="url(#paint46_linear_703_100)"/>
<path d="M136.32 22.5798H130.05V21.0498H137.1C137.38 21.0498 137.65 21.1098 137.9 21.2198C138.16 21.3298 138.39 21.4898 138.59 21.6798C138.79 21.8698 138.96 22.0898 139.09 22.3398C139.22 22.5898 139.28 22.8498 139.28 23.1298V28.5898C139.28 28.8598 139.22 29.1198 139.09 29.3698C138.96 29.6198 138.8 29.8398 138.59 30.0298C138.38 30.2198 138.15 30.3698 137.9 30.4798C137.65 30.5898 137.38 30.6498 137.1 30.6498H131.81C131.53 30.6498 131.26 30.5898 131.01 30.4798C130.75 30.3698 130.52 30.2198 130.31 30.0298C130.1 29.8398 129.93 29.6198 129.8 29.3698C129.67 29.1198 129.61 28.8498 129.61 28.5898V26.3298C129.61 26.0498 129.67 25.7898 129.8 25.5398C129.93 25.2898 130.1 25.0698 130.31 24.8698C130.52 24.6698 130.75 24.5198 131.01 24.4198C131.26 24.3198 131.53 24.2598 131.81 24.2598H137.76V24.0098C137.76 23.0498 137.28 22.5798 136.32 22.5798ZM132.55 25.7998C131.61 25.7998 131.15 26.2698 131.15 27.1998V27.7298C131.15 28.6698 131.62 29.1398 132.55 29.1398H136.33C137.29 29.1398 137.76 28.6698 137.76 27.7298V27.1998C137.76 26.2698 137.28 25.7998 136.33 25.7998H132.55Z" fill="url(#paint47_linear_703_100)"/>
<path d="M142.78 30.6701V34.0001H141.25V23.1201C141.25 22.8501 141.31 22.5901 141.44 22.3401C141.57 22.0901 141.74 21.8601 141.95 21.6801C142.16 21.4901 142.39 21.3401 142.65 21.2301C142.9 21.1201 143.17 21.0601 143.45 21.0601H148.74C149.02 21.0601 149.29 21.1201 149.54 21.2301C149.8 21.3401 150.03 21.4901 150.23 21.6801C150.44 21.8701 150.6 22.0901 150.73 22.3401C150.86 22.5901 150.92 22.8601 150.92 23.1201V28.5801C150.92 28.8601 150.86 29.1201 150.73 29.3701C150.6 29.6201 150.44 29.8401 150.23 30.0301C150.02 30.2201 149.79 30.3801 149.54 30.4901C149.29 30.6001 149.02 30.6601 148.74 30.6601H142.78V30.6701ZM147.96 29.1401C148.92 29.1401 149.39 28.6601 149.39 27.7101V24.0001C149.39 23.0601 148.91 22.5901 147.96 22.5901H144.18C143.24 22.5901 142.78 23.0601 142.78 24.0001V27.7101C142.78 28.6601 143.25 29.1401 144.18 29.1401H147.96Z" fill="url(#paint48_linear_703_100)"/>
<path d="M152.88 23.1401C152.88 22.8601 152.94 22.6001 153.07 22.3501C153.2 22.1001 153.37 21.8801 153.58 21.6901C153.79 21.5001 154.02 21.3401 154.28 21.2301C154.53 21.1201 154.8 21.0601 155.08 21.0601H160.37C160.65 21.0601 160.92 21.1201 161.17 21.2301C161.43 21.3401 161.66 21.5001 161.86 21.6901C162.06 21.8801 162.23 22.1001 162.36 22.3501C162.49 22.6001 162.55 22.8601 162.55 23.1401V28.6001C162.55 28.8701 162.49 29.1301 162.36 29.3801C162.23 29.6301 162.07 29.8501 161.86 30.0401C161.65 30.2301 161.42 30.3801 161.17 30.4901C160.92 30.6001 160.65 30.6601 160.37 30.6601H155.08C154.8 30.6601 154.53 30.6001 154.28 30.4901C154.02 30.3801 153.79 30.2301 153.58 30.0401C153.37 29.8501 153.2 29.6301 153.07 29.3801C152.94 29.1301 152.88 28.8601 152.88 28.6001V23.1401ZM154.41 27.7301C154.41 28.6701 154.88 29.1401 155.81 29.1401H159.59C160.55 29.1401 161.02 28.6701 161.02 27.7301V24.0201C161.02 23.0701 160.54 22.5901 159.59 22.5901H155.81C154.87 22.5901 154.41 23.0701 154.41 24.0201V27.7301Z" fill="url(#paint49_linear_703_100)"/>
<path d="M172 17.8599C172.28 17.8599 172.55 17.9099 172.8 18.0199C173.06 18.1299 173.29 18.2799 173.5 18.4799C173.71 18.6799 173.88 18.8999 174 19.1399C174.13 19.3899 174.19 19.6499 174.19 19.9299V28.6099C174.19 28.8799 174.13 29.1399 174 29.3899C173.87 29.6399 173.7 29.8599 173.5 30.0499C173.29 30.2399 173.06 30.3899 172.8 30.4999C172.55 30.6099 172.28 30.6699 172 30.6699H166.71C166.43 30.6699 166.16 30.6099 165.91 30.4999C165.66 30.3899 165.42 30.2399 165.22 30.0499C165.01 29.8599 164.85 29.6399 164.72 29.3899C164.59 29.1399 164.53 28.8699 164.53 28.6099V23.1499C164.53 22.8699 164.59 22.6099 164.72 22.3599C164.85 22.1099 165.01 21.8899 165.22 21.6999C165.43 21.5099 165.66 21.3499 165.91 21.2399C166.16 21.1299 166.43 21.0699 166.71 21.0699H172.67V20.7999C172.67 19.8699 172.2 19.3999 171.27 19.3999H164.97V17.8699H172V17.8599ZM172.66 24.0099C172.66 23.0599 172.19 22.5799 171.26 22.5799H167.48C166.52 22.5799 166.05 23.0599 166.05 24.0099V27.7199C166.05 28.6599 166.53 29.1299 167.48 29.1299H171.26C172.2 29.1299 172.66 28.6599 172.66 27.7199V24.0099Z" fill="url(#paint50_linear_703_100)"/>
<path d="M184.3 26.5198H177.69V30.6698H176.16V21.0498H177.69V24.9798H184.3V21.0498H185.83V30.6698H184.3V26.5198Z" fill="url(#paint51_linear_703_100)"/>
<path d="M189.33 23.7198H193.83C194.11 23.7198 194.38 23.7698 194.64 23.8798C194.9 23.9898 195.13 24.1398 195.33 24.3398C195.53 24.5398 195.69 24.7598 195.82 24.9998C195.95 25.2498 196.01 25.5098 196.01 25.7898V28.5898C196.01 28.8598 195.95 29.1198 195.82 29.3698C195.69 29.6198 195.53 29.8398 195.33 30.0298C195.13 30.2198 194.9 30.3698 194.64 30.4798C194.38 30.5898 194.11 30.6498 193.83 30.6498H189.99C189.71 30.6498 189.44 30.5898 189.19 30.4798C188.94 30.3698 188.7 30.2198 188.49 30.0298C188.28 29.8398 188.11 29.6198 187.98 29.3698C187.85 29.1198 187.79 28.8498 187.79 28.5898V21.0498H189.32V23.7198H189.33ZM189.33 25.2498V27.7198C189.33 28.6598 189.8 29.1298 190.73 29.1298H193.08C194.02 29.1298 194.48 28.6598 194.48 27.7198V26.6498C194.48 25.7198 194.01 25.2498 193.08 25.2498H189.33ZM197.35 21.0498H198.88V30.6698H197.35V21.0498Z" fill="url(#paint52_linear_703_100)"/>
<path d="M208.99 29.1398V21.0598H210.52V30.6798H203.04C202.76 30.6798 202.49 30.6198 202.24 30.5098C201.99 30.3998 201.75 30.2498 201.54 30.0598C201.33 29.8698 201.16 29.6498 201.03 29.3998C200.9 29.1498 200.84 28.8798 200.84 28.6198V21.0798H202.37V27.7498C202.37 28.6898 202.84 29.1598 203.77 29.1598H208.99V29.1398ZM205.14 19.6298L206.08 17.0098H207.87L206.12 19.6298H205.14Z" fill="url(#paint53_linear_703_100)"/>
<path d="M227.05 22.5798H220.78V21.0498H227.83C228.11 21.0498 228.38 21.1098 228.63 21.2198C228.89 21.3298 229.12 21.4898 229.32 21.6798C229.52 21.8698 229.69 22.0898 229.82 22.3398C229.95 22.5898 230.01 22.8498 230.01 23.1298V28.5898C230.01 28.8598 229.95 29.1198 229.82 29.3698C229.69 29.6198 229.53 29.8398 229.32 30.0298C229.11 30.2198 228.88 30.3698 228.63 30.4798C228.38 30.5898 228.11 30.6498 227.83 30.6498H222.54C222.26 30.6498 221.99 30.5898 221.74 30.4798C221.49 30.3698 221.25 30.2198 221.04 30.0298C220.83 29.8398 220.66 29.6198 220.53 29.3698C220.4 29.1198 220.34 28.8498 220.34 28.5898V26.3298C220.34 26.0498 220.4 25.7898 220.53 25.5398C220.66 25.2898 220.83 25.0698 221.04 24.8698C221.25 24.6698 221.48 24.5198 221.74 24.4198C222 24.3198 222.26 24.2598 222.54 24.2598H228.49V24.0098C228.48 23.0498 228 22.5798 227.05 22.5798ZM223.27 25.7998C222.33 25.7998 221.87 26.2698 221.87 27.1998V27.7298C221.87 28.6698 222.34 29.1398 223.27 29.1398H227.05C228.01 29.1398 228.48 28.6698 228.48 27.7298V27.1998C228.48 26.2698 228 25.7998 227.05 25.7998H223.27Z" fill="url(#paint54_linear_703_100)"/>
<path d="M240.12 26.5198H235.08V24.9898H240.12V24.0198C240.12 23.0698 239.64 22.5898 238.69 22.5898H235.26C234.32 22.5898 233.86 23.0698 233.86 24.0198H232.33V23.1498C232.33 22.8698 232.39 22.6098 232.51 22.3598C232.63 22.1098 232.8 21.8898 233.01 21.6998C233.22 21.5098 233.45 21.3498 233.71 21.2398C233.97 21.1298 234.23 21.0698 234.5 21.0698H239.47C239.75 21.0698 240.02 21.1298 240.27 21.2398C240.53 21.3498 240.76 21.5098 240.96 21.6998C241.16 21.8898 241.33 22.1098 241.46 22.3598C241.59 22.6098 241.65 22.8698 241.65 23.1498V28.6098C241.65 28.8798 241.59 29.1398 241.46 29.3898C241.33 29.6398 241.17 29.8598 240.96 30.0498C240.75 30.2398 240.52 30.3898 240.27 30.4998C240.02 30.6098 239.75 30.6698 239.47 30.6698H234.18C233.9 30.6698 233.63 30.6098 233.38 30.4998C233.13 30.3898 232.89 30.2398 232.68 30.0498C232.47 29.8598 232.3 29.6398 232.17 29.3898C232.04 29.1398 231.98 28.8698 231.98 28.6098V27.7398H233.51C233.51 28.6798 233.98 29.1498 234.91 29.1498H238.69C239.65 29.1498 240.12 28.6798 240.12 27.7398V26.5198Z" fill="url(#paint55_linear_703_100)"/>
<path d="M245.13 30.6701V34.0001H243.6V23.1201C243.6 22.8501 243.66 22.5901 243.79 22.3401C243.92 22.0901 244.09 21.8601 244.3 21.6801C244.51 21.4901 244.74 21.3401 245 21.2301C245.26 21.1201 245.52 21.0601 245.8 21.0601H251.09C251.37 21.0601 251.64 21.1201 251.89 21.2301C252.15 21.3401 252.38 21.4901 252.58 21.6801C252.79 21.8701 252.95 22.0901 253.08 22.3401C253.21 22.5901 253.27 22.8601 253.27 23.1201V28.5801C253.27 28.8601 253.21 29.1201 253.08 29.3701C252.95 29.6201 252.79 29.8401 252.58 30.0301C252.37 30.2201 252.14 30.3801 251.89 30.4901C251.64 30.6001 251.37 30.6601 251.09 30.6601H245.13V30.6701ZM250.32 29.1401C251.28 29.1401 251.75 28.6601 251.75 27.7101V24.0001C251.75 23.0601 251.27 22.5901 250.32 22.5901H246.54C245.6 22.5901 245.14 23.0601 245.14 24.0001V27.7101C245.14 28.6601 245.61 29.1401 246.54 29.1401H250.32Z" fill="url(#paint56_linear_703_100)"/>
<path d="M255.24 23.1401C255.24 22.8601 255.3 22.6001 255.43 22.3501C255.56 22.1001 255.73 21.8801 255.94 21.6901C256.15 21.5001 256.38 21.3401 256.64 21.2301C256.9 21.1201 257.16 21.0601 257.44 21.0601H262.73C263.01 21.0601 263.28 21.1201 263.53 21.2301C263.79 21.3401 264.02 21.5001 264.22 21.6901C264.42 21.8801 264.59 22.1001 264.72 22.3501C264.85 22.6001 264.91 22.8601 264.91 23.1401V28.6001C264.91 28.8701 264.85 29.1301 264.72 29.3801C264.59 29.6301 264.43 29.8501 264.22 30.0401C264.01 30.2301 263.78 30.3801 263.53 30.4901C263.28 30.6001 263.01 30.6601 262.73 30.6601H257.44C257.16 30.6601 256.89 30.6001 256.64 30.4901C256.39 30.3801 256.15 30.2301 255.94 30.0401C255.73 29.8501 255.56 29.6301 255.43 29.3801C255.3 29.1301 255.24 28.8601 255.24 28.6001V23.1401ZM256.77 27.7301C256.77 28.6701 257.24 29.1401 258.17 29.1401H261.95C262.91 29.1401 263.38 28.6701 263.38 27.7301V24.0201C263.38 23.0701 262.9 22.5901 261.95 22.5901H258.17C257.23 22.5901 256.77 23.0701 256.77 24.0201V27.7301Z" fill="url(#paint57_linear_703_100)"/>
<path d="M268.41 22.58V30.66H266.88V21.04H274.36C274.64 21.04 274.91 21.1 275.16 21.21C275.42 21.32 275.65 21.47 275.86 21.66C276.07 21.85 276.24 22.07 276.36 22.32C276.49 22.57 276.55 22.84 276.55 23.1V30.64H275.02V23.97C275.02 23.03 274.55 22.56 273.62 22.56H268.41V22.58Z" fill="url(#paint58_linear_703_100)"/>
<path d="M278.52 23.1401C278.52 22.8601 278.58 22.6001 278.71 22.3501C278.84 22.1001 279.01 21.8801 279.22 21.6901C279.43 21.5001 279.66 21.3401 279.92 21.2301C280.18 21.1201 280.44 21.0601 280.72 21.0601H286.01C286.29 21.0601 286.56 21.1201 286.81 21.2301C287.07 21.3401 287.3 21.5001 287.5 21.6901C287.7 21.8801 287.87 22.1001 288 22.3501C288.13 22.6001 288.19 22.8601 288.19 23.1401V28.6001C288.19 28.8701 288.13 29.1301 288 29.3801C287.87 29.6301 287.71 29.8501 287.5 30.0401C287.29 30.2301 287.06 30.3801 286.81 30.4901C286.56 30.6001 286.29 30.6601 286.01 30.6601H280.72C280.44 30.6601 280.17 30.6001 279.92 30.4901C279.67 30.3801 279.43 30.2301 279.22 30.0401C279.01 29.8501 278.84 29.6301 278.71 29.3801C278.58 29.1301 278.52 28.8601 278.52 28.6001V23.1401ZM280.05 27.7301C280.05 28.6701 280.52 29.1401 281.45 29.1401H285.23C286.19 29.1401 286.66 28.6701 286.66 27.7301V24.0201C286.66 23.0701 286.18 22.5901 285.23 22.5901H281.45C280.51 22.5901 280.05 23.0701 280.05 24.0201V27.7301Z" fill="url(#paint59_linear_703_100)"/>
<path d="M291.68 30.6701V34.0001H290.15V23.1201C290.15 22.8501 290.21 22.5901 290.34 22.3401C290.47 22.0901 290.64 21.8601 290.85 21.6801C291.06 21.4901 291.29 21.3401 291.55 21.2301C291.81 21.1201 292.07 21.0601 292.35 21.0601H297.64C297.92 21.0601 298.19 21.1201 298.44 21.2301C298.7 21.3401 298.93 21.4901 299.13 21.6801C299.34 21.8701 299.5 22.0901 299.63 22.3401C299.76 22.5901 299.82 22.8601 299.82 23.1201V28.5801C299.82 28.8601 299.76 29.1201 299.63 29.3701C299.5 29.6201 299.34 29.8401 299.13 30.0301C298.92 30.2201 298.69 30.3801 298.44 30.4901C298.19 30.6001 297.92 30.6601 297.64 30.6601H291.68V30.6701ZM296.86 29.1401C297.82 29.1401 298.29 28.6601 298.29 27.7101V24.0001C298.29 23.0601 297.81 22.5901 296.86 22.5901H293.08C292.14 22.5901 291.68 23.0601 291.68 24.0001V27.7101C291.68 28.6601 292.15 29.1401 293.08 29.1401H296.86Z" fill="url(#paint60_linear_703_100)"/>
<path d="M305.13 22.5798H301.78V21.0498H310V22.5798H306.65V30.6598H305.12V22.5798H305.13Z" fill="url(#paint61_linear_703_100)"/>
<path d="M60.2 29.4399C60.04 29.8799 59.8 30.1999 59.5 30.3899C59.2 30.5799 58.85 30.6699 58.45 30.6699C58.04 30.6699 57.69 30.5799 57.39 30.3899C57.09 30.1999 56.86 29.8899 56.7 29.4399L52.53 19.4699V30.6599H50.71V19.7099C50.71 19.1999 50.89 18.7599 51.25 18.3999C51.61 18.0399 52.05 17.8599 52.56 17.8599C53.04 17.8599 53.42 17.9599 53.68 18.1599C53.95 18.3599 54.14 18.6299 54.26 18.9599L58.44 28.9199L62.62 18.9599C62.74 18.6299 62.93 18.3599 63.19 18.1599C63.45 17.9599 63.83 17.8599 64.33 17.8599C64.84 17.8599 65.28 18.0399 65.64 18.3999C66 18.7599 66.18 19.1999 66.18 19.7099V30.6699H64.36V19.4699L60.2 29.4399Z" fill="url(#paint62_linear_703_100)"/>
<path d="M77.83 24.4198C77.83 24.6998 77.77 24.9598 77.64 25.2098C77.51 25.4598 77.35 25.6798 77.15 25.8698C76.95 26.0598 76.72 26.2198 76.46 26.3298C76.2 26.4398 75.93 26.4998 75.65 26.4998H69.69V27.7098C69.69 28.6498 70.16 29.1198 71.09 29.1198H77.83V30.6498H70.35C70.07 30.6498 69.8 30.5898 69.55 30.4798C69.29 30.3698 69.06 30.2198 68.85 30.0298C68.64 29.8398 68.47 29.6198 68.34 29.3698C68.21 29.1198 68.15 28.8498 68.15 28.5898V23.1298C68.15 22.8498 68.21 22.5898 68.34 22.3398C68.47 22.0898 68.64 21.8698 68.85 21.6798C69.06 21.4898 69.29 21.3298 69.55 21.2198C69.8 21.1098 70.07 21.0498 70.35 21.0498H75.64C75.92 21.0498 76.19 21.1098 76.45 21.2198C76.71 21.3298 76.94 21.4898 77.14 21.6798C77.34 21.8698 77.5 22.0898 77.63 22.3398C77.76 22.5898 77.82 22.8498 77.82 23.1298V24.4198H77.83ZM75.09 24.9798C75.25 24.9798 75.41 24.9498 75.56 24.8898C75.71 24.8298 75.84 24.7398 75.95 24.6298C76.06 24.5198 76.15 24.3898 76.21 24.2498C76.27 24.1098 76.3 23.9498 76.3 23.7798C76.3 23.6198 76.27 23.4598 76.21 23.3098C76.15 23.1598 76.06 23.0398 75.95 22.9298C75.84 22.8198 75.71 22.7398 75.56 22.6798C75.41 22.6198 75.26 22.5898 75.09 22.5898H71.09C70.15 22.5898 69.69 23.0698 69.69 24.0198V24.9898H75.09V24.9798Z" fill="url(#paint63_linear_703_100)"/>
<path d="M87.03 25.0898L90.92 21.0498H93.05L88.46 25.8198L93.34 30.6598H91.2L87.04 26.5898V30.6598H85.51V26.5998L81.35 30.6698H79.21L84.09 25.8298L79.5 21.0598H81.63L85.52 25.0998V21.0598H87.05V25.0998H87.03V25.0898Z" fill="url(#paint64_linear_703_100)"/>
<path d="M102.18 17.8599C102.46 17.8599 102.73 17.9099 102.98 18.0199C103.23 18.1299 103.47 18.2799 103.68 18.4799C103.89 18.6799 104.06 18.8999 104.19 19.1399C104.32 19.3899 104.38 19.6499 104.38 19.9299V28.6099C104.38 28.8799 104.32 29.1399 104.19 29.3899C104.06 29.6399 103.89 29.8599 103.68 30.0499C103.47 30.2399 103.24 30.3899 102.98 30.4999C102.72 30.6099 102.46 30.6699 102.18 30.6699H96.89C96.61 30.6699 96.34 30.6099 96.09 30.4999C95.84 30.3899 95.6 30.2399 95.4 30.0499C95.19 29.8599 95.03 29.6399 94.9 29.3899C94.77 29.1399 94.71 28.8699 94.71 28.6099V23.1499C94.71 22.8699 94.77 22.6099 94.9 22.3599C95.03 22.1099 95.19 21.8899 95.4 21.6999C95.61 21.5099 95.84 21.3499 96.09 21.2399C96.35 21.1299 96.61 21.0699 96.89 21.0699H102.85V20.7999C102.85 19.8699 102.38 19.3999 101.45 19.3999H95.15V17.8699H102.18V17.8599ZM102.85 24.0099C102.85 23.0599 102.38 22.5799 101.45 22.5799H97.67C96.71 22.5799 96.24 23.0599 96.24 24.0099V27.7199C96.24 28.6599 96.72 29.1299 97.67 29.1299H101.45C102.39 29.1299 102.85 28.6599 102.85 27.7199V24.0099Z" fill="url(#paint65_linear_703_100)"/>
<path d="M114.48 21.0498H116.01V31.9298C116.01 32.1998 115.95 32.4598 115.82 32.7098C115.69 32.9598 115.53 33.1798 115.32 33.3698C115.11 33.5598 114.88 33.7098 114.63 33.8198C114.38 33.9298 114.11 33.9898 113.83 33.9898H106.78V32.4598H113.05C114.01 32.4598 114.48 31.9898 114.48 31.0498V30.6598H108.53C108.25 30.6598 107.98 30.5998 107.73 30.4898C107.47 30.3798 107.24 30.2298 107.03 30.0398C106.82 29.8498 106.65 29.6298 106.52 29.3798C106.39 29.1298 106.33 28.8598 106.33 28.5998V21.0598H107.86V27.7298C107.86 28.6698 108.33 29.1398 109.26 29.1398H113.04C114 29.1398 114.47 28.6698 114.47 27.7298V21.0598H114.48V21.0498Z" fill="url(#paint66_linear_703_100)"/>
<path d="M126.12 26.5198H119.51V30.6698H117.98V21.0498H119.51V24.9798H126.12V21.0498H127.65V30.6698H126.12V26.5198Z" fill="url(#paint67_linear_703_100)"/>
<path d="M136.32 22.5798H130.05V21.0498H137.1C137.38 21.0498 137.65 21.1098 137.9 21.2198C138.16 21.3298 138.39 21.4898 138.59 21.6798C138.79 21.8698 138.96 22.0898 139.09 22.3398C139.22 22.5898 139.28 22.8498 139.28 23.1298V28.5898C139.28 28.8598 139.22 29.1198 139.09 29.3698C138.96 29.6198 138.8 29.8398 138.59 30.0298C138.38 30.2198 138.15 30.3698 137.9 30.4798C137.65 30.5898 137.38 30.6498 137.1 30.6498H131.81C131.53 30.6498 131.26 30.5898 131.01 30.4798C130.75 30.3698 130.52 30.2198 130.31 30.0298C130.1 29.8398 129.93 29.6198 129.8 29.3698C129.67 29.1198 129.61 28.8498 129.61 28.5898V26.3298C129.61 26.0498 129.67 25.7898 129.8 25.5398C129.93 25.2898 130.1 25.0698 130.31 24.8698C130.52 24.6698 130.75 24.5198 131.01 24.4198C131.26 24.3198 131.53 24.2598 131.81 24.2598H137.76V24.0098C137.76 23.0498 137.28 22.5798 136.32 22.5798ZM132.55 25.7998C131.61 25.7998 131.15 26.2698 131.15 27.1998V27.7298C131.15 28.6698 131.62 29.1398 132.55 29.1398H136.33C137.29 29.1398 137.76 28.6698 137.76 27.7298V27.1998C137.76 26.2698 137.28 25.7998 136.33 25.7998H132.55Z" fill="url(#paint68_linear_703_100)"/>
<path d="M142.78 30.6701V34.0001H141.25V23.1201C141.25 22.8501 141.31 22.5901 141.44 22.3401C141.57 22.0901 141.74 21.8601 141.95 21.6801C142.16 21.4901 142.39 21.3401 142.65 21.2301C142.9 21.1201 143.17 21.0601 143.45 21.0601H148.74C149.02 21.0601 149.29 21.1201 149.54 21.2301C149.8 21.3401 150.03 21.4901 150.23 21.6801C150.44 21.8701 150.6 22.0901 150.73 22.3401C150.86 22.5901 150.92 22.8601 150.92 23.1201V28.5801C150.92 28.8601 150.86 29.1201 150.73 29.3701C150.6 29.6201 150.44 29.8401 150.23 30.0301C150.02 30.2201 149.79 30.3801 149.54 30.4901C149.29 30.6001 149.02 30.6601 148.74 30.6601H142.78V30.6701ZM147.96 29.1401C148.92 29.1401 149.39 28.6601 149.39 27.7101V24.0001C149.39 23.0601 148.91 22.5901 147.96 22.5901H144.18C143.24 22.5901 142.78 23.0601 142.78 24.0001V27.7101C142.78 28.6601 143.25 29.1401 144.18 29.1401H147.96Z" fill="url(#paint69_linear_703_100)"/>
<path d="M152.88 23.1401C152.88 22.8601 152.94 22.6001 153.07 22.3501C153.2 22.1001 153.37 21.8801 153.58 21.6901C153.79 21.5001 154.02 21.3401 154.28 21.2301C154.53 21.1201 154.8 21.0601 155.08 21.0601H160.37C160.65 21.0601 160.92 21.1201 161.17 21.2301C161.43 21.3401 161.66 21.5001 161.86 21.6901C162.06 21.8801 162.23 22.1001 162.36 22.3501C162.49 22.6001 162.55 22.8601 162.55 23.1401V28.6001C162.55 28.8701 162.49 29.1301 162.36 29.3801C162.23 29.6301 162.07 29.8501 161.86 30.0401C161.65 30.2301 161.42 30.3801 161.17 30.4901C160.92 30.6001 160.65 30.6601 160.37 30.6601H155.08C154.8 30.6601 154.53 30.6001 154.28 30.4901C154.02 30.3801 153.79 30.2301 153.58 30.0401C153.37 29.8501 153.2 29.6301 153.07 29.3801C152.94 29.1301 152.88 28.8601 152.88 28.6001V23.1401ZM154.41 27.7301C154.41 28.6701 154.88 29.1401 155.81 29.1401H159.59C160.55 29.1401 161.02 28.6701 161.02 27.7301V24.0201C161.02 23.0701 160.54 22.5901 159.59 22.5901H155.81C154.87 22.5901 154.41 23.0701 154.41 24.0201V27.7301Z" fill="url(#paint70_linear_703_100)"/>
<path d="M172 17.8599C172.28 17.8599 172.55 17.9099 172.8 18.0199C173.06 18.1299 173.29 18.2799 173.5 18.4799C173.71 18.6799 173.88 18.8999 174 19.1399C174.13 19.3899 174.19 19.6499 174.19 19.9299V28.6099C174.19 28.8799 174.13 29.1399 174 29.3899C173.87 29.6399 173.7 29.8599 173.5 30.0499C173.29 30.2399 173.06 30.3899 172.8 30.4999C172.55 30.6099 172.28 30.6699 172 30.6699H166.71C166.43 30.6699 166.16 30.6099 165.91 30.4999C165.66 30.3899 165.42 30.2399 165.22 30.0499C165.01 29.8599 164.85 29.6399 164.72 29.3899C164.59 29.1399 164.53 28.8699 164.53 28.6099V23.1499C164.53 22.8699 164.59 22.6099 164.72 22.3599C164.85 22.1099 165.01 21.8899 165.22 21.6999C165.43 21.5099 165.66 21.3499 165.91 21.2399C166.16 21.1299 166.43 21.0699 166.71 21.0699H172.67V20.7999C172.67 19.8699 172.2 19.3999 171.27 19.3999H164.97V17.8699H172V17.8599ZM172.66 24.0099C172.66 23.0599 172.19 22.5799 171.26 22.5799H167.48C166.52 22.5799 166.05 23.0599 166.05 24.0099V27.7199C166.05 28.6599 166.53 29.1299 167.48 29.1299H171.26C172.2 29.1299 172.66 28.6599 172.66 27.7199V24.0099Z" fill="url(#paint71_linear_703_100)"/>
<path d="M184.3 26.5198H177.69V30.6698H176.16V21.0498H177.69V24.9798H184.3V21.0498H185.83V30.6698H184.3V26.5198Z" fill="url(#paint72_linear_703_100)"/>
<path d="M189.33 23.7198H193.83C194.11 23.7198 194.38 23.7698 194.64 23.8798C194.9 23.9898 195.13 24.1398 195.33 24.3398C195.53 24.5398 195.69 24.7598 195.82 24.9998C195.95 25.2498 196.01 25.5098 196.01 25.7898V28.5898C196.01 28.8598 195.95 29.1198 195.82 29.3698C195.69 29.6198 195.53 29.8398 195.33 30.0298C195.13 30.2198 194.9 30.3698 194.64 30.4798C194.38 30.5898 194.11 30.6498 193.83 30.6498H189.99C189.71 30.6498 189.44 30.5898 189.19 30.4798C188.94 30.3698 188.7 30.2198 188.49 30.0298C188.28 29.8398 188.11 29.6198 187.98 29.3698C187.85 29.1198 187.79 28.8498 187.79 28.5898V21.0498H189.32V23.7198H189.33ZM189.33 25.2498V27.7198C189.33 28.6598 189.8 29.1298 190.73 29.1298H193.08C194.02 29.1298 194.48 28.6598 194.48 27.7198V26.6498C194.48 25.7198 194.01 25.2498 193.08 25.2498H189.33ZM197.35 21.0498H198.88V30.6698H197.35V21.0498Z" fill="url(#paint73_linear_703_100)"/>
<path d="M208.99 29.1398V21.0598H210.52V30.6798H203.04C202.76 30.6798 202.49 30.6198 202.24 30.5098C201.99 30.3998 201.75 30.2498 201.54 30.0598C201.33 29.8698 201.16 29.6498 201.03 29.3998C200.9 29.1498 200.84 28.8798 200.84 28.6198V21.0798H202.37V27.7498C202.37 28.6898 202.84 29.1598 203.77 29.1598H208.99V29.1398ZM205.14 19.6298L206.08 17.0098H207.87L206.12 19.6298H205.14Z" fill="url(#paint74_linear_703_100)"/>
<path d="M227.05 22.5798H220.78V21.0498H227.83C228.11 21.0498 228.38 21.1098 228.63 21.2198C228.89 21.3298 229.12 21.4898 229.32 21.6798C229.52 21.8698 229.69 22.0898 229.82 22.3398C229.95 22.5898 230.01 22.8498 230.01 23.1298V28.5898C230.01 28.8598 229.95 29.1198 229.82 29.3698C229.69 29.6198 229.53 29.8398 229.32 30.0298C229.11 30.2198 228.88 30.3698 228.63 30.4798C228.38 30.5898 228.11 30.6498 227.83 30.6498H222.54C222.26 30.6498 221.99 30.5898 221.74 30.4798C221.49 30.3698 221.25 30.2198 221.04 30.0298C220.83 29.8398 220.66 29.6198 220.53 29.3698C220.4 29.1198 220.34 28.8498 220.34 28.5898V26.3298C220.34 26.0498 220.4 25.7898 220.53 25.5398C220.66 25.2898 220.83 25.0698 221.04 24.8698C221.25 24.6698 221.48 24.5198 221.74 24.4198C222 24.3198 222.26 24.2598 222.54 24.2598H228.49V24.0098C228.48 23.0498 228 22.5798 227.05 22.5798ZM223.27 25.7998C222.33 25.7998 221.87 26.2698 221.87 27.1998V27.7298C221.87 28.6698 222.34 29.1398 223.27 29.1398H227.05C228.01 29.1398 228.48 28.6698 228.48 27.7298V27.1998C228.48 26.2698 228 25.7998 227.05 25.7998H223.27Z" fill="url(#paint75_linear_703_100)"/>
<path d="M240.12 26.5198H235.08V24.9898H240.12V24.0198C240.12 23.0698 239.64 22.5898 238.69 22.5898H235.26C234.32 22.5898 233.86 23.0698 233.86 24.0198H232.33V23.1498C232.33 22.8698 232.39 22.6098 232.51 22.3598C232.63 22.1098 232.8 21.8898 233.01 21.6998C233.22 21.5098 233.45 21.3498 233.71 21.2398C233.97 21.1298 234.23 21.0698 234.5 21.0698H239.47C239.75 21.0698 240.02 21.1298 240.27 21.2398C240.53 21.3498 240.76 21.5098 240.96 21.6998C241.16 21.8898 241.33 22.1098 241.46 22.3598C241.59 22.6098 241.65 22.8698 241.65 23.1498V28.6098C241.65 28.8798 241.59 29.1398 241.46 29.3898C241.33 29.6398 241.17 29.8598 240.96 30.0498C240.75 30.2398 240.52 30.3898 240.27 30.4998C240.02 30.6098 239.75 30.6698 239.47 30.6698H234.18C233.9 30.6698 233.63 30.6098 233.38 30.4998C233.13 30.3898 232.89 30.2398 232.68 30.0498C232.47 29.8598 232.3 29.6398 232.17 29.3898C232.04 29.1398 231.98 28.8698 231.98 28.6098V27.7398H233.51C233.51 28.6798 233.98 29.1498 234.91 29.1498H238.69C239.65 29.1498 240.12 28.6798 240.12 27.7398V26.5198Z" fill="url(#paint76_linear_703_100)"/>
<path d="M245.13 30.6701V34.0001H243.6V23.1201C243.6 22.8501 243.66 22.5901 243.79 22.3401C243.92 22.0901 244.09 21.8601 244.3 21.6801C244.51 21.4901 244.74 21.3401 245 21.2301C245.26 21.1201 245.52 21.0601 245.8 21.0601H251.09C251.37 21.0601 251.64 21.1201 251.89 21.2301C252.15 21.3401 252.38 21.4901 252.58 21.6801C252.79 21.8701 252.95 22.0901 253.08 22.3401C253.21 22.5901 253.27 22.8601 253.27 23.1201V28.5801C253.27 28.8601 253.21 29.1201 253.08 29.3701C252.95 29.6201 252.79 29.8401 252.58 30.0301C252.37 30.2201 252.14 30.3801 251.89 30.4901C251.64 30.6001 251.37 30.6601 251.09 30.6601H245.13V30.6701ZM250.32 29.1401C251.28 29.1401 251.75 28.6601 251.75 27.7101V24.0001C251.75 23.0601 251.27 22.5901 250.32 22.5901H246.54C245.6 22.5901 245.14 23.0601 245.14 24.0001V27.7101C245.14 28.6601 245.61 29.1401 246.54 29.1401H250.32Z" fill="url(#paint77_linear_703_100)"/>
<path d="M255.24 23.1401C255.24 22.8601 255.3 22.6001 255.43 22.3501C255.56 22.1001 255.73 21.8801 255.94 21.6901C256.15 21.5001 256.38 21.3401 256.64 21.2301C256.9 21.1201 257.16 21.0601 257.44 21.0601H262.73C263.01 21.0601 263.28 21.1201 263.53 21.2301C263.79 21.3401 264.02 21.5001 264.22 21.6901C264.42 21.8801 264.59 22.1001 264.72 22.3501C264.85 22.6001 264.91 22.8601 264.91 23.1401V28.6001C264.91 28.8701 264.85 29.1301 264.72 29.3801C264.59 29.6301 264.43 29.8501 264.22 30.0401C264.01 30.2301 263.78 30.3801 263.53 30.4901C263.28 30.6001 263.01 30.6601 262.73 30.6601H257.44C257.16 30.6601 256.89 30.6001 256.64 30.4901C256.39 30.3801 256.15 30.2301 255.94 30.0401C255.73 29.8501 255.56 29.6301 255.43 29.3801C255.3 29.1301 255.24 28.8601 255.24 28.6001V23.1401ZM256.77 27.7301C256.77 28.6701 257.24 29.1401 258.17 29.1401H261.95C262.91 29.1401 263.38 28.6701 263.38 27.7301V24.0201C263.38 23.0701 262.9 22.5901 261.95 22.5901H258.17C257.23 22.5901 256.77 23.0701 256.77 24.0201V27.7301Z" fill="url(#paint78_linear_703_100)"/>
<path d="M268.41 22.58V30.66H266.88V21.04H274.36C274.64 21.04 274.91 21.1 275.16 21.21C275.42 21.32 275.65 21.47 275.86 21.66C276.07 21.85 276.24 22.07 276.36 22.32C276.49 22.57 276.55 22.84 276.55 23.1V30.64H275.02V23.97C275.02 23.03 274.55 22.56 273.62 22.56H268.41V22.58Z" fill="url(#paint79_linear_703_100)"/>
<path d="M278.52 23.1401C278.52 22.8601 278.58 22.6001 278.71 22.3501C278.84 22.1001 279.01 21.8801 279.22 21.6901C279.43 21.5001 279.66 21.3401 279.92 21.2301C280.18 21.1201 280.44 21.0601 280.72 21.0601H286.01C286.29 21.0601 286.56 21.1201 286.81 21.2301C287.07 21.3401 287.3 21.5001 287.5 21.6901C287.7 21.8801 287.87 22.1001 288 22.3501C288.13 22.6001 288.19 22.8601 288.19 23.1401V28.6001C288.19 28.8701 288.13 29.1301 288 29.3801C287.87 29.6301 287.71 29.8501 287.5 30.0401C287.29 30.2301 287.06 30.3801 286.81 30.4901C286.56 30.6001 286.29 30.6601 286.01 30.6601H280.72C280.44 30.6601 280.17 30.6001 279.92 30.4901C279.67 30.3801 279.43 30.2301 279.22 30.0401C279.01 29.8501 278.84 29.6301 278.71 29.3801C278.58 29.1301 278.52 28.8601 278.52 28.6001V23.1401ZM280.05 27.7301C280.05 28.6701 280.52 29.1401 281.45 29.1401H285.23C286.19 29.1401 286.66 28.6701 286.66 27.7301V24.0201C286.66 23.0701 286.18 22.5901 285.23 22.5901H281.45C280.51 22.5901 280.05 23.0701 280.05 24.0201V27.7301Z" fill="url(#paint80_linear_703_100)"/>
<path d="M291.68 30.6701V34.0001H290.15V23.1201C290.15 22.8501 290.21 22.5901 290.34 22.3401C290.47 22.0901 290.64 21.8601 290.85 21.6801C291.06 21.4901 291.29 21.3401 291.55 21.2301C291.81 21.1201 292.07 21.0601 292.35 21.0601H297.64C297.92 21.0601 298.19 21.1201 298.44 21.2301C298.7 21.3401 298.93 21.4901 299.13 21.6801C299.34 21.8701 299.5 22.0901 299.63 22.3401C299.76 22.5901 299.82 22.8601 299.82 23.1201V28.5801C299.82 28.8601 299.76 29.1201 299.63 29.3701C299.5 29.6201 299.34 29.8401 299.13 30.0301C298.92 30.2201 298.69 30.3801 298.44 30.4901C298.19 30.6001 297.92 30.6601 297.64 30.6601H291.68V30.6701ZM296.86 29.1401C297.82 29.1401 298.29 28.6601 298.29 27.7101V24.0001C298.29 23.0601 297.81 22.5901 296.86 22.5901H293.08C292.14 22.5901 291.68 23.0601 291.68 24.0001V27.7101C291.68 28.6601 292.15 29.1401 293.08 29.1401H296.86Z" fill="url(#paint81_linear_703_100)"/>
<path d="M305.13 22.5798H301.78V21.0498H310V22.5798H306.65V30.6598H305.12V22.5798H305.13Z" fill="url(#paint82_linear_703_100)"/>
</g>
<defs>
<linearGradient id="paint0_linear_703_100" x1="4.48505e-05" y1="15.5093" x2="351.401" y2="15.5093" gradientUnits="userSpaceOnUse">
<stop stop-color="#00BBF0"/>
<stop offset="0.1" stop-color="#233C96"/>
<stop offset="0.6" stop-color="#00204A"/>
</linearGradient>
<linearGradient id="paint1_linear_703_100" x1="-0.00176748" y1="15.9615" x2="351.399" y2="15.9615" gradientUnits="userSpaceOnUse">
<stop stop-color="#00BBF0"/>
<stop offset="0.1" stop-color="#233C96"/>
<stop offset="0.6" stop-color="#00204A"/>
</linearGradient>
<linearGradient id="paint2_linear_703_100" x1="-3.4315" y1="6.4037" x2="316.581" y2="6.4037" gradientUnits="userSpaceOnUse">
<stop stop-color="#00BBF0"/>
<stop offset="0.1" stop-color="#233C96"/>
<stop offset="0.6" stop-color="#00204A"/>
</linearGradient>
<linearGradient id="paint3_linear_703_100" x1="-3.43153" y1="6.4037" x2="316.581" y2="6.4037" gradientUnits="userSpaceOnUse">
<stop stop-color="#00BBF0"/>
<stop offset="0.1" stop-color="#233C96"/>
<stop offset="0.6" stop-color="#00204A"/>
</linearGradient>
<linearGradient id="paint4_linear_703_100" x1="-3.43162" y1="6.4037" x2="316.581" y2="6.4037" gradientUnits="userSpaceOnUse">
<stop stop-color="#00BBF0"/>
<stop offset="0.1" stop-color="#233C96"/>
<stop offset="0.6" stop-color="#00204A"/>
</linearGradient>
<linearGradient id="paint5_linear_703_100" x1="-3.4315" y1="6.4037" x2="316.581" y2="6.4037" gradientUnits="userSpaceOnUse">
<stop stop-color="#00BBF0"/>
<stop offset="0.1" stop-color="#233C96"/>
<stop offset="0.6" stop-color="#00204A"/>
</linearGradient>
<linearGradient id="paint6_linear_703_100" x1="-3.43149" y1="6.4037" x2="316.581" y2="6.4037" gradientUnits="userSpaceOnUse">
<stop stop-color="#00BBF0"/>
<stop offset="0.1" stop-color="#233C96"/>
<stop offset="0.6" stop-color="#00204A"/>
</linearGradient>
<linearGradient id="paint7_linear_703_100" x1="-3.43167" y1="6.4037" x2="316.581" y2="6.4037" gradientUnits="userSpaceOnUse">
<stop stop-color="#00BBF0"/>
<stop offset="0.1" stop-color="#233C96"/>
<stop offset="0.6" stop-color="#00204A"/>
</linearGradient>
<linearGradient id="paint8_linear_703_100" x1="-3.4315" y1="6.4037" x2="316.581" y2="6.4037" gradientUnits="userSpaceOnUse">
<stop stop-color="#00BBF0"/>
<stop offset="0.1" stop-color="#233C96"/>
<stop offset="0.6" stop-color="#00204A"/>
</linearGradient>
<linearGradient id="paint9_linear_703_100" x1="-3.43153" y1="6.4037" x2="316.581" y2="6.4037" gradientUnits="userSpaceOnUse">
<stop stop-color="#00BBF0"/>
<stop offset="0.1" stop-color="#233C96"/>
<stop offset="0.6" stop-color="#00204A"/>
</linearGradient>
<linearGradient id="paint10_linear_703_100" x1="-3.43162" y1="6.4037" x2="316.581" y2="6.4037" gradientUnits="userSpaceOnUse">
<stop stop-color="#00BBF0"/>
<stop offset="0.1" stop-color="#233C96"/>
<stop offset="0.6" stop-color="#00204A"/>
</linearGradient>
<linearGradient id="paint11_linear_703_100" x1="-3.4315" y1="6.4037" x2="316.581" y2="6.4037" gradientUnits="userSpaceOnUse">
<stop stop-color="#00BBF0"/>
<stop offset="0.1" stop-color="#233C96"/>
<stop offset="0.6" stop-color="#00204A"/>
</linearGradient>
<linearGradient id="paint12_linear_703_100" x1="-3.43149" y1="6.4037" x2="316.581" y2="6.4037" gradientUnits="userSpaceOnUse">
<stop stop-color="#00BBF0"/>
<stop offset="0.1" stop-color="#233C96"/>
<stop offset="0.6" stop-color="#00204A"/>
</linearGradient>
<linearGradient id="paint13_linear_703_100" x1="-3.43167" y1="6.4037" x2="316.581" y2="6.4037" gradientUnits="userSpaceOnUse">
<stop stop-color="#00BBF0"/>
<stop offset="0.1" stop-color="#233C96"/>
<stop offset="0.6" stop-color="#00204A"/>
</linearGradient>
<linearGradient id="paint14_linear_703_100" x1="-3.4315" y1="6.4037" x2="316.581" y2="6.4037" gradientUnits="userSpaceOnUse">
<stop stop-color="#00BBF0"/>
<stop offset="0.1" stop-color="#233C96"/>
<stop offset="0.6" stop-color="#00204A"/>
</linearGradient>
<linearGradient id="paint15_linear_703_100" x1="-3.43153" y1="6.4037" x2="316.581" y2="6.4037" gradientUnits="userSpaceOnUse">
<stop stop-color="#00BBF0"/>
<stop offset="0.1" stop-color="#233C96"/>
<stop offset="0.6" stop-color="#00204A"/>
</linearGradient>
<linearGradient id="paint16_linear_703_100" x1="-3.43162" y1="6.4037" x2="316.581" y2="6.4037" gradientUnits="userSpaceOnUse">
<stop stop-color="#00BBF0"/>
<stop offset="0.1" stop-color="#233C96"/>
<stop offset="0.6" stop-color="#00204A"/>
</linearGradient>
<linearGradient id="paint17_linear_703_100" x1="-3.4315" y1="6.4037" x2="316.581" y2="6.4037" gradientUnits="userSpaceOnUse">
<stop stop-color="#00BBF0"/>
<stop offset="0.1" stop-color="#233C96"/>
<stop offset="0.6" stop-color="#00204A"/>
</linearGradient>
<linearGradient id="paint18_linear_703_100" x1="-3.43149" y1="6.4037" x2="316.581" y2="6.4037" gradientUnits="userSpaceOnUse">
<stop stop-color="#00BBF0"/>
<stop offset="0.1" stop-color="#233C96"/>
<stop offset="0.6" stop-color="#00204A"/>
</linearGradient>
<linearGradient id="paint19_linear_703_100" x1="-3.43167" y1="6.4037" x2="316.581" y2="6.4037" gradientUnits="userSpaceOnUse">
<stop stop-color="#00BBF0"/>
<stop offset="0.1" stop-color="#233C96"/>
<stop offset="0.6" stop-color="#00204A"/>
</linearGradient>
<linearGradient id="paint20_linear_703_100" x1="-2.79128" y1="24.2637" x2="310.011" y2="24.2637" gradientUnits="userSpaceOnUse">
<stop stop-color="#00BBF0"/>
<stop offset="0.1" stop-color="#233C96"/>
<stop offset="0.6" stop-color="#00204A"/>
</linearGradient>
<linearGradient id="paint21_linear_703_100" x1="-2.79118" y1="25.855" x2="310.011" y2="25.855" gradientUnits="userSpaceOnUse">
<stop stop-color="#00BBF0"/>
<stop offset="0.1" stop-color="#233C96"/>
<stop offset="0.6" stop-color="#00204A"/>
</linearGradient>
<linearGradient id="paint22_linear_703_100" x1="-2.79116" y1="25.86" x2="310.011" y2="25.86" gradientUnits="userSpaceOnUse">
<stop stop-color="#00BBF0"/>
<stop offset="0.1" stop-color="#233C96"/>
<stop offset="0.6" stop-color="#00204A"/>
</linearGradient>
<linearGradient id="paint23_linear_703_100" x1="-2.79126" y1="24.2637" x2="310.011" y2="24.2637" gradientUnits="userSpaceOnUse">
<stop stop-color="#00BBF0"/>
<stop offset="0.1" stop-color="#233C96"/>
<stop offset="0.6" stop-color="#00204A"/>
</linearGradient>
<linearGradient id="paint24_linear_703_100" x1="-2.79128" y1="27.521" x2="310.011" y2="27.521" gradientUnits="userSpaceOnUse">
<stop stop-color="#00BBF0"/>
<stop offset="0.1" stop-color="#233C96"/>
<stop offset="0.6" stop-color="#00204A"/>
</linearGradient>
<linearGradient id="paint25_linear_703_100" x1="-2.7912" y1="25.86" x2="310.011" y2="25.86" gradientUnits="userSpaceOnUse">
<stop stop-color="#00BBF0"/>
<stop offset="0.1" stop-color="#233C96"/>
<stop offset="0.6" stop-color="#00204A"/>
</linearGradient>
<linearGradient id="paint26_linear_703_100" x1="-2.79119" y1="25.855" x2="310.011" y2="25.855" gradientUnits="userSpaceOnUse">
<stop stop-color="#00BBF0"/>
<stop offset="0.1" stop-color="#233C96"/>
<stop offset="0.6" stop-color="#00204A"/>
</linearGradient>
<linearGradient id="paint27_linear_703_100" x1="-2.79128" y1="27.5313" x2="310.011" y2="27.5313" gradientUnits="userSpaceOnUse">
<stop stop-color="#00BBF0"/>
<stop offset="0.1" stop-color="#233C96"/>
<stop offset="0.6" stop-color="#00204A"/>
</linearGradient>
<linearGradient id="paint28_linear_703_100" x1="-2.79116" y1="25.8653" x2="310.011" y2="25.8653" gradientUnits="userSpaceOnUse">
<stop stop-color="#00BBF0"/>
<stop offset="0.1" stop-color="#233C96"/>
<stop offset="0.6" stop-color="#00204A"/>
</linearGradient>
<linearGradient id="paint29_linear_703_100" x1="-2.79134" y1="24.2637" x2="310.011" y2="24.2637" gradientUnits="userSpaceOnUse">
<stop stop-color="#00BBF0"/>
<stop offset="0.1" stop-color="#233C96"/>
<stop offset="0.6" stop-color="#00204A"/>
</linearGradient>
<linearGradient id="paint30_linear_703_100" x1="-2.79124" y1="25.86" x2="310.011" y2="25.86" gradientUnits="userSpaceOnUse">
<stop stop-color="#00BBF0"/>
<stop offset="0.1" stop-color="#233C96"/>
<stop offset="0.6" stop-color="#00204A"/>
</linearGradient>
<linearGradient id="paint31_linear_703_100" x1="-2.79163" y1="25.86" x2="310.011" y2="25.86" gradientUnits="userSpaceOnUse">
<stop stop-color="#00BBF0"/>
<stop offset="0.1" stop-color="#233C96"/>
<stop offset="0.6" stop-color="#00204A"/>
</linearGradient>
<linearGradient id="paint32_linear_703_100" x1="-2.7913" y1="23.8388" x2="310.011" y2="23.8388" gradientUnits="userSpaceOnUse">
<stop stop-color="#00BBF0"/>
<stop offset="0.1" stop-color="#233C96"/>
<stop offset="0.6" stop-color="#00204A"/>
</linearGradient>
<linearGradient id="paint33_linear_703_100" x1="-2.79119" y1="25.855" x2="310.011" y2="25.855" gradientUnits="userSpaceOnUse">
<stop stop-color="#00BBF0"/>
<stop offset="0.1" stop-color="#233C96"/>
<stop offset="0.6" stop-color="#00204A"/>
</linearGradient>
<linearGradient id="paint34_linear_703_100" x1="-2.79117" y1="25.865" x2="310.011" y2="25.865" gradientUnits="userSpaceOnUse">
<stop stop-color="#00BBF0"/>
<stop offset="0.1" stop-color="#233C96"/>
<stop offset="0.6" stop-color="#00204A"/>
</linearGradient>
<linearGradient id="paint35_linear_703_100" x1="-2.79117" y1="27.5313" x2="310.011" y2="27.5313" gradientUnits="userSpaceOnUse">
<stop stop-color="#00BBF0"/>
<stop offset="0.1" stop-color="#233C96"/>
<stop offset="0.6" stop-color="#00204A"/>
</linearGradient>
<linearGradient id="paint36_linear_703_100" x1="-2.79157" y1="25.8653" x2="310.011" y2="25.8653" gradientUnits="userSpaceOnUse">
<stop stop-color="#00BBF0"/>
<stop offset="0.1" stop-color="#233C96"/>
<stop offset="0.6" stop-color="#00204A"/>
</linearGradient>
<linearGradient id="paint37_linear_703_100" x1="-2.79031" y1="25.8602" x2="310.011" y2="25.8602" gradientUnits="userSpaceOnUse">
<stop stop-color="#00BBF0"/>
<stop offset="0.1" stop-color="#233C96"/>
<stop offset="0.6" stop-color="#00204A"/>
</linearGradient>
<linearGradient id="paint38_linear_703_100" x1="-2.79208" y1="25.8653" x2="310.011" y2="25.8653" gradientUnits="userSpaceOnUse">
<stop stop-color="#00BBF0"/>
<stop offset="0.1" stop-color="#233C96"/>
<stop offset="0.6" stop-color="#00204A"/>
</linearGradient>
<linearGradient id="paint39_linear_703_100" x1="-2.79117" y1="27.5313" x2="310.011" y2="27.5313" gradientUnits="userSpaceOnUse">
<stop stop-color="#00BBF0"/>
<stop offset="0.1" stop-color="#233C96"/>
<stop offset="0.6" stop-color="#00204A"/>
</linearGradient>
<linearGradient id="paint40_linear_703_100" x1="-2.79132" y1="25.86" x2="310.011" y2="25.86" gradientUnits="userSpaceOnUse">
<stop stop-color="#00BBF0"/>
<stop offset="0.1" stop-color="#233C96"/>
<stop offset="0.6" stop-color="#00204A"/>
</linearGradient>
<linearGradient id="paint41_linear_703_100" x1="-2.79128" y1="24.2637" x2="310.011" y2="24.2637" gradientUnits="userSpaceOnUse">
<stop stop-color="#00BBF0"/>
<stop offset="0.1" stop-color="#233C96"/>
<stop offset="0.6" stop-color="#00204A"/>
</linearGradient>
<linearGradient id="paint42_linear_703_100" x1="-2.79118" y1="25.855" x2="310.011" y2="25.855" gradientUnits="userSpaceOnUse">
<stop stop-color="#00BBF0"/>
<stop offset="0.1" stop-color="#233C96"/>
<stop offset="0.6" stop-color="#00204A"/>
</linearGradient>
<linearGradient id="paint43_linear_703_100" x1="-2.79116" y1="25.86" x2="310.011" y2="25.86" gradientUnits="userSpaceOnUse">
<stop stop-color="#00BBF0"/>
<stop offset="0.1" stop-color="#233C96"/>
<stop offset="0.6" stop-color="#00204A"/>
</linearGradient>
<linearGradient id="paint44_linear_703_100" x1="-2.79126" y1="24.2637" x2="310.011" y2="24.2637" gradientUnits="userSpaceOnUse">
<stop stop-color="#00BBF0"/>
<stop offset="0.1" stop-color="#233C96"/>
<stop offset="0.6" stop-color="#00204A"/>
</linearGradient>
<linearGradient id="paint45_linear_703_100" x1="-2.79128" y1="27.521" x2="310.011" y2="27.521" gradientUnits="userSpaceOnUse">
<stop stop-color="#00BBF0"/>
<stop offset="0.1" stop-color="#233C96"/>
<stop offset="0.6" stop-color="#00204A"/>
</linearGradient>
<linearGradient id="paint46_linear_703_100" x1="-2.7912" y1="25.86" x2="310.011" y2="25.86" gradientUnits="userSpaceOnUse">
<stop stop-color="#00BBF0"/>
<stop offset="0.1" stop-color="#233C96"/>
<stop offset="0.6" stop-color="#00204A"/>
</linearGradient>
<linearGradient id="paint47_linear_703_100" x1="-2.79119" y1="25.855" x2="310.011" y2="25.855" gradientUnits="userSpaceOnUse">
<stop stop-color="#00BBF0"/>
<stop offset="0.1" stop-color="#233C96"/>
<stop offset="0.6" stop-color="#00204A"/>
</linearGradient>
<linearGradient id="paint48_linear_703_100" x1="-2.79128" y1="27.5313" x2="310.011" y2="27.5313" gradientUnits="userSpaceOnUse">
<stop stop-color="#00BBF0"/>
<stop offset="0.1" stop-color="#233C96"/>
<stop offset="0.6" stop-color="#00204A"/>
</linearGradient>
<linearGradient id="paint49_linear_703_100" x1="-2.79116" y1="25.8653" x2="310.011" y2="25.8653" gradientUnits="userSpaceOnUse">
<stop stop-color="#00BBF0"/>
<stop offset="0.1" stop-color="#233C96"/>
<stop offset="0.6" stop-color="#00204A"/>
</linearGradient>
<linearGradient id="paint50_linear_703_100" x1="-2.79134" y1="24.2637" x2="310.011" y2="24.2637" gradientUnits="userSpaceOnUse">
<stop stop-color="#00BBF0"/>
<stop offset="0.1" stop-color="#233C96"/>
<stop offset="0.6" stop-color="#00204A"/>
</linearGradient>
<linearGradient id="paint51_linear_703_100" x1="-2.79124" y1="25.86" x2="310.011" y2="25.86" gradientUnits="userSpaceOnUse">
<stop stop-color="#00BBF0"/>
<stop offset="0.1" stop-color="#233C96"/>
<stop offset="0.6" stop-color="#00204A"/>
</linearGradient>
<linearGradient id="paint52_linear_703_100" x1="-2.79163" y1="25.86" x2="310.011" y2="25.86" gradientUnits="userSpaceOnUse">
<stop stop-color="#00BBF0"/>
<stop offset="0.1" stop-color="#233C96"/>
<stop offset="0.6" stop-color="#00204A"/>
</linearGradient>
<linearGradient id="paint53_linear_703_100" x1="-2.7913" y1="23.8388" x2="310.011" y2="23.8388" gradientUnits="userSpaceOnUse">
<stop stop-color="#00BBF0"/>
<stop offset="0.1" stop-color="#233C96"/>
<stop offset="0.6" stop-color="#00204A"/>
</linearGradient>
<linearGradient id="paint54_linear_703_100" x1="-2.79119" y1="25.855" x2="310.011" y2="25.855" gradientUnits="userSpaceOnUse">
<stop stop-color="#00BBF0"/>
<stop offset="0.1" stop-color="#233C96"/>
<stop offset="0.6" stop-color="#00204A"/>
</linearGradient>
<linearGradient id="paint55_linear_703_100" x1="-2.79117" y1="25.865" x2="310.011" y2="25.865" gradientUnits="userSpaceOnUse">
<stop stop-color="#00BBF0"/>
<stop offset="0.1" stop-color="#233C96"/>
<stop offset="0.6" stop-color="#00204A"/>
</linearGradient>
<linearGradient id="paint56_linear_703_100" x1="-2.79117" y1="27.5313" x2="310.011" y2="27.5313" gradientUnits="userSpaceOnUse">
<stop stop-color="#00BBF0"/>
<stop offset="0.1" stop-color="#233C96"/>
<stop offset="0.6" stop-color="#00204A"/>
</linearGradient>
<linearGradient id="paint57_linear_703_100" x1="-2.79157" y1="25.8653" x2="310.011" y2="25.8653" gradientUnits="userSpaceOnUse">
<stop stop-color="#00BBF0"/>
<stop offset="0.1" stop-color="#233C96"/>
<stop offset="0.6" stop-color="#00204A"/>
</linearGradient>
<linearGradient id="paint58_linear_703_100" x1="-2.79031" y1="25.8602" x2="310.011" y2="25.8602" gradientUnits="userSpaceOnUse">
<stop stop-color="#00BBF0"/>
<stop offset="0.1" stop-color="#233C96"/>
<stop offset="0.6" stop-color="#00204A"/>
</linearGradient>
<linearGradient id="paint59_linear_703_100" x1="-2.79208" y1="25.8653" x2="310.011" y2="25.8653" gradientUnits="userSpaceOnUse">
<stop stop-color="#00BBF0"/>
<stop offset="0.1" stop-color="#233C96"/>
<stop offset="0.6" stop-color="#00204A"/>
</linearGradient>
<linearGradient id="paint60_linear_703_100" x1="-2.79117" y1="27.5313" x2="310.011" y2="27.5313" gradientUnits="userSpaceOnUse">
<stop stop-color="#00BBF0"/>
<stop offset="0.1" stop-color="#233C96"/>
<stop offset="0.6" stop-color="#00204A"/>
</linearGradient>
<linearGradient id="paint61_linear_703_100" x1="-2.79132" y1="25.86" x2="310.011" y2="25.86" gradientUnits="userSpaceOnUse">
<stop stop-color="#00BBF0"/>
<stop offset="0.1" stop-color="#233C96"/>
<stop offset="0.6" stop-color="#00204A"/>
</linearGradient>
<linearGradient id="paint62_linear_703_100" x1="-2.79128" y1="24.2637" x2="310.011" y2="24.2637" gradientUnits="userSpaceOnUse">
<stop stop-color="#00BBF0"/>
<stop offset="0.1" stop-color="#233C96"/>
<stop offset="0.6" stop-color="#00204A"/>
</linearGradient>
<linearGradient id="paint63_linear_703_100" x1="-2.79118" y1="25.855" x2="310.011" y2="25.855" gradientUnits="userSpaceOnUse">
<stop stop-color="#00BBF0"/>
<stop offset="0.1" stop-color="#233C96"/>
<stop offset="0.6" stop-color="#00204A"/>
</linearGradient>
<linearGradient id="paint64_linear_703_100" x1="-2.79116" y1="25.86" x2="310.011" y2="25.86" gradientUnits="userSpaceOnUse">
<stop stop-color="#00BBF0"/>
<stop offset="0.1" stop-color="#233C96"/>
<stop offset="0.6" stop-color="#00204A"/>
</linearGradient>
<linearGradient id="paint65_linear_703_100" x1="-2.79126" y1="24.2637" x2="310.011" y2="24.2637" gradientUnits="userSpaceOnUse">
<stop stop-color="#00BBF0"/>
<stop offset="0.1" stop-color="#233C96"/>
<stop offset="0.6" stop-color="#00204A"/>
</linearGradient>
<linearGradient id="paint66_linear_703_100" x1="-2.79128" y1="27.521" x2="310.011" y2="27.521" gradientUnits="userSpaceOnUse">
<stop stop-color="#00BBF0"/>
<stop offset="0.1" stop-color="#233C96"/>
<stop offset="0.6" stop-color="#00204A"/>
</linearGradient>
<linearGradient id="paint67_linear_703_100" x1="-2.7912" y1="25.86" x2="310.011" y2="25.86" gradientUnits="userSpaceOnUse">
<stop stop-color="#00BBF0"/>
<stop offset="0.1" stop-color="#233C96"/>
<stop offset="0.6" stop-color="#00204A"/>
</linearGradient>
<linearGradient id="paint68_linear_703_100" x1="-2.79119" y1="25.855" x2="310.011" y2="25.855" gradientUnits="userSpaceOnUse">
<stop stop-color="#00BBF0"/>
<stop offset="0.1" stop-color="#233C96"/>
<stop offset="0.6" stop-color="#00204A"/>
</linearGradient>
<linearGradient id="paint69_linear_703_100" x1="-2.79128" y1="27.5313" x2="310.011" y2="27.5313" gradientUnits="userSpaceOnUse">
<stop stop-color="#00BBF0"/>
<stop offset="0.1" stop-color="#233C96"/>
<stop offset="0.6" stop-color="#00204A"/>
</linearGradient>
<linearGradient id="paint70_linear_703_100" x1="-2.79116" y1="25.8653" x2="310.011" y2="25.8653" gradientUnits="userSpaceOnUse">
<stop stop-color="#00BBF0"/>
<stop offset="0.1" stop-color="#233C96"/>
<stop offset="0.6" stop-color="#00204A"/>
</linearGradient>
<linearGradient id="paint71_linear_703_100" x1="-2.79134" y1="24.2637" x2="310.011" y2="24.2637" gradientUnits="userSpaceOnUse">
<stop stop-color="#00BBF0"/>
<stop offset="0.1" stop-color="#233C96"/>
<stop offset="0.6" stop-color="#00204A"/>
</linearGradient>
<linearGradient id="paint72_linear_703_100" x1="-2.79124" y1="25.86" x2="310.011" y2="25.86" gradientUnits="userSpaceOnUse">
<stop stop-color="#00BBF0"/>
<stop offset="0.1" stop-color="#233C96"/>
<stop offset="0.6" stop-color="#00204A"/>
</linearGradient>
<linearGradient id="paint73_linear_703_100" x1="-2.79163" y1="25.86" x2="310.011" y2="25.86" gradientUnits="userSpaceOnUse">
<stop stop-color="#00BBF0"/>
<stop offset="0.1" stop-color="#233C96"/>
<stop offset="0.6" stop-color="#00204A"/>
</linearGradient>
<linearGradient id="paint74_linear_703_100" x1="-2.7913" y1="23.8388" x2="310.011" y2="23.8388" gradientUnits="userSpaceOnUse">
<stop stop-color="#00BBF0"/>
<stop offset="0.1" stop-color="#233C96"/>
<stop offset="0.6" stop-color="#00204A"/>
</linearGradient>
<linearGradient id="paint75_linear_703_100" x1="-2.79119" y1="25.855" x2="310.011" y2="25.855" gradientUnits="userSpaceOnUse">
<stop stop-color="#00BBF0"/>
<stop offset="0.1" stop-color="#233C96"/>
<stop offset="0.6" stop-color="#00204A"/>
</linearGradient>
<linearGradient id="paint76_linear_703_100" x1="-2.79117" y1="25.865" x2="310.011" y2="25.865" gradientUnits="userSpaceOnUse">
<stop stop-color="#00BBF0"/>
<stop offset="0.1" stop-color="#233C96"/>
<stop offset="0.6" stop-color="#00204A"/>
</linearGradient>
<linearGradient id="paint77_linear_703_100" x1="-2.79117" y1="27.5313" x2="310.011" y2="27.5313" gradientUnits="userSpaceOnUse">
<stop stop-color="#00BBF0"/>
<stop offset="0.1" stop-color="#233C96"/>
<stop offset="0.6" stop-color="#00204A"/>
</linearGradient>
<linearGradient id="paint78_linear_703_100" x1="-2.79157" y1="25.8653" x2="310.011" y2="25.8653" gradientUnits="userSpaceOnUse">
<stop stop-color="#00BBF0"/>
<stop offset="0.1" stop-color="#233C96"/>
<stop offset="0.6" stop-color="#00204A"/>
</linearGradient>
<linearGradient id="paint79_linear_703_100" x1="-2.79031" y1="25.8602" x2="310.011" y2="25.8602" gradientUnits="userSpaceOnUse">
<stop stop-color="#00BBF0"/>
<stop offset="0.1" stop-color="#233C96"/>
<stop offset="0.6" stop-color="#00204A"/>
</linearGradient>
<linearGradient id="paint80_linear_703_100" x1="-2.79208" y1="25.8653" x2="310.011" y2="25.8653" gradientUnits="userSpaceOnUse">
<stop stop-color="#00BBF0"/>
<stop offset="0.1" stop-color="#233C96"/>
<stop offset="0.6" stop-color="#00204A"/>
</linearGradient>
<linearGradient id="paint81_linear_703_100" x1="-2.79117" y1="27.5313" x2="310.011" y2="27.5313" gradientUnits="userSpaceOnUse">
<stop stop-color="#00BBF0"/>
<stop offset="0.1" stop-color="#233C96"/>
<stop offset="0.6" stop-color="#00204A"/>
</linearGradient>
<linearGradient id="paint82_linear_703_100" x1="-2.79132" y1="25.86" x2="310.011" y2="25.86" gradientUnits="userSpaceOnUse">
<stop stop-color="#00BBF0"/>
<stop offset="0.1" stop-color="#233C96"/>
<stop offset="0.6" stop-color="#00204A"/>
</linearGradient>
<clipPath id="clip0_703_100">
<rect width="310" height="34" fill="white"/>
</clipPath>
</defs>
</svg>
