<svg width="58" height="58" viewBox="0 0 58 58" fill="none" xmlns="http://www.w3.org/2000/svg">
<g filter="url(#filter0_d_711_1258)">
<circle cx="29" cy="25" r="25" fill="#F8F8FF"/>
</g>
<g opacity="0.8" clip-path="url(#clip0_711_1258)">
<path d="M28.651 32.3125C32.2677 32.3125 30.9781 30.0229 31.2573 29.3646C31.2531 28.8729 31.249 28.4 31.2656 28.1125C31.4948 28.1771 32.0354 28.451 33.1521 29.5365C34.876 31.276 35.3167 32.3125 36.7094 32.3125H39.2729C40.0854 32.3125 40.5083 31.976 40.7198 31.6937C40.924 31.4208 41.1239 30.9417 40.9052 30.1958C40.3333 28.4 36.9979 25.299 36.7906 24.9719C36.8219 24.9115 36.8719 24.8312 36.8979 24.7896H36.8958C37.5542 23.9198 40.0667 20.1552 40.4364 18.649C40.4375 18.6469 40.4385 18.6437 40.4385 18.6406C40.6385 17.9531 40.4552 17.5073 40.2656 17.2552C39.9802 16.8781 39.526 16.6875 38.9125 16.6875H36.349C35.4906 16.6875 34.8396 17.1198 34.5104 17.9083C33.9594 19.3094 32.4115 22.1906 31.251 23.2104C31.2156 21.7656 31.2396 20.6625 31.2583 19.8427C31.2958 18.2437 31.4167 16.6875 29.7573 16.6875H25.7281C24.6885 16.6875 23.6937 17.8229 24.7708 19.1708C25.7125 20.3521 25.1094 21.0104 25.3125 24.2875C24.5208 23.4385 23.1125 21.1458 22.1167 18.2156C21.8375 17.4229 21.4146 16.6885 20.224 16.6885H17.6604C16.6208 16.6885 16 17.2552 16 18.2042C16 20.3354 20.7177 32.3125 28.651 32.3125ZM20.224 18.251C20.45 18.251 20.4729 18.251 20.6406 18.7271C21.6604 21.7302 23.9479 26.174 25.6187 26.174C26.874 26.174 26.874 24.8875 26.874 24.4031L26.8729 20.5469C26.8042 19.2708 26.3396 18.6354 26.0344 18.25L29.6885 18.2542C29.6906 18.2719 29.6677 22.5198 29.699 23.549C29.699 25.0104 30.8594 25.8479 32.6708 24.0146C34.5823 21.8573 35.9042 18.6323 35.9573 18.501C36.0354 18.3135 36.1031 18.25 36.349 18.25H38.9125H38.9229C38.9219 18.2531 38.9219 18.2562 38.9208 18.2594C38.6864 19.3531 36.3729 22.8385 35.599 23.9208C35.5865 23.9375 35.575 23.9552 35.5635 23.9729C35.2229 24.5292 34.9458 25.1437 35.6104 26.0083H35.6115C35.6719 26.0812 35.8292 26.2521 36.0583 26.4896C36.7708 27.225 39.2146 29.7396 39.4312 30.7396C39.2875 30.7625 39.1312 30.7458 36.7094 30.751C36.1937 30.751 35.7906 29.9802 34.2521 28.4281C32.8687 27.0823 31.9708 26.5323 31.1531 26.5323C29.5656 26.5323 29.6812 27.8208 29.6958 29.3792C29.701 31.0687 29.6906 30.5344 29.7021 30.6406C29.6094 30.6771 29.3437 30.75 28.651 30.75C22.0417 30.75 17.7375 20.2594 17.5719 18.2542C17.6292 18.249 18.4177 18.2521 20.224 18.251Z" fill="#00204A"/>
</g>
<defs>
<filter id="filter0_d_711_1258" x="0" y="0" width="58" height="58" filterUnits="userSpaceOnUse" color-interpolation-filters="sRGB">
<feFlood flood-opacity="0" result="BackgroundImageFix"/>
<feColorMatrix in="SourceAlpha" type="matrix" values="0 0 0 0 0 0 0 0 0 0 0 0 0 0 0 0 0 0 127 0" result="hardAlpha"/>
<feOffset dy="4"/>
<feGaussianBlur stdDeviation="2"/>
<feColorMatrix type="matrix" values="0 0 0 0 0 0 0 0 0 0 0 0 0 0 0 0 0 0 0.25 0"/>
<feBlend mode="normal" in2="BackgroundImageFix" result="effect1_dropShadow_711_1258"/>
<feBlend mode="normal" in="SourceGraphic" in2="effect1_dropShadow_711_1258" result="shape"/>
</filter>
<clipPath id="clip0_711_1258">
<rect width="25" height="25" fill="white" transform="translate(16 12)"/>
</clipPath>
</defs>
</svg>
